<?xml version="1.0" standalone="no"?>
<!DOCTYPE svg PUBLIC "-//W3C//DTD SVG 1.1//EN" "http://www.w3.org/Graphics/SVG/1.1/DTD/svg11.dtd" >
<svg xmlns="http://www.w3.org/2000/svg">
<metadata></metadata>
<defs>
<font id="jayadhira_lila_ee_0.1regular" horiz-adv-x="569" >
<font-face units-per-em="2048" ascent="1638" descent="-410" />
<missing-glyph horiz-adv-x="907" />
<glyph horiz-adv-x="0" />
<glyph unicode="&#xd;" />
<glyph unicode=" "  horiz-adv-x="907" />
<glyph unicode="&#x09;" horiz-adv-x="907" />
<glyph unicode="&#xa0;" horiz-adv-x="907" />
<glyph unicode="!" horiz-adv-x="694" d="M73 145q0 41 22 81.5t55 75.5t71.5 62.5t71.5 44.5q9 -8 27.5 -33.5t39 -54.5t39 -54.5t26.5 -33.5v-22q0 -25 -15 -59t-39.5 -65t-56.5 -52.5t-65 -21.5t-64.5 8t-56.5 24.5t-40 41.5t-15 58zM73 1334l45 44q81 12 156 22q32 4 65.5 8t65.5 7.5t60 5.5t49 2h44 q16 0 31.5 -4.5t28 -12.5t20 -21t7.5 -29v-22q-11 -22 -30 -63.5t-41.5 -92.5t-46.5 -107.5t-45 -108t-36.5 -93.5t-20.5 -64q0 -5 -0.5 -26.5t-3.5 -51t-9.5 -62t-18.5 -60t-31 -45.5t-46 -18q-54 0 -91 26t-61.5 70t-38.5 102.5t-21 123.5t-10 132.5t-4.5 130t-5 116.5 t-11.5 91z" />
<glyph unicode="&#x22;" horiz-adv-x="826" d="M129 956.5q-5 13.5 1 38.5q8 42 26.5 78t42 69.5t49 65.5t49 66.5t41.5 73.5t27 85h85q0 -29 -8.5 -78t-24 -105t-37.5 -113t-50 -103.5t-61.5 -75.5t-71.5 -29q-12 0 -26.5 1t-25.5 7t-16 19.5zM365 912q0 25 18 68.5t46.5 94t64.5 102.5t71.5 94t67 69t52.5 27 q0 -26 -13 -75.5t-34.5 -109.5t-49 -123t-57.5 -114.5t-60 -84.5t-55 -33q-19 0 -29.5 8.5t-15 21t-5.5 27.5t-1 28z" />
<glyph unicode="#" horiz-adv-x="1572" d="M-170 187q-6 50 18.5 81.5t68 51.5t101.5 33t118 25.5t117.5 28t101 42t66.5 67t16 102.5q-62 0 -112 -17t-93.5 -43t-82.5 -55.5t-79.5 -55.5t-84.5 -43t-97 -17q-2 12 -3.5 34.5t0 45.5t9 43t25.5 26l562 265q47 21 74.5 73t44 118.5t27.5 138t26 131t38 98t65 38.5 q38 0 63.5 -22.5t29.5 -60.5l3 -16l-122 -365h16q37 0 62.5 23t43.5 60t30.5 84.5t24 97.5t25 97.5t32.5 84.5t46.5 60t68.5 23q12 0 22.5 -8t18.5 -20.5t12.5 -27t6.5 -27.5l3 -16q-30 -62 -47 -88t-27 -35t-16 -12t-13.5 -19t-20.5 -55.5t-36 -122.5h66q75 0 148.5 10.5 t148 23t151 23t157.5 10.5h115q27 -13 33.5 -27t8.5 -40l5 -33q-42 -15 -107 -22.5t-142.5 -13t-162 -11t-165.5 -17.5t-153 -32.5t-124 -55t-78.5 -86.5t-17.5 -127h34q103 33 180 55.5t141 39t122.5 28t124.5 24t146.5 27t190.5 35.5q18 3 31 3t24.5 -4t22.5 -12t25 -21 q-9 -31 -28.5 -50.5t-41 -30.5t-40 -15t-24.5 -4l-862 -174q-42 -13 -78 -52.5t-67 -97t-57 -128.5t-47 -145.5t-38 -148.5t-30 -137.5t-22.5 -112.5t-15.5 -74h-116q-7 62 -0.5 130t22.5 137.5t38.5 138.5t46 133t45.5 121t37 103h-33q-17 0 -44.5 -40.5t-60 -101.5 t-65.5 -132.5t-61 -134t-47 -105.5t-23 -47h-33q-19 0 -22.5 20t2.5 52.5t18.5 74t26 84.5t26 84.5t18.5 74t2.5 52.5t-22.5 20q-37 0 -74 -14.5t-73 -37t-71.5 -48t-70 -48t-68 -37t-66.5 -14.5q-12 0 -22.5 8t-18 20.5t-12 27t-5.5 26.5zM609 568h16q25 0 48.5 24.5t41 59 t26.5 71.5t6 62q-43 0 -67 -20t-37.5 -51t-20 -70t-13.5 -76z" />
<glyph unicode="$" horiz-adv-x="1139" d="M154 1065q0 151 102 256q97 101 250 125v205h119v-197q154 -3 293 -51l-29 -189q-101 60 -244 60h-20v-445l118 -65q124 -68 179 -144q63 -88 63 -221q0 -164 -98 -274.5t-262 -136.5v-205h-119v192h-25q-167 0 -311 60l25 196q107 -75 282 -75h29v497l-70 35 q-136 68 -201 145q-81 96 -81 232zM371 1071q0 -96 135 -180v366q-135 -50 -135 -186zM625 178q63 20 103 79.5t40 129.5q0 132 -143 207v-416z" />
<glyph unicode="%" horiz-adv-x="2048" d="M361 -98q35 70 91.5 170t128.5 217.5t155 245.5t170.5 255.5t175.5 247t170.5 220t154.5 175t128 110.5l-127 -239q-27 -32 -76 -102.5t-113 -165t-139 -206.5t-154.5 -228t-159.5 -228t-154 -206.5t-138.5 -164.5t-112.5 -101zM376 921q0 73 34.5 135.5t86.5 108 t113.5 71.5t115.5 26q21 0 46 -13t50 -35t48.5 -50t42 -58t29.5 -59.5t11 -53.5q0 -42 -17.5 -82t-46 -75t-65.5 -64.5t-75.5 -50.5t-76.5 -32.5t-69 -11.5q-54 0 -96 17.5t-71.5 49.5t-44.5 77t-15 100zM499 946q0 -27 17 -42t40 -22t48 -8t40 -1q23 0 43 1.5t37 10.5 t33 28.5t32 55.5q-24 9 -44 25.5t-39.5 32.5t-39 28t-42.5 12q-24 0 -46.5 -9t-40 -24.5t-28 -38t-10.5 -49.5zM1035 604q0 43 17.5 79.5t45.5 66.5t64 53t72.5 38.5t71 23.5t60.5 8q31 0 73.5 -21t81 -55.5t65.5 -78.5t27 -90q0 -64 -27.5 -117.5t-70 -92.5t-93.5 -60.5 t-97 -21.5q-54 0 -106 11t-93 41t-66 82t-25 134zM1283 532q16 0 28 1t21.5 5.5t17.5 14.5t16 28q-8 18 -15.5 27.5t-15.5 14t-15.5 5t-15.5 0.5h-21v-96z" />
<glyph unicode="&#x26;" horiz-adv-x="1479" d="M-157 -899q4 43 28 97t60.5 115.5t80.5 128.5t87 134.5t80.5 134.5t61.5 128.5t29.5 115.5t-15.5 97q-27 53 -44.5 78.5t-27 33t-13.5 1t-5 -17.5t-0.5 -21t-0.5 -10t-4.5 15t-13.5 54q-9 38 0.5 69t30.5 57.5t49.5 50t56.5 46.5t51.5 47.5t35.5 53.5q-32 14 -50 25.5 t-28.5 24t-15.5 28t-10 36.5q-4 17 14.5 53t53.5 85.5t84 109t106 123t119 128.5t123 125.5t118.5 113t105.5 91.5t83.5 61.5t52.5 22.5q14 0 31 -1t32.5 -6t28 -17t17.5 -33l4 -19l-143 -191q25 14 46 22t41.5 11.5t42.5 4t51 0.5q36 0 60 -7t39.5 -21.5t25.5 -36t17 -49.5 q8 -29 7 -45.5t-26 -30.5q-58 5 -121 4t-123.5 -11t-114.5 -31t-93.5 -56.5t-61.5 -87t-19 -122.5q23 21 62.5 35.5t82 23.5t81 13t59.5 4q10 -14 20 -25.5t18 -22t14 -22t9 -25.5l5 -19q-5 -7 -18.5 -17t-29 -21t-29 -21t-18.5 -17q-17 -9 -51.5 -27t-77.5 -40.5 t-90.5 -46.5t-90.5 -46.5t-77.5 -40.5t-50.5 -27q-11 -14 -23 -34.5t-23 -42t-19.5 -41.5t-11.5 -35h19q79 0 149.5 18t138.5 39.5t135 39.5t138 18q36 0 58.5 -2t37.5 -12.5t25.5 -34t21.5 -66.5q-247 -87 -446 -162q-85 -32 -168 -65t-150.5 -62t-113.5 -53t-56 -38 q-13 -21 -35 -63t-51.5 -97t-64.5 -119.5t-73 -131.5t-77.5 -132.5t-77 -122.5t-73 -101.5t-64.5 -69.5h-19h-19zM684 737v19q0 21 22 42t52.5 39t63 31.5t53.5 20.5q-14 -36 -29.5 -61.5t-37 -43t-51.5 -29t-73 -18.5z" />
<glyph unicode="'" d="M69 980q17 57 45.5 113.5t62.5 108.5t71.5 96.5t73 76.5t66 49.5t50.5 14.5q25 -14 34 -25t9 -33v-19q-16 -12 -54 -48.5t-85 -83.5t-97 -96.5t-90.5 -88t-65 -58.5t-20.5 -7z" />
<glyph unicode="(" horiz-adv-x="682" d="M97 472q0 89 15 192.5t44.5 207t74 199.5t104 169.5t134 117.5t163.5 44q-28 -67 -71 -130.5t-91 -128.5t-96 -133t-85.5 -145t-60 -164.5t-19.5 -190.5t23.5 -182.5t51.5 -141t68.5 -108.5t75 -86.5t70.5 -73.5t55 -69.5t28.5 -76t-8.5 -91.5q-10 -34 -36 -26.5 t-61.5 45t-77 98.5t-83.5 134t-81.5 152t-70 152.5t-48.5 135t-18 100.5z" />
<glyph unicode=")" horiz-adv-x="682" d="M74 -240q70 70 136 156t116.5 182t81 199t30.5 208v71q-4 4 -20.5 34.5t-40 78t-52 108t-57.5 124.5t-56.5 128t-49 118t-34.5 94.5t-13 57.5q0 18 4.5 34.5t13.5 30t22 21.5t31 8q40 0 77.5 -28.5t72.5 -76t67 -111t59 -133t48.5 -141.5t37 -137.5t23.5 -120t8 -89.5 q0 -48 -4.5 -115.5t-21.5 -146t-49.5 -163t-88.5 -167t-139.5 -158t-201.5 -136.5v70z" />
<glyph unicode="*" horiz-adv-x="1139" d="M52 880q0 13 0.5 22.5t3.5 17.5t10 15t20 13q77 -9 144 -9q28 0 57.5 2t55.5 7t47.5 13t34.5 21l-203 204v34q0 26 12.5 47t38.5 21h16l238 -204v306l34 34l85 -68v-340q59 13 127.5 45t140 77t144 99t141.5 110t131.5 111t113.5 102v-17q0 -43 -34.5 -88.5t-87.5 -92 t-117.5 -91.5t-125 -85.5t-109 -75.5t-69.5 -60q25 6 58.5 4t67 -8.5t63.5 -15t49 -14.5q-25 -21 -58 -30t-69 -13t-72.5 -6t-70 -10t-60.5 -25.5t-44 -51.5q21 -26 49.5 -47.5t59 -43t59.5 -43.5t52.5 -47.5t37.5 -56t14 -68.5h-68l-272 170h-17q-26 0 -38.5 -21t-12.5 -47 q0 -32 5.5 -64t11.5 -63.5t11.5 -63.5t5.5 -64v-17q0 -6 -5.5 -15t-11.5 -19t-11.5 -19t-5.5 -15q-30 13 -50 41t-33 65t-19 79t-7.5 83t1 77.5t6.5 62.5q-45 -26 -94 -62t-95 -74t-85.5 -74.5t-64.5 -61.5h-68q0 47 13 82t34.5 63t49.5 50.5t58.5 45t60 46t55.5 53.5h-305 q-13 0 -20 8t-10 19.5t-3.5 23t-0.5 17.5z" />
<glyph unicode="+" horiz-adv-x="1505" d="M71 425q0 35 26 55.5t68 31t96.5 13.5t110.5 3t110.5 -0.5t96.5 3t68 13.5t26 31v471q42 0 69.5 -21.5t44.5 -56t25 -78t10.5 -87.5t2 -84.5t-0.5 -68.5q78 0 155.5 6t154.5 13t154.5 13t155.5 6q0 -21 -15.5 -38.5t-36.5 -32t-43 -25t-36 -17.5l-452 -113l-56 -75v-677 q0 -21 -12.5 -38.5t-30 -30t-37 -19t-33.5 -6.5v809q-35 -7 -98 -20t-137 -25.5t-151 -21.5t-141 -9q-42 0 -68 16.5t-26 59.5z" />
<glyph unicode="," d="M-25 -203q0 29 24.5 71.5t63 90.5t86 98t93.5 94t85 78t61 51q25 -14 34 -25t9 -33v-19q-16 -12 -50 -49.5t-76.5 -87t-89 -103.5t-88 -99.5t-74 -75t-45.5 -29.5q-17 0 -25 12t-8 26z" />
<glyph unicode="-" horiz-adv-x="953" d="M86 683q0 6 8 12.5t18 11.5q11 6 26 11q75 -3 161.5 4.5t174 18.5t171.5 20.5t156 9.5q53 0 73.5 -23t14.5 -83q-3 -20 -8 -30.5t-12.5 -15.5t-17.5 -6t-23 -1q-23 0 -45 5.5t-44 12.5t-45.5 12.5t-49.5 5.5q-59 0 -118.5 -8.5t-119.5 -18t-118.5 -18t-113.5 -8.5 q-46 0 -67 17.5t-21 70.5z" />
<glyph unicode="." d="M122.5 154.5q3.5 31.5 15 58t28 44.5t35.5 18q15 0 42 -5.5t53 -17t45.5 -29t19.5 -42.5q0 -71 -38 -109t-107 -38q-38 0 -59.5 18t-29.5 44.5t-4.5 58z" />
<glyph unicode="/" horiz-adv-x="868" d="M-114 -100q37 78 69 142q13 27 26 53.5t24.5 48.5t20 37t11.5 19l831 1230q7 20 7 21t-5 -11t-12.5 -33t-14.5 -45.5t-12.5 -49t-5.5 -42.5q0 -22 -3.5 -38t-12 -29t-22.5 -25t-34 -27q-103 -135 -177.5 -257t-135.5 -234t-115 -214t-116 -196t-139 -181t-184 -169z" />
<glyph unicode="0" horiz-adv-x="1256" d="M64.5 307.5q10.5 76.5 45 145.5t87.5 135.5t114 138.5q-21 -6 -48 -6t-53 7t-46 23t-27 42q32 27 92.5 64.5t135.5 78.5t157.5 82.5t158 76.5t136.5 60t93 34q27 7 60 6t67 -10.5t65.5 -25.5t56 -38.5t39 -51t13.5 -61.5q-3 -113 -34 -223.5t-85.5 -213t-130.5 -194 t-170 -166.5t-204 -132t-233 -90q-41 -11 -85 -4t-83 28t-68 54t-39 72q-25 92 -14.5 168.5zM212 321.5q-10 -58.5 3 -106.5q9 -33 23 -45.5t32 -13t41 7t50 15.5q41 11 104 40t132 70t137 91t119 103.5t78 107t14 101.5q-8 31 -29 53.5t-50 37.5t-63.5 23t-70 10.5t-69 -1 t-60.5 -10.5q-50 -13 -102 -48.5t-99 -85.5t-87.5 -109.5t-66.5 -120.5t-36 -119.5zM561 907.5q2 -6.5 6.5 -11.5t11.5 -3t9 8.5t0 13t-6.5 11.5t-11.5 3t-9 -8.5t0 -13zM813 694.5q-2 6.5 0 12.5t9 8t11.5 -2t6.5 -10.5t0 -13t-9 -8.5t-11.5 2.5t-6.5 11zM856 1024 q17 -9 40.5 -19t48 -19.5t47 -16.5t37.5 -10l-4 17q-6 20 -19.5 33.5t-32 21t-39.5 8.5t-41 -4z" />
<glyph unicode="1" horiz-adv-x="801" d="M140 6q7 70 27 147.5t49 158t62 157.5t66.5 147t62 126t48.5 94.5t26 52.5q1 9 4.5 28t8.5 43t10.5 50.5t10 50.5t8 43t4.5 28q5 18 14.5 23t26.5 8q25 5 37 -3t17 -33t-3.5 -75.5t-27 -118t-45.5 -148t-58.5 -166.5t-66.5 -174t-70 -169.5t-67.5 -153t-60.5 -125 t-48.5 -85t-30.5 -33.5q-11 57 -4 127z" />
<glyph unicode="2" horiz-adv-x="1256" d="M34 672q0 52 31.5 97t84.5 82.5t122.5 69t145.5 56t153.5 42.5t146.5 30t124.5 18t87.5 6q69 0 111.5 -44.5t42.5 -125.5q0 -23 -1 -48.5t-7 -51.5t-18.5 -51.5t-35.5 -48.5l-355 -324l695 200h77q6 0 21.5 2t32.5 0.5t32.5 -8.5t21.5 -25q-21 -9 -69 -32t-115.5 -55.5 t-150 -72t-172.5 -82t-183.5 -86t-183 -83.5t-170 -74t-145 -58t-109 -36t-60.5 -7q-35 12 -48.5 35t-13.5 58q0 23 17.5 47t44.5 47.5t60 46t63.5 42t55.5 36t37 28.5l58 58t87.5 87t101.5 101.5t101.5 101.5t87.5 87l58 58q23 23 27 46.5t4 46.5q0 29 -8.5 42t-23 17.5 t-34 3t-42.5 -1.5q-42 0 -100.5 -7.5t-122 -23t-128.5 -38.5t-121.5 -54t-99 -69.5t-61.5 -84.5q0 -6 2.5 -16.5t7 -20.5t10 -17.5t11.5 -7.5q0 -6 -7.5 -11.5t-18 -10t-20.5 -7t-16 -2.5q-17 0 -38.5 6t-40.5 17.5t-32 29t-13 40.5z" />
<glyph unicode="3" horiz-adv-x="1100" d="M-111 -219q0 25 37 68t98 97t139.5 115.5t161.5 122t164.5 117.5t147.5 103t111.5 77t56.5 39v29q-52 0 -112 -24t-124 -59.5t-129.5 -76t-127 -73t-117 -52t-100.5 -11.5l-59 59v15q0 44 33 82.5t87 73t123 66.5t141.5 64.5t141.5 66.5t123 72.5t87 82.5t33 97v30 q-63 0 -106.5 -9t-76 -24.5t-57.5 -36.5t-50 -44t-54 -47t-69 -46q-11 0 -36 7t-53 17t-52.5 20t-35.5 15q-23 11 -26.5 22.5t-3.5 22.5q0 25 25.5 49t68 46t98.5 42t116 37.5t120.5 31.5t113 23.5t92.5 15t59 5.5h105q16 -5 23 -13t8 -18t-0.5 -20.5t-1.5 -21.5 q0 -29 -14.5 -61.5t-37 -65t-50.5 -63.5t-54 -57.5t-48 -46.5t-33 -31h237q8 -13 15 -26q5 -11 10 -23.5t5 -23.5v-15v-15q0 -6 -4.5 -13.5t-10.5 -16t-10.5 -16t-4.5 -13.5q-9 -7 -39.5 -34t-77 -69t-107 -95t-129 -112t-142.5 -120t-147.5 -118.5t-144.5 -108t-134 -88.5 t-114.5 -60t-87.5 -22v59z" />
<glyph unicode="4" horiz-adv-x="1371" d="M-21 156q0 21 29 65t79 102.5t118 129t146 145.5t161.5 151.5t166 147.5t160 133t141.5 107.5t112 72t71 26.5q20 0 29.5 -16t9.5 -36v-26q-107 -117 -229 -222t-247.5 -207.5t-250 -207.5t-236.5 -222h39h40q16 3 47.5 7.5t70.5 9t81.5 9.5t80.5 9.5t67.5 9t42.5 7.5 q33 10 54.5 35t37.5 56.5t28.5 66t26 63t31 47t43.5 18.5q23 0 40.5 -14.5t30.5 -38t21.5 -53t14 -58.5t8 -54.5t2.5 -41.5q0 -10 -23 -47t-58.5 -94.5t-77.5 -132t-79.5 -158t-65.5 -172.5t-34 -177q-10 -20 -19.5 -23t-19.5 -3q-5 0 -11.5 0.5t-12.5 3t-10.5 7.5t-4.5 15 q-5 10 -9.5 33.5t-8.5 49t-6 47t-2 26.5q0 58 12 117t27 117.5t27 117t12 117.5q-83 0 -166 -20.5t-164.5 -44.5t-162 -44.5t-158.5 -20.5q-20 0 -30.5 4.5t-15 13t-5.5 20.5t-1 27zM925 382q0 6 8 12.5t18 11.5q11 6 26 11q50 -2 67.5 -2.5t18.5 0t-6.5 2t-7 3t16 2.5 t63.5 1q26 0 56.5 -7t56 -21t41 -35.5t12.5 -51.5q-70 -13 -124.5 -28t-95.5 -25t-69.5 -11.5t-46.5 11t-26 42.5t-8 85z" />
<glyph unicode="5" horiz-adv-x="1100" d="M-164 -172q39 8 108 28t156 49t184.5 66.5t194 81.5t184.5 93.5t155 102t107 108t40 111.5q0 11 -3.5 22.5t-25.5 22.5h-208q-73 0 -143 -18.5t-138 -41t-135 -41t-134 -18.5q-17 0 -31 7.5t-23.5 20.5t-15 28.5t-5.5 32.5q0 19 11.5 60t32 92t47 106t56 102t61 79 t60.5 38q125 25 227 46.5t191 40t170 34.5t164 29.5t174 24.5t199 20t239 16t295 12q-67 -20 -164 -36t-212.5 -30.5t-243.5 -31t-256 -39t-250.5 -52.5t-226.5 -72t-183.5 -98.5t-122.5 -131.5q0 -6 -4.5 -14t-10.5 -16t-10.5 -16t-4.5 -14h30q50 0 98 4.5t95.5 10.5 t95 10.5t97.5 4.5q37 0 78 1.5t80.5 -0.5t75.5 -10t63.5 -26t43.5 -49.5t16 -79.5v-74q-56 -67 -139.5 -146t-184.5 -158.5t-213 -153.5t-223.5 -131t-218 -91.5t-195.5 -34.5q-45 0 -74.5 22t-29.5 67v30zM2827 528q0 6 2.5 10.5t8.5 4.5t8.5 -4.5t2.5 -10.5t-2.5 -10.5 t-8.5 -4.5t-8.5 4.5t-2.5 10.5z" />
<glyph unicode="6" horiz-adv-x="1182" d="M-90 96q0 53 24 96t62.5 80.5t86 70t94.5 63.5t89 63t69 67q16 20 45.5 59t67.5 90t81.5 111t88 122t88 122.5t81.5 113t67 94t46 64.5q6 13 18.5 23.5t27.5 18.5t31 15t29 14q27 -26 31.5 -52.5t4.5 -52.5q0 -62 -33 -117.5t-82 -108t-106.5 -104t-106.5 -105.5 t-82 -112t-33 -124q40 0 77 5.5t75.5 12t79 12t86.5 5.5q40 0 81 -10.5t74 -33.5t54 -59.5t21 -89.5q0 -36 -26 -76t-70.5 -80.5t-103.5 -80t-124.5 -75t-133.5 -66t-130.5 -52.5t-116 -34.5t-90.5 -12.5q-35 0 -61 15.5t-45 39.5t-33 51t-26 51t-23 39.5t-24 15.5 q-33 0 -60.5 -14t-54 -30.5t-54.5 -30t-61 -13.5zM335 219h212l353 212q-7 13 -16.5 20t-21.5 10t-24.5 3.5t-25.5 0.5q-40 0 -87.5 -6t-96 -18.5t-95.5 -32.5t-86.5 -47t-69 -62.5t-42.5 -79.5z" />
<glyph unicode="7" horiz-adv-x="1008" d="M-354 -557q0 38 16.5 67.5t39 56t45 53.5t35.5 61l634 792q25 21 50.5 49.5t48.5 59t44 61t38 56.5q-14 8 -55.5 22.5t-95 33t-110.5 42t-102.5 51t-72 58t-17.5 64.5q8 26 25 36t43 10q30 0 58 -16t58 -34t62.5 -31.5t70.5 -9.5q54 6 109 26.5t111 48t111.5 58.5 t109 56.5t105.5 42.5t100 17q13 0 20 -9t10 -22t3.5 -26t0.5 -22q0 -28 -28 -68t-74.5 -89t-107 -104t-126 -112.5t-131 -114.5t-121.5 -110t-98.5 -100t-61.5 -83l-724 -882l-23 -23v34zM552 835q8 -17 23.5 -26.5t33.5 -14t36 -5t31 -0.5q17 0 21.5 3t12.5 20q4 4 14 17 t20.5 28t20 28t13.5 18h-11h-11q-13 -5 -41.5 -14.5t-60.5 -20t-60.5 -20t-41.5 -13.5z" />
<glyph unicode="8" horiz-adv-x="1325" d="M54 99q-8 51 6.5 97.5t43.5 90t67 84t77.5 79.5t75.5 77t60 75q-39 2 -71.5 11t-58 27t-42 45.5t-22.5 66.5q-8 51 13 101.5t62.5 99t99 93.5t122.5 84.5t133.5 73t131.5 58.5t116 40.5t88 19.5q44 5 88.5 -5t82 -33t63.5 -58t34 -80q7 -44 -8.5 -97.5t-46 -102.5 t-74 -86t-92.5 -49q36 -22 70 -45t62 -50t48 -61t28 -79q8 -47 -17 -97t-72.5 -100t-113.5 -98t-140.5 -91t-152.5 -80.5t-150 -65.5t-133 -46t-102 -23q-6 0 -28 -2.5t-47 -5.5t-47 -5.5t-28 -3.5q-35 15 -57.5 27t-36 26.5t-21 35t-11.5 52.5zM221 118q41 5 98 17.5 t122.5 32.5t134.5 46t134 57t122 66t98 73t62.5 78.5t14.5 81.5q-4 25 -31.5 41.5t-63 25.5t-70.5 11t-54 0q-42 -5 -102.5 -32t-126 -69t-129.5 -95.5t-113 -110.5t-76.5 -115t-19.5 -108zM353 805l50 5q55 7 117 20t125.5 34t125 49.5t115.5 65t96.5 82t68.5 100.5 q-2 6 -11 11.5t-21 8.5t-24 4.5t-18 0.5q-51 -5 -110.5 -23t-121 -45t-122 -62.5t-113 -76t-93.5 -85t-64 -89.5z" />
<glyph unicode="9" horiz-adv-x="1182" d="M35 705.5q1 8.5 7.5 16t21.5 12.5q27 76 78.5 134.5t117.5 103t142 75.5t151.5 52.5t145 34t124 18.5t87.5 8t36 2q13 0 38 -0.5t54.5 -2.5t60.5 -7t56.5 -14t41.5 -23t16 -34q0 -24 -12.5 -76.5t-35 -124t-53.5 -158.5t-67.5 -180.5t-77.5 -188.5t-83.5 -183.5 t-85.5 -166t-83.5 -135t-77 -90.5t-66.5 -33h-26q0 17 9 47.5t22 66.5t27.5 74.5t26.5 71.5t18.5 56.5t3.5 30.5q30 47 69.5 111t81 138t81.5 154t71.5 159.5t51 154.5t19.5 139q-64 -27 -136 -70t-149.5 -89.5t-159 -91t-164.5 -74t-165.5 -38.5t-161.5 15 q-19 6 -29.5 11.5t-16 13t-6.5 17.5t-1 25q0 10 -1.5 20t-0.5 18.5zM214 710q31 21 75.5 34.5t97.5 27t114 31.5t126 46.5t132 71t133 107.5h-40q-41 7 -91.5 2.5t-105.5 -18t-111 -34.5t-107 -46.5t-95 -54t-75 -58t-45.5 -57.5t-7.5 -52zM935 1054.5q0 -5.5 3 -9.5t8 -4 t7.5 4t2.5 9.5t-2.5 9.5t-7.5 4t-8 -4t-3 -9.5z" />
<glyph unicode=":" d="M116 59q0 25 5 62.5t14.5 79t24.5 81.5t35 69t45 42t56 1q17 -22 33 -40q14 -16 27.5 -32.5t21.5 -25.5v-24q0 -74 -24 -116t-61.5 -64t-84 -27.5t-92.5 -5.5zM166 802q0 60 17.5 102t49 68t74 38t92.5 12q0 -25 -5.5 -58.5t-16 -69t-26.5 -70t-36 -61.5t-45 -44t-54 -17 q-19 0 -29 10t-14.5 25t-5.5 32.5t-1 32.5z" />
<glyph unicode=";" d="M131 198q5 38 32.5 67t61.5 47t68 24t53 -3q40 -19 59.5 -50.5t22.5 -69t-7.5 -78.5t-31 -80t-47.5 -72.5t-57.5 -56.5t-61 -32t-56.5 1q3 19 13.5 43t23.5 48t25.5 44.5t19.5 33.5q-21 0 -44 9t-41 26.5t-28 42t-5 56.5zM193 870q6 38 22.5 66.5t39 47.5t49 28.5 t53.5 9.5q37 0 61 -15t37.5 -42t16 -64t-3.5 -81q-5 -32 -28.5 -51.5t-53 -30.5t-58.5 -15t-45 -4q-21 0 -39 14t-30.5 36t-18 49t-2.5 52z" />
<glyph unicode="&#x3c;" horiz-adv-x="1229" d="M145 341v94l656 611h118q0 -22 -22 -57t-59 -77.5t-84 -89.5t-96.5 -93t-97.5 -89t-86.5 -76.5t-64.5 -55.5t-30 -26q18 -53 56 -92.5t90.5 -71.5t117.5 -59.5t136.5 -56.5t146.5 -62.5t149 -76.5q23 -14 17 -24t-31.5 -14.5t-65 -3.5t-83.5 10q-88 35 -186 78t-197.5 86 t-197.5 81.5t-186 64.5z" />
<glyph unicode="=" horiz-adv-x="1421" d="M27 166q0 7 0.5 31.5t4 51.5t11.5 48t22 21l1139 267l38 -38q-43 -36 -108 -71.5t-144 -69t-166.5 -64t-174.5 -57.5t-169.5 -49t-150.5 -37.5t-117.5 -24t-70.5 -8.5h-114zM179 585v19q0 21 15.5 42t39 39t50 32t47.5 21q106 28 219 56t229 53t232.5 46t230.5 35h18h19 q7 0 17 -6t21 -13t21 -13t17 -6q0 -21 -10 -41.5t-25.5 -36.5t-36 -26t-41.5 -10q-119 -14 -207.5 -26t-160 -25t-131.5 -28t-121.5 -35.5t-131 -48.5t-159.5 -66l-76 -38z" />
<glyph unicode="&#x3e;" horiz-adv-x="1229" d="M265 984q0 58 59 58h20q81 -73 165 -130.5t169 -110.5t169 -107t165 -120q7 -7 14.5 -17.5t12.5 -21.5t8.5 -21.5t3.5 -17.5q-5 -15 -20 -30.5t-35 -31t-42.5 -30.5t-43 -27.5t-35.5 -22t-20 -14.5l-42.5 -42.5t-62 -61.5t-72.5 -71t-72.5 -71.5l-62 -62l-42.5 -42.5 h-137q0 63 23.5 110.5t61.5 86t84.5 72t92 68.5t85.5 75.5t65 94.5q-30 29 -79 64.5t-106 75t-115 82.5t-105 87.5t-76.5 89.5t-29.5 89z" />
<glyph unicode="?" horiz-adv-x="1024" d="M205.5 1306.5q0.5 29.5 3.5 53t6 35.5q25 85 70 135.5t108 76.5t143 33.5t175 7.5q120 0 166 -65.5t9 -186.5q-13 -46 -42 -100t-66 -112t-78 -118.5t-78.5 -119t-67 -112.5t-42.5 -100q-5 -17 -0.5 -25.5t13.5 -14t19.5 -9t18.5 -10.5t11 -20t-3 -35q-5 -17 -15.5 -37.5 t-26.5 -40.5t-38 -36.5t-50 -25.5q-47 -8 -76.5 7.5t-45 44t-17 64.5t8.5 71q14 51 48 108.5t77 119t91 124.5t91.5 124.5t77.5 120t49 109.5q10 34 15.5 60t2 43.5t-20 26t-50.5 8.5t-71 -12t-72.5 -31.5t-68 -44t-56.5 -50.5q-12 -9 -13 -20.5t2 -22.5q4 -12 12 -25 q46 -4 64 -18.5t19 -31.5t-9 -34t-21 -26q-24 -23 -40.5 -36.5t-29.5 -20.5t-24.5 -8.5t-25.5 -1t-33.5 2t-47.5 1.5q-23 0 -37.5 16.5t-22.5 41.5t-10 56t-1.5 60.5zM287 88q1 23 8 47t20 47t30 41.5t38.5 29.5t45.5 11q36 0 61 -16.5t39 -40.5t17 -52.5t-4 -52.5 t-28.5 -41.5t-49 -29t-57.5 -17.5t-54 -6t-38.5 10.5t-21.5 28.5t-6 41z" />
<glyph unicode="@" horiz-adv-x="1710" d="M51 471q16 131 64 251.5t123 225t173 190t214 146.5t246.5 94.5t270.5 33.5q92 0 174 -23t147.5 -70.5t111.5 -119.5t67 -170q14 -65 -0.5 -132t-48.5 -129t-85 -116t-110 -94.5t-123 -63.5t-125 -23q-33 0 -62.5 1.5t-56 11.5t-50.5 31t-45 60q-41 -26 -81.5 -51 t-84 -44.5t-90.5 -31.5t-99 -12q-33 0 -65.5 7t-60 21.5t-47.5 37.5t-27 56l-3 17q68 111 163.5 197t215 161t261 147.5t301.5 157.5q-19 26 -49 40.5t-64.5 21t-68.5 7.5t-60 1q-109 0 -225.5 -34.5t-225.5 -96t-203 -146.5t-158.5 -185.5t-91.5 -213.5t-2 -231 q9 -46 40.5 -85t74 -70t90.5 -53.5t90 -35.5h296q18 0 55 4t85 9t101.5 11t103 9.5t90.5 4.5t64 -3l688 209l226 133q-28 -54 -97 -105t-164.5 -97.5t-211.5 -88t-237.5 -76.5t-242.5 -62.5t-227.5 -47t-191 -30t-133.5 -10.5h-209q-83 20 -150 58.5t-118 92.5t-85 122 t-50 146zM566 593q85 0 157 24.5t128 69t94.5 105t55.5 132.5h-35q-17 0 -55.5 -15t-85.5 -40t-96 -58.5t-87.5 -70t-60.5 -74.5t-15 -73zM1123 680h35q78 0 125 24t76.5 63.5t48 89.5t40.5 102h-18q-22 0 -50.5 -16t-59.5 -41t-62 -56.5t-58 -62.5t-47.5 -58.5t-29.5 -44.5 z" />
<glyph unicode="A" horiz-adv-x="1451" d="M-222 185q3 15 6 27q2 11 4.5 21t2.5 15q6 22 29.5 36.5t56.5 24t71.5 16.5t75.5 13.5t68.5 14.5t50.5 21q45 40 112.5 113.5t148.5 166t169.5 197.5t176 208.5t168 198.5t145 167.5t107.5 116t55 43.5q29 0 39 -17.5t10 -45.5v-38q-6 -22 -21.5 -70.5t-35.5 -110 t-42.5 -130t-43 -131.5t-36 -113.5t-21.5 -75.5q-5 -24 -9.5 -39.5t-8.5 -28t-6 -26t-2 -32.5v-26l856 253q175 30 341 65.5t326 66t316 50.5t312 20h63l-25 -25q-52 -52 -149.5 -84t-225.5 -52.5t-279.5 -33t-312.5 -26t-323.5 -33t-312.5 -52t-280.5 -83.5t-227 -128.5 t-150.5 -185.5q-54 -106 -54 -251v-5q10 0 23 -0.5t25 -4t20.5 -11t8.5 -21.5q0 -19 -6.5 -39.5t-17.5 -39.5t-25 -35t-28 -25q-38 14 -62 23.5t-37.5 24t-19 38t-5.5 65.5q0 47 11.5 92.5t26 89t26 86.5t11.5 85v26q-125 -47 -217 -80.5t-161 -59.5t-119.5 -48t-92.5 -47.5 t-80 -57.5t-82 -78t-99 -109t-130 -151q-10 -10 -16 -17t-13 -11.5t-17.5 -7t-28.5 -2.5v88l150 215h-189zM369 449l529 177q19 7 41 49t44.5 105t43 138t37 147t26 133t9.5 96v13q-21 -19 -63.5 -58.5t-98 -93t-119 -116.5t-127 -129t-121.5 -132t-103 -123.5t-71.5 -104.5 t-26.5 -75v-26zM3312 1156v25q39 4 77 8q32 4 66.5 8t58.5 9h12h13l-25 -25zM3589 1181q9 19 20 22t31 3h24zM3705 1206q0 5 2.5 9t7.5 4q4 0 6.5 -4t2.5 -9t-2.5 -9t-6.5 -4q-5 0 -7.5 4t-2.5 9zM3866 1232q0 4 4 6.5t8.5 2.5t8.5 -2.5t4 -6.5q0 -5 -4 -7.5t-8.5 -2.5 t-8.5 2.5t-4 7.5zM3941 1232q-1 1 -1 2q0 2 13 4q17 2 38 2.5t38 -2t12 -6.5q-5 -5 -19 -7.5t-30.5 -2.5t-31 2.5t-19.5 7.5zM4117 1232q0 4 4 6.5t8.5 2.5t8.5 -2.5t4 -6.5q0 -5 -4 -7.5t-8.5 -2.5t-8.5 2.5t-4 7.5z" />
<glyph unicode="B" horiz-adv-x="1503" d="M-1324 -651q72 30 150.5 71.5t155.5 87.5t148.5 92.5t129.5 87.5l1137 584q40 17 69 52t48 78t27.5 89.5t8.5 87.5v30q-81 -17 -159 -45.5t-156 -55.5t-156 -47t-159 -20q0 40 24.5 77t66.5 70.5t97 63.5t115.5 57.5t122.5 52t118.5 46t102.5 41t75 36.5v16q0 17 -1 36 t-6.5 35t-18 26.5t-35.5 10.5q-29 0 -55 -4.5t-52 -10.5t-52.5 -10.5t-55.5 -4.5q-35 0 -68 3.5t-58.5 15t-41.5 32.5t-16 56q0 29 4 43t17 22.5t37 16.5t64 25q15 8 49 21.5t76.5 29t90 32.5t90 31.5t76 25t48.5 14.5q0 35 6 72t17.5 73t29 69.5t40.5 62.5q23 -18 38 -45 t25 -57.5t16.5 -60.5t12.5 -53h399q26 -9 46 -19q17 -8 32 -19t15 -23q0 -60 -26.5 -107t-70 -85t-98.5 -68t-113 -56.5t-113 -52t-98.5 -53t-70 -59.5t-26.5 -72q93 0 182.5 9.5t177.5 21.5t174.5 21.5t172.5 9.5h123l32 -62l-123 -122l-953 -462q0 -4 -6 -20.5t-16.5 -38 t-25 -45.5t-32 -43t-36.5 -30t-38 -7q-50 11 -69 20.5t-20 16t8.5 11.5t16 8t3 4.5t-30.5 1.5h-31q-279 -137 -493.5 -241.5t-375.5 -182.5t-274.5 -131.5t-192 -88.5t-127 -54t-79 -28t-49 -11t-37.5 -2zM335 1071h62q27 0 60 0.5t67 5t66.5 13.5t57.5 26t40 43.5t15 64.5 q-3 0 -27.5 -5t-60.5 -14.5t-78 -22.5t-82 -30t-72.5 -37.5t-47.5 -43.5zM642 394h31q23 0 72.5 16.5t113 44t135 62.5t139 73t125 75t92.5 68h-108q-88 0 -160.5 -2.5t-131.5 -13.5t-106 -32.5t-84 -59t-66 -94t-52 -137.5zM827 979q31 11 73.5 29t88.5 41t91.5 51 t81.5 59.5t58 67t22 73.5h-41t-57.5 -1.5t-66.5 -4t-69 -7.5t-65 -12.5t-54 -18.5q-4 -8 -9 -27.5t-10.5 -44t-11.5 -52.5t-11.5 -52.5t-10.5 -43.5t-9 -27v-16v-14z" />
<glyph unicode="C" horiz-adv-x="1786" d="M27 203q0 43 39 114t107.5 162t161.5 196t201.5 215.5t228 221.5t240 213t237.5 190t221 153t190.5 102.5t146.5 37.5q16 0 33 -1.5t29 -9.5t15.5 -25t-6.5 -49q-16 -21 -39.5 -50.5t-53 -56t-63.5 -45t-71 -18.5v14v14l85 85h-56q-96 0 -198 -44t-206 -119t-208.5 -174 t-205 -209.5t-195 -226t-179 -222.5t-156.5 -199t-128 -156q-5 -5 -14.5 -19.5t-18.5 -32t-16 -34.5t-7 -27q0 -5 7 -14.5t16 -19t18.5 -16.5t14.5 -7h227q121 0 223 13t202.5 38.5t207 63t236 85t291 105.5t370.5 125t474.5 142.5t604.5 158.5l136 -9q-335 -86 -682 -189.5 t-693 -216t-684.5 -229.5t-657.5 -229h-28q-5 0 -30.5 -4.5t-54.5 -10t-54.5 -10t-30.5 -4.5q-42 6 -83 24t-73 47.5t-51.5 69t-19.5 87.5zM3249 905.5q0 5.5 3 10t8 4.5t7.5 -4.5t2.5 -10t-2.5 -10t-7.5 -4.5t-8 4.5t-3 10z" />
<glyph unicode="D" horiz-adv-x="1789" d="M-923 -427q5 24 19 45.5t30 44.5q194 71 351.5 126.5t285 106t229 102t184.5 115.5t151.5 147t129.5 196t118.5 262t118.5 346q-46 14 -114 16q-10 0 -21 1q-59 1 -121 -7q-74 -8 -144.5 -25t-124.5 -39l25 -38l-76 -53q-24 -17 -46.5 -14.5t-42 17.5t-35.5 38.5 t-26.5 49t-15 49.5t-1.5 40q1 6 2.5 14t6 15t12 11.5t19.5 2.5l760 43l161 517q55 -18 81 -51q25 -33 31 -76q2 -16 3 -32q-1 -29 -7 -59q-10 -48 -25.5 -97t-34 -94t-29.5 -80q97 -10 172.5 -15.5t138.5 -10t119.5 -9t116.5 -11t129.5 -17t158.5 -26.5q24 -4 58 -12 t70.5 -20.5t72 -30t61.5 -40.5t40 -53q9 -20 9 -44q0 -11 -2 -22q-10 -54 -37.5 -96.5t-66.5 -76.5t-85.5 -60.5t-94.5 -48.5q-161 -59 -318.5 -133.5t-315.5 -148t-319 -137t-328 -101.5q-8 -24 -20 -67t-30 -85.5t-43 -75t-57 -34.5q-13 23 -20.5 50.5t-11.5 56t-5 57 t1 54.5q-64 -9 -137.5 -37.5t-152.5 -68t-162 -86t-167 -92.5t-168 -87.5t-164 -70.5q-81 -28 -155 -40q-38 -6 -74 -7q-34 0 -67 6zM550 225q148 54 263.5 96.5t207 77t165 64t138 57t125 55.5t126.5 61.5t142.5 73.5t173.5 92q7 5 19.5 14.5t25.5 21.5t23.5 24.5 t13.5 24.5q-3 34 -25.5 58.5t-56.5 41.5t-75 28.5t-79 18.5t-70 10.5t-48 6.5q-85 15 -179 29q-92 14 -188 18q-22 1 -45 0q-73 0 -146 -8q-95 -12 -184 -48q-16 -73 -43 -144.5t-58 -142.5t-61 -142t-52 -141q-2 -8 -10.5 -27.5t-20 -44t-25 -52t-25.5 -52.5t-21 -44 t-11 -27z" />
<glyph unicode="E" horiz-adv-x="1559" d="M-27 664q2 26 11 40t24.5 23t37 16.5t49.5 20.5q17 8 54 25t78 35t77.5 32.5t52.5 18.5q-2 31 5 62t17 61.5t20 60.5t13 61q0 10 2.5 27t3.5 28q-65 -14 -101 -58t-43 -107q-21 2 -37.5 13.5t-27.5 28t-16 36.5t-2 41q0 3 17 17.5t44.5 36.5t62.5 49.5t72 55.5 q86 66 197 148q5 0 13.5 -7.5t17 -17t14 -19.5t4.5 -15q97 28 204.5 62.5t220.5 69t230 65.5t233 52q115 22 229 30q49 4 98 3q62 0 123 -6l-5 -54l-592 -77q-74 -34 -148 -57t-145.5 -41t-138 -35t-125.5 -39.5t-109.5 -54t-89.5 -79.5t-64.5 -115t-35.5 -160l14 -2 q18 5 72 23t130 41.5t166.5 48t181 44t174.5 29.5q49 6 90 6q29 0 55 -3q-3 -23 -39 -47t-95 -47.5t-134.5 -46.5t-157 -44.5t-162.5 -41.5t-151 -37t-122.5 -31.5t-77.5 -24.5q-44 -69 -72 -144t-45.5 -154.5t-27.5 -161.5t-19 -165q13 -2 37 2t53.5 11.5t60.5 16t59.5 17 t51 15t33.5 8.5q174 56 352 124.5t359 143t365 151.5t370.5 150.5t375 140t379.5 119.5q32 9 75 21t91.5 25.5t100 27t99.5 25.5q114 29 237 60q-122 -30 -268.5 -77t-307 -106t-329.5 -125.5t-334 -135t-321.5 -136t-292.5 -127.5t-246 -109.5t-183 -81.5 q-100 -57 -212 -105.5t-229 -90t-235.5 -78.5t-232.5 -71l-12 1q-20 2 -33.5 13t-33.5 22q1 5 2.5 14t2 19.5t1.5 20t1 15.5q7 67 27.5 133t43.5 131.5t43 131.5t27 134q0 5 2 21t4 34t4 34t2 21q-11 -4 -35.5 -17.5t-52 -29t-52.5 -29t-36 -18.5q-28 -12 -37.5 -22 t-14.5 -16t-11.5 -8t-27.5 0q-30 5 -40 17q-8 9 -8 28q0 7 1 16z" />
<glyph unicode="F" horiz-adv-x="1061" d="M-116 518q1 11 3 24t6 25t11 21.5t18 12.5l430 160q7 3 15 27t15 59.5t13 78t11.5 83t9 74.5t5.5 53q1 6 3 22.5t4 36t4 36t3 22.5q-15 -2 -45 -8.5t-67 -16.5t-76.5 -23t-72 -29.5t-55 -36t-24.5 -41.5q-3 -21 16 -42t43.5 -38t47 -27.5t28.5 -10.5q-14 -20 -27 -22 t-35 0q-14 2 -36 12.5t-46.5 27t-48.5 37t-42.5 42t-29.5 43t-9 39.5q3 30 26.5 49t60 32.5t82.5 22.5t93.5 18t93.5 20.5t83 29t61.5 43.5t28.5 65q5 43 5 84.5t-1 83t-1 83.5t5 86q1 10 3 38.5t8 58.5q6 31 18 53q11 21 30 20h4q16 -3 32 -26.5t28 -53.5t18 -60t4 -46 q-1 -11 -5 -36t-9 -56.5t-11 -67t-11 -67t-9 -56.5t-5 -36q55 -6 116 -6q56 0 116 5q126 11 265 36t288 60t300.5 72t302 72t294 59.5t275.5 34.5q57 4 112 4q70 0 135 -8q-1 -9 -56 -24t-150 -36t-222.5 -46.5t-273 -53.5t-301 -56.5t-308 -57t-293 -55t-255.5 -49.5 t-197.5 -41t-116.5 -30q-17 -4 -30.5 -24.5t-23 -44.5t-15 -45t-5.5 -26q-2 -18 -11 -47.5t-20.5 -63.5t-21.5 -69t-13.5 -63.5t2.5 -48t28 -21.5q144 15 253 30.5t198.5 32t166.5 34t156 37t168 41t202.5 46.5t259 53t337.5 60l15 -1q-150 -52 -309.5 -97t-315 -84 t-302 -71t-269 -58.5t-216 -46.5t-144.5 -35l-247 -119q-29 -14 -51 -58.5t-39.5 -108t-31 -139.5t-25 -153.5t-22 -149.5t-21.5 -127.5t-24 -88.5q-12 -31 -27 -31h-2l-73 8q22 197 64 396t96 382l-28 3q-11 1 -22 1q-30 0 -54 -8q-32 -12 -57.5 -32.5t-47 -44.5t-43 -44.5 t-46.5 -33.5t-58 -9q-17 2 -30 4.5t-22 9.5q-8 6 -12 18q-2 8 -3 20q0 6 1 14z" />
<glyph unicode="G" horiz-adv-x="1861" d="M86 170q-3 16 -3 33q0 48 21 101q29 72 84.5 148.5t130.5 154t157.5 151t166 140t155.5 120t125 91t76 53.5q7 14 13.5 20t14 9.5t16.5 7t21 12.5q14 9 40.5 28t59.5 43t68.5 51t67.5 51t56 43.5t35 28.5h49q57 46 120.5 89.5t133.5 78t146 55.5t159 21q28 0 53.5 -7 t46 -22t35 -38t20.5 -55q3 -15 3 -40q0 -5 -1 -9q0 -31 -4.5 -66.5t-12.5 -71.5t-19.5 -65.5t-27 -48t-33.5 -18.5h-23q5 23 15 61.5t19 80t15 79.5t2 61t-15.5 39.5t-27 27t-33.5 15t-36 4.5q-71 0 -153.5 -25.5t-170 -68.5t-177 -98.5t-175.5 -116.5t-165 -122.5 t-145 -116t-116.5 -97t-78.5 -65.5q-42 -64 -100.5 -121.5t-123 -113.5t-130.5 -112.5t-122.5 -119.5t-98 -134.5t-57.5 -157.5q2 -14 16 -19.5t31.5 -6.5t32.5 0.5t20 1.5q98 0 206.5 21t217 59t213 90.5t195 115t162 133t114.5 144.5h12q23 0 40.5 -8.5t30 -22t20 -31.5 t10.5 -36q7 -40 7 -87q0 -41 -6 -86q-11 -98 -38 -206t-64.5 -221t-77 -220.5t-76 -205t-60.5 -173.5q1 -5 -4.5 -9.5t-13 -8t-15.5 -5.5t-12 -2q-9 0 -18 7.5t-11 17.5q-2 16 -5 31l-4 24t-2 17q-7 46 -7 90t7 86q15 85 45 165.5t67.5 159t68 158t45.5 161.5q7 42 7 85 t-7 87l-1 12q-79 -39 -157.5 -89t-158.5 -101.5t-162 -101t-168 -88t-177.5 -62t-189.5 -23.5q-41 0 -76 7.5t-62 26t-45.5 49t-25.5 76.5zM1921 1071q0 11 8 11t8 -11t-8 -11t-8 11z" />
<glyph unicode="H" horiz-adv-x="1377" d="M17 631v11v12q0 4 5 11.5t11.5 15t13.5 13t11 5.5q91 17 153 63.5t104 111t66.5 140.5t40.5 153.5t27 149.5t24.5 127.5t33.5 89t55 33.5q15 0 22 -13t9 -30t1 -34t-1 -26q0 -73 -17 -154t-42 -161.5t-54 -155t-52 -134.5v-46q164 0 281 16.5t197.5 46.5t129.5 72 t77 92.5t39.5 108t16.5 118.5t9.5 124t17 125t39.5 121t78 112q15 -4 30 -14t26.5 -24t18.5 -30.5t7 -33.5q0 -9 -7 -45.5t-19 -90.5t-28 -120.5t-33 -135t-35 -133.5t-34 -117t-28.5 -85.5t-20.5 -37.5l-297 -1140v22q0 34 2.5 91t7 127.5t10.5 150t12.5 159t13.5 154 t13.5 135.5t12 103.5t9.5 57.5q-50 -19 -73.5 -25.5t-32 -6.5t-7.5 3.5t-0.5 5t-10.5 -2t-37 -17.5q-100 -56 -176 -84.5t-132 -45t-95.5 -27t-67.5 -30.5t-47 -56t-33.5 -102.5t-28.5 -170.5t-31 -260q-8 -17 -16.5 -19.5t-24.5 -2.5q-19 0 -31 20t-19 46.5t-9.5 53 t-2.5 39.5q0 64 14.5 128.5t32 130t32 132t14.5 134.5h-154q-7 9 -11 18q-4 8 -7 15.5t-3 12.5zM823 -475.5q0 4.5 2 8t6 3.5t6 -3.5t2 -8t-2 -8t-6 -3.5t-6 3.5t-2 8zM844 -395.5q0 10.5 2 18.5t6 4q8 -8 8 -22.5t-8 -22.5q-1 -2 -3 -2t-3 6q-2 8 -2 18.5zM865 -304.5 q0 4.5 2 8t6 3.5t5.5 -3.5t1.5 -8t-1.5 -8t-5.5 -3.5t-6 3.5t-2 8z" />
<glyph unicode="I" horiz-adv-x="597" d="M34 -337q-4 28 -4 56q0 33 5 65q9 62 26.5 123.5t41 124.5t45.5 125.5t39.5 124.5t23.5 123l360 1005q12 26 18.5 65t15 84t22 92.5t38.5 90.5l14 2q5 1 9 1q12 -1 19 -5q9 -6 11 -16q1 -5 1 -10q1 -7 -1 -14q-2 -14 -5 -28q-27 -177 -72 -351.5t-100.5 -346t-118 -338 t-123.5 -327.5t-117 -315t-99 -299q-8 -20 -19 -25t-30 -7z" />
<glyph unicode="J" horiz-adv-x="830" d="M-1338 -1405l155 11q27 -3 54 -3q101 0 199 35q125 45 245 134t234.5 215t221.5 276.5t205 319t185.5 341.5t163 344t138 327t110.5 290t80 234q6 36 17.5 81.5t26.5 92.5t34.5 92.5t42.5 81.5h-52l-834 -252h52q-4 -22 -25 -37.5t-51 -26t-66 -17t-71.5 -10t-66.5 -4.5 t-50 -1h-69q-14 7 -24.5 18.5t-10.5 25.5q0 17 20 31.5t51 26t69 19.5t72.5 13t62 6t38.5 -1q18 5 70.5 24t127 46.5t165 61.5t184.5 68.5t184.5 67.5t165 58t127 40.5t70.5 15.5l35 -17h69q39 0 69.5 2t69.5 15l18 -69q-98 -28 -187.5 -128.5t-176 -253t-173 -345 t-177.5 -405t-190.5 -433t-211.5 -428t-240 -391.5t-277.5 -323t-322.5 -222t-375 -88q-4 0 -20.5 3t-38 7.5t-45 9.5t-42 9.5t-29.5 8.5q-7 2 -7 3h1zM-257 1171.5q0 -8.5 6 -8.5q7 0 7 8.5t-7 8.5q-6 0 -6 -8.5zM-216 1189q7 -7 17.5 -7t17.5 7q3 3 -3.5 4.5t-14.5 1.5 t-14 -1q-4 -2 -4 -3t1 -2zM-153 1206q0 -9 7 -9q6 0 6 9t-6 9q-7 0 -7 -9z" />
<glyph unicode="K" horiz-adv-x="1366" d="M-294 -400q0 14 10 30q44 73 82 139.5t73.5 131l71 129t75 134t85.5 146t103 165.5q-14 -9 -16 -8t-0.5 6t1.5 10t-11 4q-31 -3 -42 6t-14 40q0 4 23 26.5t61.5 60t88.5 87t103.5 107t106.5 120.5t98 127t77.5 127.5t45.5 121.5q3 15 -3 29t-22 19q14 13 28.5 39 t30.5 51.5t33 45t36 21.5h6q17 0 27 -11q10 -13 13 -36l1 -10q-27 -76 -64.5 -148t-76 -143.5t-73.5 -143t-59 -147.5q24 6 67 34t97 70t117 92.5t127.5 102t128.5 99.5t119.5 84t100.5 56q36 16 61 15q6 0 12 -1l12 -16q5 -7 8 -13t4 -10l1 -10q0 -8 -2 -16t-16 -17 l-907 -599q-11 -9 -24 -26.5t-25.5 -37t-23.5 -38t-18 -30.5q118 -145 282.5 -263t363.5 -215t426.5 -175t470 -142.5t494 -118.5t500.5 -103l-18 -21q-100 0 -224.5 14.5t-264.5 41t-289.5 62.5t-299.5 79.5t-296 92t-278 99.5t-245 102.5t-198 101.5l-475 337l-10 -1 q-40 -23 -81.5 -70t-83.5 -109.5t-83 -136.5t-81 -150t-77.5 -151t-72.5 -139t-66 -114t-58 -77q-9 -1 -16 -1q-14 0 -24 3q-16 5 -25 15t-9 24zM3001 -400l60 6q42 4 78.5 6t74 2.5t80 0.5t96.5 2l-21 -14l-345 -32zM3422 -381q0 4 2 7.5t6 4.5q4 0 6 -3t2 -7t-1.5 -7.5 t-5.5 -3.5q-4 -1 -6.5 2t-2.5 7zM3445 -399q0 4 1.5 7.5t5.5 3.5q7 0 8 -10t-7 -10q-4 0 -6 2.5t-2 6.5zM3492 -394q-1 1 -1 2q1 2 5 4q8 2 17 3t16.5 -0.5t3.5 -5.5q-7 -8 -20 -9h-3q-11 0 -18 6zM3575 -387l-1 1q0 2 6 4q8 2 20.5 4t27.5 3.5t27.5 2t19 -0.5t1.5 -4 q-4 -4 -17.5 -7.5t-29.5 -5.5q-12 -1 -24 -1q-3 1 -7 1q-16 0 -23 3zM3780 -387l38 24q-6 -17 -13 -20t-15 -4h-10zM3841 -382q0 4 2.5 6t6.5 2q1 0 2 1q4 1 6 -1q4 -2 3 -5q0 -4 -3 -7q-2 -2 -6 -2q-1 0 -2 -1l-6 1q-4 2 -3 6z" />
<glyph unicode="L" horiz-adv-x="1476" d="M26 -205q8 20 27.5 83t46.5 157t60.5 211.5t69.5 246t73.5 261.5t72.5 257.5t66 234.5t54.5 191.5t38 129t16.5 47.5q20 0 38 -17t29 -37q-70 -194 -138 -398.5t-122 -411t-87 -411t-33 -398.5v-14q85 60 199.5 115.5t247 106t277 96t289 86t283.5 75.5t260.5 64.5 t219 53.5t159.5 41q22 -5 55 -5q18 0 40 2q60 4 134.5 15.5t161 29t176 36.5t177.5 38.5t166 35t141 25t103 9.5h66q-225 -40 -416.5 -76.5t-364 -73t-333 -76t-324 -85.5t-337 -100t-372.5 -120q-37 -13 -97 -42.5t-134.5 -69t-159 -86t-171 -93.5t-170.5 -90.5t-157.5 -77 t-131.5 -53.5t-93 -20q-20 0 -39 5t-34 16.5t-24 29t-9 42.5v14z" />
<glyph unicode="M" horiz-adv-x="1650" d="M57 122v40q8 17 27 70t45.5 129.5t59.5 171.5t69 197t73.5 205.5t73.5 196t68.5 169.5t58.5 126q8 20 23 36.5t31 16.5q32 0 57 -29.5t44.5 -79t34.5 -113t28.5 -132.5t26 -137t26.5 -126t31.5 -100.5t39.5 -59.5q57 62 104.5 129.5t90 138t83.5 142.5t85 143t93 141 t109 136h22q24 0 37 -11.5t19 -30t7 -42t1 -48.5q0 -122 -17 -250.5t-44.5 -260t-61 -264t-67 -261.5t-63.5 -253.5t-49 -239.5q4 -33 4 -66q-1 -26 -3 -52q-6 -58 -23 -119q-12 15 -17 39.5t-5.5 50.5t0.5 48.5t1 32.5q0 128 17.5 252.5t44 246.5t57 242t57 240t44 240 t17.5 242v53q-36 -25 -71 -72.5t-68.5 -108.5t-66 -131t-64.5 -139t-64 -132.5t-64.5 -112.5t-66 -78t-67.5 -29q-47 0 -79 29t-54.5 77t-37 110.5t-25 129t-20 132.5t-21.5 121.5t-29.5 95.5t-43.5 55q-10 -32 -32 -102.5t-51.5 -163.5t-65 -201t-72.5 -216.5t-74.5 -208.5 t-71.5 -177.5t-62 -123.5t-46 -46q-16 0 -25 9t-13 22.5t-4.5 29.5t-0.5 31zM2165 -1156q0 5 2 9t6 4t6 -4t2 -9t-2 -9t-6 -4t-6 4t-2 9z" />
<glyph unicode="N" horiz-adv-x="1704" d="M-122 -226q0 9 20 53q22 46 59 119t88 167.5t109 199.5t121.5 215t126 213.5t121 195.5t108.5 161t87.5 109.5t57.5 42.5q10 1 26.5 -8.5t33 -24t28.5 -32t14 -32.5l64 -741q2 -20 13 -36t31 -14l13 2q89 183 218 382t289 401t347 400.5t392.5 380t424.5 339t444 277.5 t450.5 196.5t443.5 95.5l27 2q-197 -52 -374.5 -119t-342 -150.5t-320.5 -185t-309 -224.5t-307.5 -268.5t-316.5 -315.5q-151 -158 -297.5 -326t-274 -348t-230 -372t-164.5 -397q-8 -31 -13 -47.5t-13 -25t-21.5 -11t-38.5 -5.5q-8 -1 -15 -1q-40 0 -66 20 q-31 22 -49 59.5t-26 84.5t-12 92q-6 73 -8.5 147.5t-4 149.5t-4 150t-9.5 150q0 3 -0.5 17t-2 33t-5 40.5t-9.5 39t-15 28.5t-22 10q-16 -1 -47.5 -31t-74 -81.5t-93.5 -121.5t-106 -151.5t-110.5 -171t-108 -180.5t-98.5 -179.5t-81 -168.5t-57 -147.5t-26 -115.5l-26 -4 q-6 -1 -11 -1q-12 0 -20 4q-11 4 -17 12t-8 20q-3 18 -3 28z" />
<glyph unicode="O" horiz-adv-x="1421" d="M31 531q1 132 42.5 255.5t111 232t160.5 198t192 154t205 100t200 35.5q43 0 90 -8.5t93 -26.5t87.5 -46.5t73 -69t49.5 -94t18 -120.5q0 -26 -10.5 -42.5t-22.5 -30.5t-22 -28.5t-10 -34.5q0 -25 6.5 -46.5t14 -43.5t14 -46t6.5 -54q-1 -128 -47.5 -235.5t-122.5 -193 t-173.5 -149.5t-200.5 -107t-203 -64.5t-182 -21.5h-118q-126 71 -190 188q-62 113 -61 288v11zM95 531v-9q0 -90 20 -158q21 -72 61.5 -119t99.5 -70t135 -23q66 0 152.5 17t178.5 51.5t182 86t163 120.5t121 156t57 192q2 16 2 31q0 32 -8 60q-11 40 -31.5 75t-47 66 t-51.5 62t-45 64.5t-27 74.5h21q16 0 33.5 -9t34 -22t32 -26.5t27.5 -23.5v53v5q0 61 -22 103q-23 42 -60 66.5t-82 33.5t-88 9q-85 0 -181.5 -30.5t-191 -86t-182 -134t-154.5 -174.5t-107.5 -207.5t-41.5 -233.5z" />
<glyph unicode="P" horiz-adv-x="1221" d="M-20 588q0 16 16 28l458 245q24 13 38 39.5t22 56.5t12.5 59.5t10.5 48.5q4 13 12.5 40t19 62t22 73.5t22 73.5t19 62.5t12.5 40.5l-34 -6q-32 -6 -58.5 -21t-48.5 -34.5t-39.5 -41t-32.5 -40t-28 -31.5t-24 -15q-17 -3 -29.5 3t-21.5 17t-14 24.5t-7 26.5 q-4 26 16.5 50.5t55 46.5t77.5 41t82.5 34t70.5 25.5t42 15.5l9.5 28.5t14.5 40t15 38t11 22.5q5 18 13.5 22t17.5 6q21 4 30.5 -13.5t12 -40.5t1.5 -44t0 -25l843 145q4 1 8 1q14 0 28 -8q19 -10 35 -26.5t27.5 -35t13.5 -31.5q2 -14 2 -26q1 -20 -5 -36 q-10 -27 -29.5 -50.5t-46 -45t-53.5 -43.5q-126 -71 -254.5 -138.5t-257 -135.5t-256.5 -138t-254 -145q-4 -1 -9.5 -5.5t-11.5 -9.5t-11.5 -9.5t-9.5 -5.5q-44 -138 -78.5 -245.5t-62 -196.5t-49 -166.5t-41 -156t-38 -165.5t-38.5 -194l-19 -26q-15 10 -22.5 22.5 t-10.5 25t-4 26t-3 26.5q-1 4 -2.5 12t-3 16.5t-2.5 16.5t-2 13q29 116 63.5 231.5t70.5 231t70.5 231t63.5 232.5l-2 11l-2 12q-19 -9 -50 -25.5t-69.5 -36.5t-81.5 -41t-86 -40t-82.5 -33t-71.5 -19q-2 6 -2 18v5zM520 1311.5q0 4.5 2 8.5t6 4t6.5 -4t2.5 -8.5t-2.5 -8 t-6.5 -3.5t-6 3.5t-2 8zM666 1096h16l636 217q16 6 44 18t55.5 26.5t48 31t20.5 32.5q0 17 -22.5 26.5t-56.5 14t-75 5.5q-20 0 -39.5 0.5t-37.5 -0.5q-36 -1 -63 -2.5t-33 -1.5q-41 0 -79 1q-25 1 -50 1q-14 -1 -26 -1q-38 0 -75.5 -4t-78.5 -13q-28 -38 -56.5 -81 t-53.5 -88.5t-44.5 -91.5t-29.5 -90z" />
<glyph unicode="Q" horiz-adv-x="1610" d="M23 248q-4 32 -4 63q0 58 13 111q21 80 63.5 151.5t102.5 135t128.5 121.5t141.5 112.5t142 107.5t129 105.5t102 108.5q-42 21 -89 33t-94.5 17t-94.5 6t-89 1q0 21 13.5 36.5t32.5 26t37.5 16t29.5 5.5q53 0 103.5 -9t101 -19.5t101 -19t103.5 -8.5t99 13.5t91 29 t91 29t99 13.5q27 0 58.5 -8.5t58 -25.5t41.5 -44q12 -20 12 -46q0 -8 -1 -17q-4 -21 -18 -48.5t-33.5 -56.5t-42 -57.5t-43 -53t-37 -42.5t-23.5 -25q16 -42 26.5 -80.5t17 -76.5t9.5 -78.5t3 -88.5q0 -58 -11 -104t-34.5 -84.5t-61 -71.5t-90.5 -65v-14q0 -49 41 -98 t112.5 -99t167.5 -100t205.5 -100t227.5 -100t232.5 -99t220.5 -97.5t193 -96t148.5 -93.5t86.5 -90h-28q-34 0 -94 19t-138.5 52t-171 77t-191.5 94t-200 103.5t-196 105.5t-180 99t-152 85t-111.5 64t-59.5 34q-4 -3 -21 6t-42 24.5t-55 34.5t-58.5 36t-53 28.5 t-38.5 11.5h-14q-74 -32 -150.5 -71t-156 -73t-161.5 -57.5t-166 -23.5q-35 0 -76 4t-82.5 13.5t-80 26t-69 41.5t-50.5 59.5t-23 80.5zM136 319q0 -53 24 -84t61 -46.5t82 -20t87 -4.5q24 0 75.5 7t114 19.5t128.5 31t120.5 42t89.5 51.5t35 60v15q-32 42 -72 77.5 t-82.5 68.5t-83 66t-72.5 70v14v14q0 5 4.5 17t10 25t10 25t4.5 18q58 -21 115 -63t108.5 -91t95 -98.5t75.5 -86.5h14q48 0 87 21.5t66.5 56t43 77.5t15.5 85q0 21 1 61v12q0 34 -5 68q-5 40 -20 69.5t-47 29.5h-14q-7 -7 -22.5 -19.5t-35 -27t-41 -29.5t-41 -28.5 t-35 -23.5t-22.5 -13q-21 -11 -35.5 -20t-35.5 -9h-14q32 37 68 67.5t73 60t73 59.5t68 67q-16 27 -43.5 63t-62 68t-73.5 52q-30 16 -60 16q-8 0 -15 -1q-56 -8 -120.5 -38t-132 -77t-136 -107t-131 -127.5t-117 -139.5t-94.5 -142.5t-63 -136.5t-23 -121zM1123 1264 q16 -16 40.5 -40t52.5 -46.5t55.5 -38.5t48.5 -16q26 0 47 10t35.5 27t22.5 40.5t8 49.5q0 32 -6 47t-19 21q-11 4 -28 4h-7q-22 -1 -53 -1q-21 0 -50 1h-12q-24 0 -47 -3q-29 -4 -53.5 -16t-34.5 -39zM2915 -669q0 5 3 9.5t8 4.5q6 0 8.5 -4.5t2.5 -9.5t-2.5 -9.5 t-8.5 -4.5q-5 0 -8 4.5t-3 9.5z" />
<glyph unicode="R" horiz-adv-x="1490" d="M-111 605q0 18 15.5 27t33.5 9q26 -1 50 -1q88 0 162 16q94 22 170 67t137.5 112t116.5 153t106.5 189t107.5 219q-36 0 -88 -6.5t-108.5 -20t-112.5 -35.5t-101 -53.5t-72.5 -72t-27.5 -92.5q0 -23 7.5 -43.5t17 -40t17 -38t7.5 -36.5q0 -9 -4 -14.5t-10 -7.5 t-12.5 -2.5t-10.5 -0.5q-18 0 -31.5 14t-23 35.5t-15.5 48t-9.5 52t-4.5 47.5t-1 34q0 43 21 79t57 65t83.5 51.5t100 39.5t106.5 29t103.5 20.5t91.5 13.5t69 7q0 9 8.5 36.5t23.5 57.5t34.5 53t42.5 23q15 0 21.5 -13.5t9.5 -34.5t5.5 -45t9.5 -46t21.5 -37.5t42.5 -18.5 q33 -6 85.5 -9.5t112 -9t119.5 -16.5t108.5 -32t79 -54.5t30.5 -85.5q0 -64 -32.5 -119.5t-87.5 -103t-128 -88t-154.5 -75t-167 -62.5t-164.5 -51t-147 -40.5t-116 -31.5q-18 -9 -32 -24.5t-23 -34t-13.5 -38t-4.5 -37.5v-12q61 -28 131.5 -48t145 -38t150.5 -34.5 t147.5 -37.5t135.5 -47.5t116 -62.5q30 -7 95 -14.5t151 -16.5t187.5 -19.5t203.5 -23t198 -27.5t172 -32.5t125.5 -39t58.5 -46.5h-170q-82 0 -173 15t-183.5 30.5t-181.5 25.5q-48 6 -93 6q-38 0 -74 -4l-1118 292h-72q0 -24 -8.5 -73t-24 -107.5t-37.5 -120.5t-48.5 -113 t-57.5 -83.5t-64 -32.5q0 33 5.5 81.5t16 103.5t25.5 113t33.5 111.5t40 97.5t46.5 72q-55 22 -115.5 38.5t-123.5 28t-125.5 18.5t-121.5 12q4 13 1 21t-9 13.5t-11.5 11.5t-5.5 15zM351 568h73v25q-18 0 -36.5 -8t-36.5 -17zM618 763q27 0 79.5 12t119 33t142.5 50t151 63 t144.5 72.5t122.5 77.5t84.5 78.5t31.5 75.5q0 39 -29 65.5t-75 42.5t-101.5 24t-108 11t-96 3h-64.5h-109q-31 -21 -64 -64.5t-65.5 -98.5t-62 -118t-52 -123.5t-35.5 -114t-13 -89.5z" />
<glyph unicode="S" horiz-adv-x="1427" d="M-64 830q0 25 46 67t125 94.5t185.5 113t228 124t251.5 127t256.5 121.5t243.5 108.5t211.5 87.5t160.5 58.5t92 21.5q14 0 23.5 -1t15 -5.5t8 -14.5t2.5 -28q0 -9 -7.5 -16.5t-16.5 -7.5q-149 -24 -300 -70.5t-301 -108.5t-296.5 -138t-286 -160t-270.5 -172.5 t-249 -176.5q9 -18 28 -28t41.5 -14.5t46.5 -5.5t42 -1q114 0 230 11.5t232 25t232 25t230 11.5q46 0 87.5 -4t73.5 -19t51 -44t19 -79q0 -82 -36 -147t-110 -120l-1046 -826q-27 -36 -63.5 -60.5t-81.5 -24.5v61q22 16 70 50.5t114.5 83t147 107.5t167.5 125t175.5 136.5 t171 140t154.5 137t125 127.5t84 111t31 87q0 21 -13.5 34t-35 19.5t-47 8.5t-50 2t-44.5 -1.5t-29 -1.5q-105 0 -208 -11.5t-205.5 -25t-205.5 -25t-208 -11.5h-146q-18 4 -43 15.5t-48 27.5t-39 36t-16 43zM1566 1486l24 48v-12q0 -9 -3 -18t-21 -18z" />
<glyph unicode="T" horiz-adv-x="855" d="M-380 1180q-1 17 6.5 39t24.5 33q115 37 241.5 68.5t252 68.5t244.5 83.5t220 113.5q0 9 -1 29.5t-1 46.5t1.5 54t7 51.5t14.5 38.5t24 16q4 0 12 -1t15.5 -4t13.5 -7t6 -8l11 -186q13 0 24 1q10 1 19.5 1t14.5 1q4 0 17.5 4.5t28.5 10t28 10t18 4.5l1864 364 q29 4 90 12.5t142 18t175 20t188.5 20.5t183 17.5t158.5 11.5l105 6l24 -22q-125 -51 -261.5 -74t-278.5 -32.5t-287 -13t-288 -15.5t-281 -39.5t-266 -84.5l-1126 -227l-275 -86l-22 -25q-7 -34 -23 -99t-39 -152t-51.5 -190.5t-59.5 -214t-63 -222.5t-62 -215.5 t-57 -193.5t-48 -157t-35 -105.5t-17 -38.5q-3 48 -3 96q-1 117 17 233q24 164 70 323.5t105.5 316t120.5 308.5l-1 23q4 9 11.5 43.5t16 74.5t16.5 74.5t12 43.5v11q0 4 -1 12t-4 14.5t-8 9.5t-13 -2l-752 -276l24 -22zM3905 2099v47h301q-30 -18 -70 -25.5t-81 -11 t-80.5 -5t-69.5 -5.5z" />
<glyph unicode="U" horiz-adv-x="1479" d="M69 163q-4 37 -4 78q0 61 9 132q15 118 47.5 247t77.5 262.5t95.5 257.5t102.5 230.5t98 181.5q17 11 26.5 19t26.5 10h6q6 0 12 -1q8 -2 18 -19q5 -75 10 -109.5t8 -43t1.5 1.5t-9.5 24.5t-24 26t-43 5.5q-38 -66 -83 -161t-89.5 -205.5t-85 -229.5t-69.5 -233t-43 -217 q-9 -66 -9 -121q0 -32 3 -60q2 -21 4.5 -35.5t8.5 -23.5t18 -12t33 -1q127 13 232.5 70t195 142.5t166 193t147 222.5t137.5 230t138 215.5t148.5 180t167.5 122.5q-7 -14 -4 -17t9.5 -4.5t13.5 -4.5t9 -16q0 -4 -1 -12t-3.5 -15.5t-6 -13.5t-7.5 -6q-48 -79 -113 -177.5 t-133.5 -209.5t-134 -231.5t-114 -242.5t-73.5 -243q-17 -82 -17 -159q0 -37 4 -73q7 -65 38.5 -112.5t80.5 -81t111 -54.5t129.5 -32.5t137.5 -15.5q54 -3 105 -3q15 0 29 1q64 1 118.5 5t92.5 8q117 12 233 31.5t232 40.5t232.5 40t233.5 31q13 1 44.5 4.5t67 7.5t67 7 t44.5 5q0 -2 -46.5 -14t-124 -30t-179 -40.5t-210 -46t-217.5 -46.5t-202.5 -41.5t-164 -31.5t-101.5 -16q-73 -8 -161 -8q-4 0 -7 -1q-84 -1 -170 11q-90 12 -176.5 38t-156 72.5t-116 116t-56.5 167.5q-2 20 -2 41q0 32 4 65q8 55 22 110.5t32.5 109.5t34.5 102l-23 -2 q-77 -76 -165 -148t-182.5 -138t-192.5 -126t-194 -112q-35 9 -61.5 18t-44.5 23t-29 35.5t-14 54.5zM3029 8q0 4 2 7q2 4 6 4t7 -3t3 -7.5t-2 -8.5t-6 -4q-5 0 -7 3q-4 3 -3 9z" />
<glyph unicode="V" horiz-adv-x="1154" d="M127 1216q0 30 5 51t35 29q7 -4 17.5 -12.5t20 -20t16 -24t6.5 -23.5l100 -838v-20q4 -11 7.5 -28t6.5 -33q4 -18 6 -39h39q22 22 63.5 63t95 93.5t115 113.5t125.5 123t125.5 122.5t115 112t94.5 91t64 60.5q71 65 157.5 144.5t183.5 164.5t203.5 172.5t217 168 t224 151.5t224.5 123.5t218.5 82.5t206.5 30h20q-147 -92 -282.5 -169t-264.5 -148.5t-253 -143t-248 -153.5t-249.5 -180.5t-257.5 -222.5q-32 -30 -77.5 -84.5t-101 -124t-118 -150t-128.5 -162.5t-133 -160.5t-131 -145.5t-122 -117t-107 -74h-39q-36 0 -54 41 q-19 40 -25 108q-5 52 -4 115v39q2 86 5.5 176t6.5 176q1 32 1 62q0 50 -3 92q-5 68 -20 108.5t-47 40.5h-20q0 26 -6.5 52t-14 53t-13.5 55.5t-6 58.5z" />
<glyph unicode="W" horiz-adv-x="1714" d="M137 222v38q0 25 6 52t12 54.5t9.5 54.5t-1.5 52l134 774q-5 25 -3 51.5t12 51.5t27.5 46.5t42.5 36.5l54 -53q0 -2 -8 -39t-21 -98t-30 -140.5t-34.5 -167.5t-34.5 -179.5t-30 -176t-21 -157t-8 -122.5q0 -10 0.5 -15.5t3 -9t8 -7t15.5 -8.5q35 45 81 114.5t99.5 153 t113 175t121 180.5t124 169t122.5 141t115.5 97t102.5 36h26l54 -106v-640h26q34 36 95.5 117t143.5 193t181.5 248t210.5 282.5t229.5 296.5t238.5 289t238 261t227.5 212.5t207.5 142.5t178 52h14q-189 -133 -352 -281.5t-307.5 -308.5t-274 -329t-252 -342.5t-242 -349.5 t-243.5 -350q-10 -10 -33 -44t-54 -83t-68 -108t-74.5 -119t-73 -116.5t-64 -100t-48 -70t-24.5 -26.5q-25 0 -38.5 11.5t-20 29t-7.5 38.5t-1 41q0 96 12.5 193t27.5 196t27.5 198.5t12.5 199.5v187l-27 26q-80 -67 -160 -153.5t-157.5 -186t-150 -207t-138 -215.5 t-121 -212.5t-98.5 -197.5h-107q-7 0 -11 16t-7 41t-4.5 56t-2.5 60.5t-1 54.5zM3262 2701.5q0 5.5 3 9.5t8 4t7.5 -4t2.5 -9.5t-2.5 -9.5t-7.5 -4t-8 4t-3 9.5zM3325 2728q11 20 20.5 24t20.5 3h13z" />
<glyph unicode="X" horiz-adv-x="1366" d="M-2304 -1725l388 389q116 116 249 231.5t276.5 229t296 225t306 219t306.5 210.5t299 200l30 30l777 568q-30 49 -74 100t-92 104t-96 108.5t-86 112t-62 115t-24 118.5h75q45 0 88.5 -35t85.5 -89t82 -120.5t78 -129.5t74 -115.5t70 -78.5q67 41 153.5 108t184.5 143.5 t203.5 154t211 140.5t206.5 102.5t191 39.5q11 0 24 -3t24.5 -8.5t19 -14t7.5 -19.5q0 -39 -50 -78t-132 -79t-186.5 -81.5t-214 -85.5t-214 -91.5t-186.5 -100t-132 -110.5t-50 -122q0 -49 33 -91t83 -79t108 -69t108 -59t83 -49.5t33 -40.5q0 -23 -14.5 -32.5t-34 -12.5 t-40 -1.5t-31.5 1.5q-49 0 -95.5 19.5t-91 50.5t-86 70t-78 79t-69 77t-58.5 63q-28 -20 -77.5 -55.5t-113.5 -81.5t-137.5 -99t-149 -108t-149.5 -108t-137.5 -99t-113.5 -81.5t-78 -55.5q-5 -6 -25 -18.5t-43.5 -26.5t-46.5 -26.5t-34 -18.5q-73 -56 -172 -137 t-216 -177.5t-246.5 -204t-263.5 -216t-267 -213.5t-257 -197.5t-233.5 -167t-196.5 -122.5z" />
<glyph unicode="Y" horiz-adv-x="1714" d="M45 939q0 42 2.5 102t10 128t21.5 138t37 132.5t57 112t81 75.5q8 0 22 -10t27.5 -23.5t23.5 -27.5t10 -22q6 -6 10 -13q4 -6 7.5 -13.5t3.5 -15.5q-52 0 -89.5 -28.5t-63 -74t-41 -103t-23.5 -115.5t-10.5 -111t-2.5 -89q0 -63 3 -113t20.5 -85.5t56 -54.5t109.5 -19 q113 0 208.5 37t177 98.5t152 141t135 164.5t125.5 169.5t123 155.5t128 122.5t141 71.5q12 6 23 6q4 0 8 -1q15 -3 27 -12.5t19 -24t7 -30.5q0 -84 -21.5 -175.5t-54.5 -189t-70.5 -199.5t-70.5 -206t-54.5 -209.5t-21.5 -209.5v-250q55 62 126 134t154 148t175 153.5 t189 151.5t196 142t195.5 124t188.5 99t174 66l501 87q-131 -11 -280 -59.5t-304 -124t-311.5 -174t-303 -210t-277 -231.5t-234 -239t-174.5 -232t-99 -210q-6 -25 -18 -79.5t-29 -128.5t-38.5 -163.5t-47 -186t-55.5 -194.5t-63.5 -189t-70 -171t-76 -139t-81 -93 t-85.5 -34q-26 0 -44 16t-29.5 40.5t-17.5 55.5t-9 61.5t-3.5 56.5t-0.5 42q0 109 23.5 206.5t62.5 187t90 172.5t106 163t109.5 159.5t101.5 161t82 167.5t51 180q4 27 9 79t10.5 118.5t11.5 144.5t12 158.5t11.5 158.5t11 145t10 118.5t8.5 79.5v20v21q-74 -20 -137 -55.5 t-119 -80t-107 -95.5t-102 -100.5t-104 -95.5t-112.5 -80.5t-128.5 -55.5t-151 -21q-57 0 -98 17.5t-69 48t-44.5 70t-25 83.5t-11 89.5t-2.5 87.5zM582 -1248q0 31 0.5 71.5t3.5 80t10 74t19 52.5l294 556v-66q0 -104 -28 -220t-74 -229t-105 -217t-120 -183v81z" />
<glyph unicode="Z" horiz-adv-x="1478" d="M7 654q0 44 31.5 73.5t85 49.5t125 33.5t152 25.5t165.5 25t165.5 32.5t152 48t125 71t85 102.5t31.5 142v28q-53 85 -119 126.5t-160 41.5q-14 0 -59 -2t-104 -8t-124 -18t-119.5 -32t-90 -50t-35.5 -72q0 -21 8.5 -38t19 -32.5t19.5 -32.5t9 -38q-26 0 -52 9.5 t-50.5 24t-48 32t-44.5 33.5v42q0 45 28.5 81.5t76.5 66.5t111 53t131.5 40.5t139 28.5t132.5 17t112 8q17 0 31 1q29 0 48 -2q58 -5 109 -34.5t89 -74t60 -100t22 -113.5v-14q0 -5 -9 -30t-19.5 -54.5t-19 -54.5t-8.5 -30v-14v-14l1118 225h224q-204 -47 -379 -84.5 t-328 -72.5t-288 -73t-259.5 -87.5t-242.5 -114.5t-237 -154t-243 -207t-260 -273q80 21 169 36t181.5 28.5t185.5 28t181.5 35t170.5 49.5t152 71l1985 646q58 10 113.5 25t110 31t110 30.5t113.5 25.5q-3 -11 -21.5 -24t-45 -26.5t-58 -26.5t-61 -21.5t-54.5 -13t-39 -0.5 q-32 -11 -89.5 -30t-132.5 -43.5t-161.5 -52.5t-176 -57t-176 -57t-161.5 -52.5t-133 -43.5t-89 -29q-5 0 -21.5 -4.5t-34.5 -9.5t-34.5 -9.5t-21.5 -4.5q-136 -49 -296 -106t-332.5 -117.5t-353.5 -121.5t-360 -119t-350 -110.5t-325 -94.5h-28q-32 0 -61.5 12t-50.5 44 q24 58 65.5 108t93.5 95t111.5 86.5l119 83t116 84t102 89t77 98.5t42.5 113h-28q-91 -28 -163 -50t-131.5 -42.5t-111 -41t-102 -45.5t-103.5 -56.5t-116 -73.5q-26 16 -42.5 27.5t-25.5 25t-12.5 30.5t-3.5 44zM2596 1285q0 5 3 9.5t8 4.5t7.5 -4.5t2.5 -9.5t-2.5 -9.5 t-7.5 -4.5t-8 4.5t-3 9.5zM2663 1285q0 5 4.5 7.5t9.5 2.5t9.5 -2.5t4.5 -7.5t-4.5 -8t-9.5 -3t-9.5 3t-4.5 8zM3842 1197q0 5 4.5 7.5t9.5 2.5t9.5 -2.5t4.5 -7.5t-4.5 -8t-9.5 -3t-9.5 3t-4.5 8zM4038 1253l56 27q-11 -21 -21 -24t-21 -3h-14z" />
<glyph unicode="[" horiz-adv-x="687" d="M58 -172q0 18 0.5 33.5t3.5 32t9.5 35t18.5 42.5q12 103 21.5 190t16.5 165t12 149.5t8 142.5t4.5 145t1.5 157q0 53 -10 104t-22 100t-22 96.5t-10 95.5q0 12 3 25.5t9 25.5t15 20t21 8h16l63 -32q6 0 16.5 7.5t21 18t18.5 21t8 16.5q42 6 104.5 16.5t133 21t141.5 18.5 t131 8v-95q0 -16 -35.5 -29.5t-90.5 -24t-121 -18t-126 -13t-106.5 -8t-62.5 -2.5q0 -30 5 -62t11 -66.5t11 -69.5t5 -71q0 -89 -10 -178t-22 -178t-22 -178t-10 -178q0 -12 1.5 -39t3.5 -62t5 -73.5t6.5 -73t7.5 -61.5t8 -39q78 18 148 42t139 46.5t139 38t148 15.5v-79 q0 -21 -27.5 -43.5t-73 -46t-104.5 -47t-121.5 -45.5t-124.5 -42.5t-113.5 -38t-88 -31t-48.5 -22.5q-24 12 -37 24t-19 25t-7 28t-1 33z" />
<glyph unicode="\" horiz-adv-x="973" d="M-83 1608q36 0 71 -16t68 -42t63.5 -59.5t56.5 -68t47.5 -68t36.5 -58.5q19 -30 53.5 -84t78 -123t94 -148.5t102.5 -160.5t102.5 -159t94 -145t77.5 -118t53 -78l113 -312q0 -20 -10 -17t-27.5 19.5t-39.5 41.5t-46 48.5t-48 40t-44 16.5q-6 0 -29 30t-57.5 82.5 t-78.5 122t-93 148.5t-100 163.5t-100 165.5t-93 154.5t-78.5 131t-57.5 95t-29 46.5z" />
<glyph unicode="]" horiz-adv-x="681" d="M-126 -190q0 28 22 48t58 34.5t82 25t94.5 20t95 20t84 23.5t61 31t26.5 44l27 218q0 34 -2 104.5t-5 159.5t-6.5 186.5t-6.5 186.5t-5 159.5t-2 104.5q0 36 0.5 57.5t-7 33t-28 15t-61.5 3.5q-47 0 -91 -8.5t-86.5 -19t-84 -19t-82.5 -8.5q-5 0 -14.5 0.5t-18.5 3 t-15.5 8t-6.5 15.5q0 38 30 62.5t77 40t104.5 22.5t112.5 10t101 2.5t70 -0.5h110l27 -55q-3 -167 -2.5 -299t4 -243.5t8 -209.5t8.5 -196.5t7 -206t3 -236.5q0 -15 -24.5 -32t-65.5 -34.5t-95 -34.5t-112.5 -32.5t-118 -28.5t-112.5 -22.5t-95 -15t-65 -5.5v68z" />
<glyph unicode="^" horiz-adv-x="1229" d="M107 775q0 28 19 68.5t50.5 89t72.5 101t85 104.5t87.5 100t80.5 87.5t63.5 67t37.5 38.5h37q35 0 55 -12t34 -31.5t27 -45.5t34 -54q14 -21 41.5 -60.5t58 -82.5t58 -82t41.5 -60q14 -35 34.5 -77t35.5 -79t18.5 -61.5t-17.5 -24.5q-46 0 -84.5 30.5t-72.5 77.5 t-66 104.5t-65 111.5t-69.5 97t-80.5 63q-2 1 -25.5 -24t-60 -65.5t-82.5 -91t-93.5 -101t-93.5 -95t-81.5 -73.5t-57 -36.5t-21.5 16.5z" />
<glyph unicode="_" horiz-adv-x="1024" d="M1 -167q0 8 10.5 16.5t24.5 15.5q15 8 35 15q67 -3 141 1t151 12t155.5 18t154.5 19t148 15t136 6q35 0 56.5 0.5t32 -6.5t12.5 -26t-2 -59q-5 -26 -11.5 -40.5t-16.5 -21t-23 -7.5t-31 -1q-31 0 -60 7.5t-58 16t-60.5 16t-66.5 7.5q-78 0 -158.5 -11t-160 -24.5 t-158 -24.5t-152.5 -11q-31 0 -50 -3t-30 1t-15 19t-4 50z" />
<glyph unicode="`" d="M70 1486q56 0 106 -25t93.5 -63t81 -82t68.5 -81v-34q0 -25 -12.5 -46t-37.5 -21q-29 0 -62.5 19t-66.5 50t-64 69.5t-54.5 77.5t-37.5 75t-14 61z" />
<glyph unicode="a" horiz-adv-x="1452" d="M-12 656q0 5 -1 10q0 22 5 44q6 28 10 50q10 63 47 114t91.5 89.5t121.5 65t136 40.5t135 17q16 1 32 1q47 0 88 -7q112 -18 193 -47.5t137 -73t91 -102t56 -133t31.5 -167.5t18.5 -205q-2 -15 7.5 -29.5t24.5 -15.5q124 -5 205 -9.5t137 -8.5t95 -7.5t77 -4.5 q19 0 40.5 -0.5t45.5 0.5q46 1 117.5 5t176.5 12t260 20q7 1 20.5 -1t28 -4.5t28 -5.5t21.5 -4q-145 -26 -262.5 -43t-215 -30t-177.5 -24t-151 -25t-135 -32.5t-129.5 -46.5t-134.5 -68t-150 -97l-154 12q-29 5 -33.5 9t1 9.5t15 14t8.5 22t-20 33t-70 47.5q-14 7 -42 8 h-14q-23 0 -51 -2q-36 -4 -76.5 -9.5t-78.5 -10t-70 -7t-52 0.5q-36 6 -67.5 15.5t-53 28.5t-31.5 48q-5 17 -5 39q0 16 3 35l10 60q24 26 81 54.5t128.5 58t148.5 59.5t141.5 59t107.5 56.5t47 52.5q3 18 3 34q0 28 -9 54q-14 40 -41.5 71t-66.5 54.5t-80.5 40t-83.5 27 t-76 16.5q-60 9 -102 12q-17 1 -32 1q-24 0 -45 -2q-35 -4 -65 -17t-62 -35t-70.5 -53.5t-90.5 -73.5q10 -32 6 -61.5t-19 -53.5t-39.5 -42t-56.5 -28q-35 13 -48.5 36.5t-15.5 49.5zM608 281l58 -10q29 -5 53 -7.5t48.5 -2.5t52.5 4t67 13q1 3 1 6q0 10 -8 22 q-10 14 -26 17q-15 2 -34 2q-10 -1 -20 -1q-32 -2 -66.5 -7.5t-68 -15t-57.5 -20.5z" />
<glyph unicode="b" horiz-adv-x="1251" d="M-1250 -583q109 45 236 100t260 117.5t268 131t261.5 139t239 141.5t201.5 140q-29 36 -40 73.5t-12 77.5v11q0 35 5 72q6 43 11 89q2 16 12 66t26 124.5t38 169t48 198.5t54 213t57.5 213.5t58.5 199.5t56.5 170.5t51.5 127t44 68.5q-33 -155 -73 -306t-78.5 -303.5 t-71 -311t-50.5 -328.5q-2 -13 -5.5 -28.5t-3.5 -30.5t7 -28t26 -22q63 27 122 41t117 20q40 4 82 4h38q60 -2 126 -10q26 -3 61.5 -4.5t72.5 -6t72.5 -13t62.5 -24.5q27 -18 42 -44q12 -21 12 -49q0 -8 -1 -16l-6 -53q-63 -45 -156 -100t-208.5 -116.5t-248.5 -127 t-275.5 -133t-290 -135t-291 -131t-279.5 -122t-256 -109t-219 -91t-169 -67.5zM380 382v-7v-15q2 -15 5 -32t7.5 -32.5t10.5 -22.5q69 19 140.5 48t140.5 66.5t132.5 84t115.5 100.5q-6 1 -21 2.5t-31.5 3t-31.5 3t-21 2.5q-35 4 -80.5 4t-93.5 -6.5t-95 -20t-84.5 -37 t-63 -58.5t-30.5 -83z" />
<glyph unicode="c" horiz-adv-x="1187" d="M78 196v60q91 128 197 238t221.5 204.5t237 176.5t242.5 154h47q9 0 22 1h5q10 0 20 -3q12 -4 19 -16.5t3 -40.5q-2 -14 -32.5 -40.5t-79 -61t-111.5 -75.5t-130.5 -84t-135 -86.5t-126 -84t-103 -75t-66.5 -59.5q-9 -11 -28 -36t-41 -52.5t-41 -53t-28 -36.5v-15 q0 -23 14.5 -32.5t34 -12.5t38.5 -1.5t28 1.5q109 0 218 22t217 55t216 72t216 72t216.5 55t218.5 22h81l-46 -30q-104 -30 -213 -72.5t-221 -88.5t-226 -92t-228 -82.5t-227 -59t-222 -22.5h-115q-26 17 -43.5 34.5t-28.5 38.5t-15.5 47t-4.5 59z" />
<glyph unicode="d" horiz-adv-x="1405" d="M78 189q0 30 0.5 53.5t4.5 46t12 46.5t23 54q7 7 33 37t65.5 73.5t89.5 97t106 108t116 106t117.5 91.5t111.5 64t99 24q15 0 30 -6.5t30 -14t30 -13.5t30 -6q48 0 96 34.5t95 93t92 134.5t87 159t79.5 167.5t69.5 159.5t57 134q26 58 44 92q19 35 28 35t8 -41 q-1 -58 -18.5 -134.5t-46 -164t-65.5 -181t-76 -184t-77 -174t-70 -151t-54.5 -114.5t-29.5 -65q-23 -38 -38 -66.5t-24 -54.5t-13 -54.5t-4 -65.5q0 -68 21 -107.5t58.5 -60t88.5 -26.5t111 -6q234 0 462.5 38.5t454.5 96.5t451.5 125.5t453.5 125.5t459.5 96.5t471.5 38.5 q-78 -4 -167.5 -16.5t-184 -31t-191 -40.5t-187 -45.5t-173 -46.5t-149.5 -43t-115 -35.5t-70 -22.5q-45 -15 -115.5 -42t-158.5 -60.5t-191 -72t-213.5 -76t-224.5 -71.5t-224.5 -60.5t-214.5 -42t-194 -15.5q-85 0 -147.5 13.5t-108.5 40t-78 66.5t-54.5 93.5t-39 120 t-31.5 146.5q-35 -35 -85 -90t-110 -117.5t-127 -125t-135 -113t-134.5 -82.5t-126.5 -32q-38 0 -61 13.5t-36.5 36t-18 51.5t-4.5 59zM258 309q50 0 112 29t127.5 75t129 103.5t115.5 115.5t88 110.5t46 87.5h-40q-35 0 -91 -27.5t-120.5 -72t-129.5 -101t-118 -114.5 t-86 -112t-33 -94zM4227 830v40l40 -40h-40zM4347 830q15 30 32.5 35t47.5 5h40q-15 -30 -32.5 -35t-47.5 -5h-40z" />
<glyph unicode="e" horiz-adv-x="1422" d="M-280 73q0 20 10 34q16 23 51.5 43.5t80.5 38t96 33.5t98 30.5t87 27t63 24.5q47 127 99 222.5t109 166.5t120 120t132 84t144.5 59.5t158.5 43.5q8 2 31 2.5t49.5 0t49.5 -1t32 -1.5q26 -9 36.5 -31.5t12.5 -48.5t-0.5 -49.5t-2.5 -32.5q0 -70 -36 -122t-93.5 -93.5 t-128 -76t-139.5 -68t-128 -70.5t-94 -83l93 -47q6 0 37 -4t75.5 -10t98 -13t104 -13t93 -10t65.5 -4q147 0 288.5 12.5t281.5 27.5t281.5 27.5t288.5 12.5h209q-194 -58 -395 -101.5t-395 -73t-376 -44t-338 -14.5q-87 0 -169.5 7.5t-163 16t-159 16t-156.5 7.5 q-46 0 -90 -9.5t-86.5 -23.5t-84 -30.5t-84 -30.5t-86.5 -23.5t-90 -9.5q-26 0 -44 13t-27 31t-9 38zM437 443q29 12 79.5 33t110 49t120 63t110 75t81 84t31.5 91q-46 0 -103.5 -11.5t-116.5 -32.5t-115 -52t-100 -69.5t-70.5 -84.5t-26.5 -98v-47zM2565 304l46 46l47 -46 h-93zM2918 350q0 9 4 16t13 7q8 0 12 -7t4 -16t-4 -16t-12 -7q-9 0 -13 7t-4 16z" />
<glyph unicode="f" horiz-adv-x="797" d="M-1064 -1749q4 19 45 79t108.5 151t156.5 208t189.5 250.5t207.5 279.5t210.5 294t198.5 294t171 280t128.5 252t71.5 210q3 13 14.5 42t25.5 64.5t27 74.5t19.5 72t3 56t-23.5 27l-13 3q-11 -3 -32 -6.5t-43.5 -6.5t-41 -6.5t-24.5 -7.5q-24 -5 -68 -16t-101.5 -26 t-124.5 -32.5t-135.5 -35.5t-135.5 -36.5t-124.5 -34.5t-102.5 -28.5t-69 -20.5q-6 -3 -14.5 -8.5t-17.5 -11.5t-17 -12t-13 -9l-37 -47q-27 0 -44 7.5t-26 19.5t-11 27t1 29q2 5 4.5 12t6.5 13q4 7 9 14l1204 294q-2 47 -2 88q0 34 1 64q3 65 9.5 122t17.5 114.5t26 131.5 q26 124 66.5 233t97.5 198.5t132 156.5t169 105.5t208 45.5q24 2 49 2q94 0 202 -22l30 -6t42 -8.5t42 -9t30 -5.5q54 -32 67 -82q6 -25 6 -52t-6 -57q-39 8 -68.5 29t-58.5 45t-61.5 45.5t-76.5 31.5q-82 17 -153 17q-38 0 -72 -4q-102 -14 -183.5 -57t-144 -112 t-109.5 -154t-79.5 -182.5t-52.5 -198.5q-23 -110 -33 -210q-5 -51 -5 -102.5t5 -103.5l25 -4q6 -1 15 -1q20 0 56 7q51 9 118.5 26.5t144.5 38.5t149 39t132 30q50 9 81 9h10q36 12 72 24.5t83.5 26.5t111 31t154.5 38t215 47.5t291.5 59t384 72.5t493.5 89l739 70 l-739 -109q-216 -43 -396.5 -78.5t-336.5 -67t-294.5 -61t-271 -60t-265 -65t-277.5 -75.5t-308.5 -90.5t-356.5 -111.5q-22 -7 -27 -17.5t-9 -30.5q-15 -69 -35.5 -141t-37.5 -152q-16 -78 -56.5 -194t-100 -257t-135.5 -299.5t-163.5 -321t-184 -322.5t-196.5 -303.5 t-202 -264t-200 -204.5t-189 -125q-65 -29 -124 -29q-25 0 -48 5zM3959 1653q5 0 20.5 3.5t33.5 8l34 8.5t21 4h10l14 -2q-5 -14 -14.5 -20t-20.5 -7h-9h-14q-12 2 -22 3q-11 -1 -27 0.5t-26 1.5zM4146 1676q34 19 73.5 28.5t80.5 13.5t83 4t82 -1l26 -1q-69 -29 -147 -38 q-64 -8 -131 -8h-28z" />
<glyph unicode="g" horiz-adv-x="1404" d="M-445 -1504q128 22 238.5 64t204 96t171.5 117.5t142 130t115.5 132.5t92 125.5t71 109.5t53.5 83q59 107 112 204.5t97.5 192.5t80.5 190.5t60.5 199t38 218t13.5 247.5h-16l-740 -354h-81q-24 0 -49.5 1.5t-46.5 10.5t-34.5 29t-13.5 56q0 48 39 101.5t105 107.5 t152 107.5t180.5 101.5t190.5 89.5t181.5 71.5t154 47t107.5 17q73 0 109 -44t36 -117q0 -111 -23.5 -245.5t-68 -283t-108 -305.5t-143.5 -313.5t-174.5 -306.5t-200.5 -284t-223 -246.5t-241 -194.5t-253.5 -128t-262.5 -46q-6 0 -17 0.5t-22 2.5t-19 5.5t-8 9.5zM321 445 q6 0 24.5 2.5t40 7t40 10.5t24.5 12q24 12 70.5 35t104.5 51.5t120.5 59t119 59t100.5 51t64 34.5q12 12 26 24t26.5 25.5t20.5 29t8 33.5q-69 0 -145 -18.5t-153 -51t-151 -75t-139 -91t-117 -99.5t-84 -99z" />
<glyph unicode="h" horiz-adv-x="1239" d="M57 167l2 -12q1 -5 2 -12t3 -15q4 -25 14 -48.5t23 -42t26.5 -30.5t25.5 -14t21 7.5t11 34.5q7 75 22 153t42 153t68 144t100 125.5t138 97t183 58.5q29 5 49 1t33.5 -16.5t22 -34t13.5 -51.5q11 -64 18.5 -115.5t9.5 -98.5q1 -17 1 -34q-1 -29 -3 -59q-4 -46 -14.5 -101 t-29 -120.5t-45.5 -150.5q59 10 104 50.5t77.5 99t53 129.5t30.5 142.5t11 137.5v7q0 62 -9 108q-6 34 -17.5 76t-29 84t-42 80.5t-56 66t-71.5 40.5q-24 8 -50 8q-19 0 -39 -4q-66 -12 -111 -29.5t-81 -45t-69.5 -66.5t-76.5 -92l44 152q14 47 42.5 120t66 163.5t81 195 t86.5 216t83 225.5t70.5 223.5t49 210.5t18.5 186zM2198 2683v35h27q-7 -5 -10 -10t-5.5 -9.5t-4.5 -8.5t-7 -7zM2527 2656q0 3 4 3t4 -3t-4 -3t-4 3zM2558 2589.5q0 4.5 3 4.5q4 0 4 -4.5t-4 -4.5q-3 0 -3 4.5z" />
<glyph unicode="i" horiz-adv-x="817" d="M43 271q3 36 21 97t46.5 133.5t66 149.5t78 146t82.5 123t81 80q6 -1 16.5 -9.5t20 -20t16.5 -23t7 -17.5l-1 -17l-1 -16l-197 -511q-1 -15 -2 -27q-1 -11 -1.5 -21.5t-0.5 -16.5q-3 -36 -4 -67.5t6.5 -55t29 -38t63.5 -17.5q143 -10 245 -15.5t178 -7.5q34 -1 64 -1 q38 -1 70 1q58 2 113.5 9.5t116.5 18.5t143 27t192.5 37t265.5 47q-118 -13 -219.5 -39t-201 -56.5t-203.5 -60.5t-226 -51q-122 -22 -270 -31q-63 -4 -134 -4q-94 0 -200 7q-48 3 -96.5 21.5t-85.5 50.5q-38 32 -60 76q-19 38 -20 83q0 8 1 16zM475 1524q3 37 20 70.5 t55 55.5q12 -5 36 -8.5t52.5 -8t58.5 -11.5t54 -18t38.5 -28t13.5 -41q-6 -14 -12 -26q-5 -11 -11.5 -21t-12.5 -16q-5 -8 -17.5 -21t-29 -29t-35.5 -32.5t-36.5 -31t-32.5 -25t-23 -13.5q-17 19 -38 42t-39.5 48.5t-30.5 53.5q-10 24 -10 51v9z" />
<glyph unicode="j" horiz-adv-x="699" d="M-1239 -1569q217 82 388 170t305 186t235.5 206.5t181 231.5t141.5 262t116 296t105.5 334t109.5 377q16 57 30 117.5t26.5 119.5t24 113t24.5 98q7 26 20.5 49.5t29.5 37t34 13.5t35 -20q25 -30 32 -71q4 -24 4 -50q0 -18 -2 -38q-5 -47 -19 -97t-30.5 -98t-33 -92 t-26.5 -77q-45 -148 -97 -308.5t-116 -324t-142 -325t-176 -310.5t-218 -281t-267.5 -237t-324.5 -178t-390 -104zM343 1585q1 21 4 45.5t11 45.5t24 34q13 12 34 12h7q18 -1 47.5 -9t64 -20.5t70 -29t63.5 -36.5t45 -42q16 -21 16 -42q0 -19 -9 -43q-8 -21 -22.5 -38 t-35.5 -28q-17 -8 -38 -8h-8q-40 3 -89 8.5t-91 21.5t-69 46q-24 27 -24 73v10z" />
<glyph unicode="k" horiz-adv-x="1139" d="M-4 23v57q52 125 113 266.5t127 289t134 295t134 284.5t127 257.5t112 214.5q5 19 23 52.5t44.5 76t57.5 89t60.5 92t54.5 85t40 67.5q3 -17 1 -46.5t-8.5 -66.5t-16.5 -77.5t-21.5 -78t-23.5 -69t-24 -49.5l-560 -1158v-38q79 0 153 25t145 62t140.5 81t140.5 81t145 62 t153 25q0 -60 -21.5 -101.5t-57 -71.5t-81 -51t-92.5 -38.5t-92.5 -34.5t-81 -40t-57 -54t-21.5 -77v-18q91 -53 212 -100.5t258 -90.5t282.5 -81.5t286 -73t268.5 -65t229.5 -57.5t169 -50t87.5 -43l37 -37h-20q-173 0 -346.5 33t-346 83t-343 108t-337 108t-327.5 83 t-315 33h-19q-37 -14 -75.5 -40.5t-75 -59t-71 -68.5t-63.5 -68.5t-52 -59t-37 -40.5h-56q-28 0 -46 4t-28.5 14.5t-14.5 28.5t-4 46zM360 447q13 14 29 27.5t29 27t22 27t9 27.5q-40 0 -64.5 -16t-24.5 -56v-37z" />
<glyph unicode="l" d="M-159 1613q-1 3 1 5q2 4 6 4q4 1 6.5 -2t3.5 -6.5t-0.5 -7t-5.5 -4.5q-6 -1 -8 2q-4 4 -3 9zM72 6q6 66 18.5 131.5t29 125.5t29.5 105q7 27 21.5 77.5t33.5 115.5t41 141t45 154t46 153.5t43 141t36 116t25 77.5q3 17 3 46.5t0.5 64.5t3 72t9 68t18.5 52t33 24q4 1 8 1 q9 0 17 -4q10 -6 18 -17t13 -25t7 -29q2 -17 4 -29l2 -18v-6q0 -12 -2.5 -25t-7.5 -30l-412 -1437q15 -21 14 -52.5t-13 -64t-31 -61.5t-40 -44q-2 8 -5 26t-4 26q-6 36 -6 75q1 24 3 49zM185 81q1 3 1 5q2 4 5 4h2q3 0 4 -2q2 -2 3 -6q0 -1 1 -3q1 -3 -1 -5q-2 -4 -6 -4h-2 q-3 0 -4 2q-3 5 -3 9z" />
<glyph unicode="m" horiz-adv-x="1821" d="M135 159q0 76 12 148.5t29.5 143.5t37.5 142.5t35.5 144.5t23.5 149q5 43 5 89q0 34 -3 69q9 9 29 25t41.5 31t41 26.5t28.5 11.5t25 -11.5t31 -26.5t26.5 -31t11.5 -25v-466q43 26 90.5 66t95.5 77t95.5 63.5t91.5 26.5q35 0 59.5 -22t46 -48t45.5 -48t59 -22 q58 0 102.5 24t81.5 60.5t70 79t68 79t75.5 60.5t93.5 24q26 0 48 -12t39.5 -31.5t30.5 -45t22 -51.5q-70 -140 -144.5 -299t-136 -327.5t-101 -341t-39.5 -338.5v-186l47 -93q0 -26 -8 -44t-21 -29t-30 -16t-34 -5h-47q-6 17 -15 57t-19.5 91.5t-21 108t-18.5 108t-13.5 91 t-5.5 57.5q0 96 22 189t48 184.5t48 184t22 188.5q-26 0 -58.5 -14t-67 -37t-69.5 -52.5t-68 -59.5q-77 -72 -157 -163h-24q-26 0 -51.5 19t-47.5 47.5t-38.5 61t-25.5 58.5l-327 -279h-23q-26 0 -55 12t-53 31.5t-40 44.5t-16 51z" />
<glyph unicode="n" horiz-adv-x="1044" d="M52 182q0 59 14 127t35 140.5t46 146t47.5 143t39 131.5t20.5 112q7 14 13.5 21t13.5 10.5t14 4t14 0.5q26 0 44.5 -10.5t46.5 -23.5v-19.5t0.5 -26.5t0.5 -26.5v-19.5q0 -32 -12.5 -69.5t-31 -77.5t-40.5 -81t-40.5 -79.5t-30.5 -73t-12 -61.5q1 -14 1 -36v-36 q41 32 89 88t100 122.5t106.5 135t107.5 125.5t104 94t97 41q28 2 47 -17.5t31.5 -47.5t18.5 -58.5t8 -50.5q0 -2 1 -6q0 -12 -3 -44q-3 -42 -8.5 -108t-13.5 -150.5t-17 -176.5t-18.5 -187.5t-19.5 -183t-19 -162t-17 -126.5q-9 -51 -15 -74q-4 -14 -6 -14t-3 7 q-12 53 -18 123.5t-8.5 150t-2.5 164.5t1.5 167.5t3 158t1.5 137.5q0 12 1 23q0 45 -2 81q-2 44 -8 61l-11 132q-37 -22 -80 -64t-89 -96t-93.5 -115.5t-93.5 -122.5t-88.5 -117.5t-79 -99.5t-65 -68.5t-46.5 -25.5q-27 0 -42 6.5t-22.5 20t-9 34t-1.5 47.5z" />
<glyph unicode="o" horiz-adv-x="1207" d="M54 338q8 90 44 174t94 159.5t130.5 137t155.5 107t169 70.5q69 19 127 28q25 4 50 4q32 0 63 -7q54 -12 107.5 -50.5t111.5 -114.5l13 -46q14 -48 14 -97q0 -37 -8 -73q-19 -85 -67 -164.5t-118.5 -151t-150 -129t-160.5 -99t-150 -60.5q-51 -15 -113 -22q-24 -3 -49 -3 q-37 0 -73 7q-58 11 -105 45.5t-66 102.5q-21 69 -21 138q0 22 2 44zM227 418q-8 -29 -8 -57q0 -30 9 -61q10 -35 30.5 -49.5t46.5 -16.5h10q21 0 44 6q28 6 54 14q77 22 138.5 53.5t111.5 76t90 102.5t74 132q-38 35 -82.5 51t-91.5 19q-13 1 -27 1q-34 1 -68 -5 q-48 -8 -90 -20q-51 -15 -101.5 -51.5t-87 -86t-52.5 -108.5z" />
<glyph unicode="p" horiz-adv-x="1345" d="M-718 -2092q6 27 14.5 65.5t18 80.5t19.5 84t18 76.5t13 58t5 29.5l703 1971q8 16 23 49.5t29.5 68.5t25 64t10.5 37t-14 26.5t-30.5 39t-30 39t-13.5 26.5v22q0 27 24.5 65.5t63 79.5t85 82t90.5 73t79.5 52t52.5 20q16 0 29 -0.5t23.5 -5t19 -13.5t16.5 -25 q44 0 101 1.5t121 1.5q22 1 44 1q44 0 90 -1q70 -1 138 -6t132.5 -14.5t119.5 -25.5v-88q0 -66 -42 -140t-109.5 -147t-153 -140t-173.5 -118t-170 -81.5t-142 -30.5q0 71 30 130.5t79 111.5t110.5 97.5t125 90t123 89.5t103.5 94h-527q-12 -7 -22 -14q-8 -6 -15 -14t-7 -16 q-99 -180 -196.5 -381.5t-190.5 -412.5t-178.5 -426t-160 -422.5t-135.5 -401.5t-105 -364l-132 -525h-44q-17 0 -32.5 1t-28 7t-20 19.5t-7.5 37.5v22z" />
<glyph unicode="q" horiz-adv-x="1572" d="M-70 222q78 92 179 185.5t218 180t245 161.5t259 130.5t261.5 87.5t251.5 32h97l39 -77q-78 -58 -164 -143t-172 -186.5t-165.5 -214.5t-144.5 -227.5t-109.5 -225.5t-58.5 -208h78q237 78 487.5 154t509.5 145.5t523.5 128.5t529.5 102t528 67.5t520 24.5v-39 q-160 -26 -342 -52t-378.5 -56t-402.5 -64.5t-414 -77.5t-413.5 -95t-400 -116.5t-374 -142.5t-335.5 -173q-14 -7 -25.5 -32.5t-21.5 -62t-19.5 -80.5t-20.5 -88t-24 -84t-30 -69t-39 -43q-16 -10 -34 -10q-9 0 -18 2q-36 7 -59 40t-35.5 75t-17 85t-4.5 72q0 124 30 256.5 t79 263.5t111.5 256t127.5 235q-87 -29 -174.5 -69t-176 -76.5t-180 -62t-185.5 -25.5q-59 0 -90 28.5t-46 87.5zM202 300h38q58 0 143.5 24t182.5 65t199.5 95.5t195 115t167.5 123.5t119 121h-77q-73 0 -158 -28t-175 -74t-180.5 -104.5t-173.5 -119t-155.5 -117.5 t-125.5 -101z" />
<glyph unicode="r" horiz-adv-x="797" d="M116 256q2 52 12 99q5 20 10 39.5t12.5 37t18.5 32.5t28 26l116 565q2 14 12.5 20t22.5 6.5t23.5 -1.5t16.5 -5q36 -7 54 -29q17 -20 21 -50q2 -12 2 -26q1 -20 -3 -40q-6 -36 -15 -70.5t-19 -66t-14 -53.5q13 -3 28 -3q26 1 58 9q50 12 105.5 37t113.5 59t110 69t94 68 t66 56q144 57 270 103t239.5 83.5t219.5 67t210.5 54t211.5 44.5t223.5 38t246 34.5t279.5 33.5l37 -17q-62 -3 -167.5 -18t-241.5 -41.5t-295 -64.5t-328 -87t-340.5 -108.5t-332 -129t-303.5 -148.5t-255 -168t-185.5 -186.5t-95.5 -203.5q-3 -20 3.5 -44.5t15 -48.5 t15 -45t2.5 -33q-12 -68 -48 -100q-25 -22 -65 -21q-18 0 -38 4q-60 12 -93 46q-32 34 -46 80q-11 39 -12 82v15zM2939 1509q121 23 231 38q112 15 214 21q74 5 145 5q27 -1 54 -1q97 -2 191 -14q15 -2 38 -5t36 -5q-123 0 -251.5 -4t-248.5 -12.5t-224 -22.5t-178 -33z M3961 1570q-2 2 -2 4q-1 4 9 6q14 2 31 -0.5t29.5 -8t4.5 -12.5q-15 -9 -37 -7t-35 18zM4117 1596q5 2 10 2h3q6 0 11 -5t4 -11t-6.5 -8.5t-12.5 -2t-12 4.5q-4 3 -4 8q0 9 7 12zM4219 1572q-2 2 -2 3q0 2 5 4q8 2 21.5 2t30 -2t30 -5.5t20.5 -7t2 -7.5q-8 -5 -24 -7 q-6 -1 -11 -1q-11 -1 -21 1q-16 2 -30.5 7.5t-20.5 12.5zM4466 1590q3 4 8 4q2 0 4 -1q6 -1 9 -7q2 -5 2 -9v-3q-1 -6 -5 -12q-3 -4 -7 -5q-2 0 -3 1q-7 2 -10 8t-3 11q0 7 5 13z" />
<glyph unicode="s" horiz-adv-x="824" d="M-569 -551q37 43 99.5 96.5t141.5 113.5t170 124.5t184 128.5t183 125.5t167.5 116t138 99t93.5 75.5v29q0 22 -20.5 38t-54 28t-76 23t-87.5 23.5t-87.5 28.5t-76 39.5t-54 55.5t-20.5 77q0 41 17.5 84.5t46.5 85t68 78.5t82 65t87.5 44t85.5 16q22 0 41.5 -10t33 -25.5 t21.5 -34t8 -34.5q-56 0 -121 -12.5t-121 -42t-93 -78t-37 -121.5q0 -45 23 -72t60.5 -43.5t86 -24.5t98.5 -14.5t98.5 -14t86 -22t60.5 -40t23 -67.5q0 -48 -16 -82t-41.5 -59t-58 -44.5t-65.5 -40t-64 -44.5t-53 -57l-506 -269l-30 -29q-15 -11 -54.5 -38.5t-91 -62.5 t-110 -72.5t-111.5 -68.5t-95 -51t-60 -20z" />
<glyph unicode="t" horiz-adv-x="698" d="M-500 670q0 23 1 33.5t6.5 16t18 10t35.5 16.5q26 9 73 26t108 39.5t131.5 49t143.5 53.5t143.5 53.5t131.5 49t108 39.5t73 26q21 12 35.5 53.5t26.5 96t24.5 114.5t30.5 110.5t43.5 83.5t63.5 33q19 0 21 -33v-13q0 -29 -6 -69q-8 -50 -23 -108t-29.5 -109t-25.5 -86 t-11 -39q346 84 704.5 163.5t723 153.5t731.5 140.5t731 124.5t721 106.5t701 85.5h15q-127 -21 -294.5 -44.5t-367 -51t-427 -60.5t-475 -73.5t-511.5 -90t-537 -108.5q-175 -34 -323 -64.5t-280 -59.5t-253.5 -59t-243.5 -64t-250 -74.5t-272 -89.5q-11 -6 -32.5 -15 t-44 -20t-41 -23t-24.5 -24q-3 -11 -11.5 -50.5t-22 -97t-32 -130t-41 -150t-49 -156t-56.5 -149.5t-63 -129t-68 -95q0 65 15.5 143.5t39.5 163t51 172.5t51 171.5t39.5 159.5t15.5 137h-61q-34 0 -82 -17.5t-104 -46.5t-118 -65.5t-124 -74t-121.5 -73.5t-110.5 -64 q-52 -26 -94 -42q-35 -13 -58 -13h-9q-23 6 -35.5 17t-18 25t-6.5 31t-1 34zM-310 602q0 6 3 10.5t9 4.5t8.5 -4.5t2.5 -10.5t-2.5 -10.5t-8.5 -4.5t-9 4.5t-3 10.5z" />
<glyph unicode="u" horiz-adv-x="1534" d="M120 237q0 58 5.5 138.5t19.5 166.5t37.5 170t59 151t84.5 108t114 41q19 0 44 -0.5t50 -2t47 -5t35 -9t14.5 -14t-14.5 -19.5q-77 -57 -133.5 -129t-88 -146.5t-35.5 -144.5q-1 -9 -1 -17q0 -59 25 -104h26q37 -8 73 -8q54 -1 104 17q84 28 164 87t158 139.5 t159.5 164.5t168.5 163.5t184 136.5v-858q0 -65 39 -126t100 -114.5t135.5 -97.5t146.5 -76t132 -49.5t93 -17.5t123 -2q91 -4 225 -4h22q126 0 285 6q173 6 372 21t418 43.5t444.5 75.5t451.5 114.5t441 161.5l-52 -52q-24 -24 -96.5 -53.5t-182.5 -62.5t-251.5 -68.5 t-302 -70.5t-334 -69t-349 -65t-346 -56.5t-325 -44.5t-286.5 -29.5t-229 -10.5q-176 0 -311.5 33.5t-236 96.5t-169.5 154.5t-111.5 206.5t-61 252.5t-18.5 293.5q-52 -73 -127 -145.5t-161.5 -139t-179 -123.5t-179 -99.5t-162 -66.5t-127.5 -24q-49 0 -75.5 10t-38.5 32 t-14 56.5t-2 83.5z" />
<glyph unicode="v" horiz-adv-x="1024" d="M90 924q17 15 32 28q13 11 26 20.5t21 11.5l22 5q33 6 53 -9.5t30 -65.5q3 -16 13 -49.5t23.5 -76t28 -89t28 -89t23.5 -76.5t13 -50l159 122l859 944q10 10 40 36t69 58.5t82 66.5t78.5 61.5t59.5 43.5q18 12 23 11q2 0 2 -1q-140 -166 -277.5 -338t-266 -341 t-246.5 -329.5t-218.5 -304t-182 -265t-137.5 -212.5l-66 -13q-9 -3 -27 -5q-15 -2 -31 -2h-6q-19 0 -35 6.5t-19 23.5z" />
<glyph unicode="w" horiz-adv-x="1706" d="M175 674.5q0 52.5 4.5 101.5t17 88.5t34 67.5t54.5 37q29 9 52 -2.5t39 -33t24.5 -48t10.5 -48.5q1 -11 1 -23q0 -25 -4 -49q-4 -35 -9 -71t-9 -74q-3 -26 -3 -54q0 -14 1 -29q1 -8 2 -24.5t2 -35t2 -35.5t1 -24q24 21 63.5 69t86 108.5t96.5 124.5t93.5 117.5t77.5 88 t49 35.5h6q39 0 67 -23q30 -25 49.5 -67t33 -95t26 -105t26.5 -98.5t36 -74.5q85 79 172.5 173.5t171.5 192.5t160.5 195t138.5 180q21 27 45.5 66.5t50.5 85.5t52 96t50 98q56 113 115 237l40 3v-6q0 -36 -20 -102q-22 -72 -61.5 -169.5t-93.5 -214.5t-116.5 -242 t-130 -252.5t-134.5 -245.5t-130.5 -221t-116.5 -180t-93 -121.5t-61 -45.5h-18q-48 -1 -80 13q-38 16 -62 46.5t-36.5 71t-20 84.5t-13 88.5t-15 83t-26.5 67.5t-48 42q-28 -21 -65.5 -66t-80 -100.5t-88.5 -114.5t-90.5 -108t-86.5 -81t-76 -34q-15 -1 -32 -4 q-11 -2 -23 -2l-11 1q-17 2 -31.5 9.5t-23.5 29.5q-1 15 -3 54.5t-4.5 84t-4.5 84t-3 54.5q-1 22 -5.5 59.5t-9 84t-8.5 98.5t-4 104.5z" />
<glyph unicode="x" horiz-adv-x="1024" d="M-1124 -870q0 39 33.5 93t92 119t136 137t165.5 146.5t182 148.5t184 142.5t172 128.5t146 106t106 75.5t52 37.5q26 25 30.5 62t4.5 75q0 45 -11 90t-23.5 90t-23.5 90.5t-11 90.5v17q0 6 8.5 18t19.5 23t23 19.5t18 8.5q90 -65 145.5 -153t94.5 -191h17q39 0 69 19.5 t55.5 47t49 56.5t49.5 49q17 13 52 39.5t79 60.5t92.5 71.5t92 71.5t78.5 60.5t52 39.5q19 -13 32.5 -23.5t21.5 -21.5t11.5 -25t3.5 -33q0 -35 -28 -66.5t-74 -60.5t-104.5 -57.5t-119.5 -58t-119.5 -62t-104.5 -69.5t-74 -80.5t-28 -94.5q0 -34 18 -53.5t44.5 -31 t57.5 -19t57.5 -19t44.5 -30.5t18 -53q0 -32 -12 -52.5t-31 -31.5t-44 -15t-50 -4q-43 0 -69.5 10.5t-44 26.5t-30.5 36t-29 39t-39.5 34.5t-62.5 24.5q-13 0 -39 -6t-53 -15.5t-50 -21.5t-29 -25q-167 -123 -330.5 -260t-319.5 -281.5t-303.5 -294.5t-282.5 -298h-68v103z " />
<glyph unicode="y" horiz-adv-x="1437" d="M-507 -1582q192 54 339.5 113t261 121t199 128t154.5 134t127.5 138.5t117.5 143.5q143 227 268.5 680.5t222.5 1141.5q36 0 66.5 -12t51 -33.5t28.5 -50.5q4 -14 4 -29q0 -17 -5 -36q-46 -187 -89 -383.5t-94.5 -392.5t-116.5 -386t-156.5 -364t-214.5 -325.5 t-289.5 -271t-382 -201.5t-492.5 -115zM151 240q0 58 3.5 133t14 153.5t30 153.5t51.5 134t79 95t112 36q19 0 44 -0.5t50 -2t47 -5t35 -9t14.5 -14t-14.5 -19.5q-52 -38 -97.5 -84.5t-83 -97.5t-64.5 -103.5t-41 -102.5q-14 -48 -14 -91q0 -47 20 -82h26q54 -11 101 -11 q35 0 66 6q75 14 139.5 55t122.5 105t118 144.5t126 174t147 193.5v-26q0 -130 -45 -238q-49 -119 -155 -229q-78 -109 -168 -193t-182.5 -141t-183 -86.5t-168.5 -29.5q-49 0 -75.5 10t-38.5 32t-14 56.5t-2 83.5z" />
<glyph unicode="z" horiz-adv-x="1465" d="M-13 266q15 59 53 94t91 56t115 32t125 23t121.5 30t104 51.5t72.5 88t27 140.5q0 37 -23 60.5t-56 36.5t-70.5 17.5t-67.5 4.5q-64 0 -101 -23.5t-58 -58.5t-30.5 -76.5t-18.5 -76.5t-23.5 -58.5t-43.5 -23.5q-22 0 -46.5 19.5t-44.5 47.5t-33.5 58.5t-13.5 52.5 q0 54 25.5 94.5t67 69t94.5 47t107.5 29t106.5 14.5t91 4q111 0 174 -16.5t94.5 -55.5t39 -104t7.5 -161q64 0 128 14.5t126.5 35t124.5 42.5t122 38q59 16 116 20q13 1 26 1q43 0 85 -12l1024 257v-59q-229 -67 -454 -128.5t-446.5 -126.5t-439.5 -138t-432 -162 q-29 -8 -57.5 -22.5t-50.5 -37t-35.5 -52t-13.5 -66.5v-20q88 22 177.5 56.5t180 66.5t183.5 55.5t189 23.5q15 0 22.5 -6.5t11.5 -15.5t4.5 -19.5t0.5 -17.5q0 -41 -34 -80t-90 -75t-128.5 -68.5t-149.5 -61t-152 -52t-136.5 -40.5t-104 -28t-53.5 -15l-366 -121 q-8 0 -15 9.5t-12.5 22.5t-9 26t-3.5 21q0 20 15.5 51.5t40 68t54 74.5t57 71.5t50 58.5t32.5 35h-20q-35 0 -65 -12t-57 -29.5t-53 -38t-51.5 -38t-52.5 -29.5t-56 -12q-15 0 -38 10.5t-43 26.5t-32 38q-8 13 -8 27q0 8 3 17zM2704 1058q5 25 23.5 40.5t44.5 24t57.5 12 t62.5 3.5h20h39q28 -1 48 -1h20q-15 -37 -49 -54t-74 -23q-32 -4 -64 -4h-18q-41 2 -71 2h-39z" />
<glyph unicode="{" horiz-adv-x="703" d="M20 620q0 28 16.5 43.5t41 27t53.5 22t53.5 28t41 45t16.5 73.5q0 42 -6 80.5t-12.5 76.5t-12.5 76.5t-6 80.5q0 82 21 161t64.5 141t110 100t157.5 38q7 0 25.5 2t39 0t39 -10t25.5 -29q-5 -28 -32.5 -50t-66.5 -44.5t-83 -49t-81.5 -63.5t-62.5 -86.5t-25 -118.5 q0 -48 3 -92t6 -87.5t6 -87.5t3 -93v-73l-38 -74l38 -73v-128q0 -56 3.5 -127t7.5 -145t7.5 -145t3.5 -126q0 -35 27 -65.5t63.5 -54.5t73.5 -40.5t58 -23.5v-19q0 -20 -9.5 -37t-25 -29t-35.5 -18.5t-41 -6.5q-48 0 -97 28t-87.5 71t-59.5 95t-14 100q0 9 1 43.5t2.5 81 t3 100t3 100.5t2.5 81.5t1 43.5v56q0 41 -16.5 62t-41 31t-53.5 14.5t-53.5 13t-41 26t-16.5 54.5z" />
<glyph unicode="|" horiz-adv-x="455" d="M154.5 1021.5q-0.5 94.5 1.5 170.5q0 20 1.5 53.5t3.5 71.5t5.5 77t9 70.5t13 51.5t17.5 20h62q-5 -159 7 -312t27.5 -302.5t27.5 -298.5t8 -301q0 -15 -3 -66t-8.5 -119t-14 -143t-21 -138t-28.5 -104t-37 -41q-10 0 -15.5 35t-8 87.5t-4.5 115t-4.5 117t-8 92.5 t-15.5 43q1 30 -0.5 94.5t-3.5 149t-4.5 183.5t-4.5 199t-2.5 194.5z" />
<glyph unicode="}" horiz-adv-x="682" d="M-7 1536q7 21 25 29t39 10t39 0t25 -2q90 0 156.5 -38t110 -99.5t64.5 -140t21 -160.5q0 -41 -6 -79.5t-12.5 -76.5t-12.5 -76.5t-6 -79.5q0 -46 16.5 -73.5t41 -44.5t53 -28t53 -22t41 -27t16.5 -43q0 -36 -16.5 -53.5t-41 -26t-53 -13t-53 -15t-41 -31t-16.5 -61.5v-56 q0 -9 1 -43.5t2.5 -81t3 -99.5t3 -99.5t2.5 -80.5t1 -43q5 -32 -3.5 -66t-26.5 -66.5t-43.5 -62t-55.5 -51t-63 -34.5t-65 -13q-21 0 -41 6.5t-35 18.5t-24.5 29t-9.5 37v18q13 4 35 13t46 22t49 29t45 35t32.5 40.5t12.5 44.5q0 55 3.5 125.5t7.5 144t7.5 144.5t3.5 126 v127l38 73l-38 73v73q0 48 3 92t6 87t6 87t3 92q0 69 -24.5 118.5t-62 86t-81.5 63t-82.5 49t-66.5 44.5t-32 49z" />
<glyph unicode="~" horiz-adv-x="1229" d="M179 390q0 72 13 134t44.5 107.5t83 71t129.5 25.5q43 0 77.5 -13t63 -33t53.5 -42.5t51.5 -42.5t55 -33t64.5 -13q32 0 49.5 13t28 33t18 42.5t18 42.5t28 33t49.5 13q18 0 25 -10.5t8.5 -24t-0.5 -26.5t-2 -19q0 -42 -14 -85.5t-39.5 -78t-60 -56.5t-76.5 -22 q-48 0 -81 19t-58 48t-44 62t-38.5 62t-42 48t-54.5 19q-63 0 -103 -20.5t-65.5 -50.5t-42 -66t-34 -66t-41.5 -50.5t-63 -20.5z" />
<glyph unicode="&#xa0;" />
<glyph unicode="&#xa1;" horiz-adv-x="797" d="M285 -385l26 1028h176l27 -1028h-229zM285 815v229h229v-229h-229z" />
<glyph unicode="&#xa2;" horiz-adv-x="808" d="M79 -295q0 48 36.5 83t86.5 35q49 0 84 -34.5t35 -83.5q0 -50 -35 -86.5t-84 -36.5t-86 36.5t-37 86.5zM83.5 239.5q2.5 51.5 11.5 98.5q5 20 10 39.5t12.5 37t18.5 32.5t28 26l116 565q2 14 12.5 20t22.5 6.5t23.5 -1.5t16.5 -5q36 -7 53.5 -28.5t21.5 -51t-1.5 -65 t-14.5 -70.5t-19 -66.5t-14 -53.5q54 -11 112.5 -4.5t114.5 26t106 49t86 64.5q289 114 576 190t576 128.5t581.5 89t592.5 71.5l-2 -20q-1 -5 -75.5 -17.5t-202 -33t-298 -49.5t-363 -67.5t-397.5 -86.5t-401.5 -106.5t-375 -128t-318.5 -150.5t-231 -174.5t-113 -199.5 q-3 -20 3.5 -44.5t15 -48.5t15 -45t2.5 -33q-11 -68 -47.5 -99.5t-103.5 -17.5q-60 12 -93 46t-46.5 80t-11 97.5zM101 1355q0 5 7 10t15 10q10 4 22 9q63 -3 135.5 4t146 16t144.5 17t131 8q44 0 61 -19.5t12 -69.5q-3 -17 -7 -25.5t-10 -13t-14.5 -5t-19.5 -0.5 q-20 0 -38 4.5t-36.5 10t-38 10t-41.5 4.5q-50 0 -100 -7t-100.5 -15t-99.5 -15t-95 -7q-39 0 -56.5 15t-17.5 59zM3198 1324q85 37 188.5 51t212.5 12t216.5 -16.5t200.5 -33.5l37.5 -7.5t35.5 -7.5q-61 -6 -136 -11t-155.5 -9t-163 -6t-159 -0.5t-143 6.5t-115.5 15z M4204 1335q-6 8 7.5 9t30.5 -2.5t29 -10t4 -12.5q-16 -8 -38 -4.5t-33 20.5zM4353 1340q2 7 8 9t12.5 0.5t11 -6t3.5 -10.5t-7 -8t-12.5 -0.5t-11.5 5.5t-4 10zM4461 1318q-4 5 4 6.5t21.5 0.5t30 -4.5t29.5 -7.5t19.5 -8.5t1.5 -7.5q-8 -6 -23.5 -6t-32 3t-30.5 9.5 t-20 14.5zM4703 1306q1 7 5.5 11.5t12.5 1.5q6 -1 8.5 -7t1 -13t-5.5 -12t-11 -3t-9.5 8.5t-1.5 13.5z" />
<glyph unicode="&#xa3;" horiz-adv-x="1540" d="M-3 194q3 15 6 27q2 11 4.5 21t2.5 15q6 22 29.5 36.5t56.5 24t71.5 16.5t75.5 13.5t68.5 14.5t50.5 21q45 40 112.5 113.5t148.5 166t169.5 197.5t176 208.5t168 198.5t145 167.5t107.5 116t55 43.5q29 0 39 -17.5t10 -45.5v-38q-6 -22 -21.5 -70.5t-35.5 -110 t-42.5 -130t-43 -131.5t-36 -113.5t-21.5 -75.5q-5 -24 -9.5 -39.5t-8.5 -28t-6 -26t-2 -32.5v-26l856 253q175 30 341 65.5t326 66t316 50.5t312 20h63l-25 -25q-52 -52 -149.5 -84t-225.5 -52.5t-279.5 -33t-312.5 -26t-323.5 -33t-312.5 -52t-280.5 -83.5t-227 -128.5 t-151 -185.5t-53.5 -256q10 0 23 -0.5t25 -4t20.5 -11t8.5 -21.5q0 -19 -6.5 -39.5t-17.5 -39.5t-25 -35t-28 -25q-38 14 -62 23.5t-37.5 24t-19 38t-5.5 65.5q0 47 11.5 92.5t26 89t26 86.5t11.5 85v26q-125 -47 -217 -80.5t-161 -59.5t-119.5 -48t-92.5 -47.5t-80 -57.5 t-82 -78t-99 -109t-130 -151q-10 -10 -16 -17t-13 -11.5t-17.5 -7t-28.5 -2.5v88l150 215h-189zM588 458l529 177q14 5 30 30.5t33 65.5t33.5 90.5t32 105.5t28.5 111t23 106t15.5 91.5t5.5 67.5v13q-21 -19 -63.5 -58.5t-98 -93t-119 -116.5t-127 -129t-121.5 -132 t-103 -123.5t-71.5 -104.5t-26.5 -75v-26zM1129 1759q0 5 7 10t15 10q10 4 22 9q63 -3 135.5 4t146 16t144.5 17t131 8q44 0 61 -19.5t12 -69.5q-3 -17 -7 -25.5t-10 -13t-14.5 -5t-19.5 -0.5q-20 0 -38 4.5t-36.5 10t-38 10t-41.5 4.5q-50 0 -100 -7t-100.5 -15t-99.5 -15 t-95 -7q-39 0 -56.5 15t-17.5 59zM3531 1165v25q39 4 77 8q32 4 66.5 8t58.5 9h12h13l-25 -25zM3808 1190q9 19 20 22t31 3h24zM3924 1215q0 5 2.5 9t7.5 4q4 0 6.5 -4t2.5 -9t-2.5 -9t-6.5 -4q-5 0 -7.5 4t-2.5 9zM4085 1241q0 4 4 6.5t8.5 2.5t8.5 -2.5t4 -6.5 q0 -5 -4 -7.5t-8.5 -2.5t-8.5 2.5t-4 7.5zM4160 1241q-5 4 12 6.5t38 2.5t38 -2.5t12 -6.5q-5 -5 -19 -7.5t-30.5 -2.5t-31 2.5t-19.5 7.5zM4336 1241q0 4 4 6.5t8.5 2.5t8.5 -2.5t4 -6.5q0 -5 -4 -7.5t-8.5 -2.5t-8.5 2.5t-4 7.5z" />
<glyph unicode="&#xa4;" horiz-adv-x="1496" d="M31.5 623q1.5 28 1.5 51q0 64 29 120.5t76.5 102.5t109.5 82.5t128 61.5t131 38t120 13q114 0 198 -17t146 -51t106 -86t76 -123t57 -161t50 -199q0 -15 12 -28.5t27 -11.5q98 12 169 19.5t123 12t90 7t69.5 5.5t61 6.5t65.5 9.5t83 16t113 25t155 36t210 50 q7 1 20.5 1.5t28.5 0t28.5 -1t21.5 -0.5q-139 -48 -252.5 -83.5t-207.5 -63t-172 -51t-145.5 -48t-128.5 -53t-121 -66.5t-122 -88.5t-133 -118.5l-154 -13q-30 0 -35 3.5t0 10t13 16t5 23t-25 30t-76 36.5q-15 5 -43 1t-63.5 -13t-74.5 -20.5t-76 -22t-68 -18t-51 -7.5 q-37 0 -69.5 5t-56.5 20t-38 42.5t-14 72.5v60q15 22 48.5 48.5t77.5 56t96 60t104 61.5t100 61t85.5 57t59.5 51t22 43q0 50 -19.5 87t-52 63.5t-74 43.5t-85.5 26.5t-87 13.5t-77 4q-59 0 -102.5 -4t-77 -13.5t-61 -26.5t-56 -43.5t-62 -63.5t-77.5 -87q15 -30 15.5 -59.5 t-10.5 -55.5t-32.5 -48t-51.5 -37q-37 7 -54 28t-22.5 47t-4 54zM331 1392q0 5 7 10t15 10q10 4 22 9q63 -3 135.5 4t146 16t144.5 17t131 8q44 0 61 -19.5t12 -69.5q-3 -17 -7 -25.5t-10 -13t-14.5 -5t-19.5 -0.5q-20 0 -38 4.5t-36.5 10t-38 10t-41.5 4.5q-50 0 -100 -7 t-100.5 -15t-99.5 -15t-95 -7q-39 0 -56.5 15t-17.5 59zM706 295h59q30 0 53.5 0.5t48 4.5t52 12t64.5 23q0 15 -12.5 27.5t-27.5 12.5q-22 0 -53.5 -7t-65 -18t-65 -25.5t-53.5 -29.5z" />
<glyph unicode="&#xa5;" d="M136 641.5q1 109.5 6 219.5t9.5 204.5t6.5 166t-2 104.5l40 36q19 10 43 17q20 6 48 9.5t63 1.5l35 -3q13 -1 25.5 -5.5t22 -13t14.5 -20t4 -26.5l-1 -19q-8 -14 -14 -62t-11 -118t-9 -155t-7.5 -173.5t-6.5 -174t-6 -156t-7 -119t-8 -62.5q0 -5 -2 -24t-6.5 -44.5 t-12 -54t-19.5 -52t-28.5 -38.5t-38.5 -13q-44 3 -71 52t-42.5 128.5t-20.5 182t-4 212zM143 -296q0 37 18 72.5t45 67t58 56t58 39.5q7 -8 22.5 -30.5t32 -48t31.5 -48t22 -29.5v-20q0 -22 -12 -52.5t-32.5 -58t-46.5 -46.5t-53 -19t-52.5 7.5t-45.5 22t-32.5 36.5 t-12.5 51z" />
<glyph unicode="&#xa6;" d="M-33 1745q0 5 7 10t15 10q10 4 22 9q63 -3 135.5 4t146 16t144.5 17t131 8q44 0 61 -19.5t12 -69.5q-3 -17 -7 -25.5t-10 -13t-14.5 -5t-19.5 -0.5q-20 0 -38 4.5t-36.5 10t-38 10t-41.5 4.5q-50 0 -100 -7t-100.5 -15t-99.5 -15t-95 -7q-39 0 -56.5 15t-17.5 59z M136 641.5q1 109.5 6 219.5t9.5 204.5t6.5 166t-2 104.5l40 36q19 10 43 17q20 6 48 9.5t63 1.5l35 -3q13 -1 25.5 -5.5t22 -13t14.5 -20t4 -26.5l-1 -19q-8 -14 -14 -62t-11 -118t-9 -155t-7.5 -173.5t-6.5 -174t-6 -156t-7 -119t-8 -62.5q0 -5 -2 -24t-6.5 -44.5t-12 -54 t-19.5 -52t-28.5 -38.5t-38.5 -13q-44 3 -71 52t-42.5 128.5t-20.5 182t-4 212zM143 -296q0 37 18 72.5t45 67t58 56t58 39.5q7 -8 22.5 -30.5t32 -48t31.5 -48t22 -29.5v-20q0 -22 -12 -52.5t-32.5 -58t-46.5 -46.5t-53 -19t-52.5 7.5t-45.5 22t-32.5 36.5t-12.5 51z" />
<glyph unicode="&#xa7;" horiz-adv-x="1139" d="M148 542q0 60 18.5 111t49 96t69 86t78.5 82q-35 20 -69 45t-60.5 55t-42.5 65t-16 75q0 47 26.5 85t69 68t96 51.5t107.5 35.5t102.5 21t82.5 7q40 0 87.5 -6.5t87.5 -25.5t67 -53t27 -89q0 -40 -40 -40q-20 0 -41 21t-46.5 46t-56.5 46t-71 21q-27 0 -66.5 -3.5 t-82.5 -12.5t-86.5 -24t-77.5 -37.5t-55.5 -53t-21.5 -70.5q0 -50 31 -77.5t82 -41.5t116.5 -18.5t133.5 -9.5t133.5 -15t116.5 -34t82 -66.5t31 -112.5q0 -40 -18.5 -76.5t-49 -69.5t-70 -61.5t-81.5 -52t-83 -42.5t-75 -32q34 -20 77 -32t88 -22t88 -22t76.5 -32t54 -51.5 t20.5 -81.5q0 -57 -33.5 -105t-87 -90t-120 -80t-132.5 -75.5t-124 -76.5t-95 -82q-30 20 -42 35t-12 45q0 40 32.5 79t83.5 76.5t113 74t122 70.5t110 66.5t77 62.5q-25 37 -72 58.5t-106.5 33.5t-127 18t-134.5 13.5t-128.5 20t-108.5 37t-75 64.5t-28 103zM229 555 q0 -25 19.5 -43t46 -29t53.5 -16.5t42 -5.5q23 0 69.5 14.5t103 39t117 57t112.5 68.5t89 72.5t47 70.5q-50 35 -92.5 56t-87 32.5t-94.5 15t-116 3.5q-30 0 -65 -16.5t-69 -43.5t-66 -62t-56 -72.5t-38.5 -74t-14.5 -66.5z" />
<glyph unicode="&#xa8;" d="M11 1308.5q3 27.5 13 51t25 39.5t32 16q13 0 36.5 -4.5t47 -14.5t40.5 -26t17 -38q0 -63 -33.5 -96.5t-95.5 -33.5q-34 0 -52.5 16t-25.5 39.5t-4 51zM334 1309.5q3 27.5 13 51t25 39.5t32 16q13 0 36.5 -4.5t47 -14.5t40.5 -26t17 -38q0 -63 -33.5 -96.5t-95.5 -33.5 q-34 0 -52.5 16t-25.5 39.5t-4 51z" />
<glyph unicode="&#xa9;" horiz-adv-x="1661" d="M84 750q0 75 25.5 152.5t70 150t104.5 136t129.5 110.5t145 74.5t150.5 27.5q106 0 212 -19t203.5 -58t181.5 -98t146 -140t97.5 -183.5t35.5 -227.5q0 -94 -40.5 -180.5t-109 -161.5t-157.5 -136.5t-186.5 -105t-196.5 -67.5t-186 -24q-106 0 -193.5 29.5t-157 81.5 t-121 123.5t-85.5 154.5t-51 175t-17 186zM233 726q0 -66 2.5 -127t16.5 -115t44.5 -100.5t87.5 -83.5v25q0 28 -8 52.5t-17.5 47.5t-17.5 47.5t-8 52.5q0 62 12.5 125.5t37 122t60.5 109.5t83.5 88.5t105.5 59t127 21.5q37 0 61.5 -5.5t38.5 -20t19.5 -38.5t5.5 -61 q0 -28 -1.5 -51.5t-11 -40t-30 -25.5t-57.5 -9l-101 51h-24q-38 0 -70 -28.5t-55.5 -68.5t-36.5 -82.5t-13 -70.5q0 -47 6 -76.5t22.5 -46t45.5 -22.5t76 -6q75 0 138 13.5t121.5 39.5t116.5 63t123 84q19 -9 29.5 -18.5t15 -18.5t5.5 -18.5t1 -19.5v-25q-75 -66 -163 -128 t-184 -106.5t-198 -64.5t-205 -1l50 -50h175q81 0 170 13t175 40t164 69t137 100.5t94 134t35 169.5q0 87 -34.5 160t-92 131.5t-132.5 102t-155.5 72.5t-161 43.5t-149.5 14.5q-122 0 -211.5 -40t-148.5 -110t-87.5 -166t-28.5 -208z" />
<glyph unicode="&#xaa;" horiz-adv-x="739" d="M7 1291.5q1 15.5 1 27.5q0 54 34.5 97.5t85 73.5t108 46t102.5 16q95 0 154 -21t96.5 -64.5t59.5 -110.5t42 -158q0 -8 6.5 -16t14.5 -7q144 18 228.5 27.5t122.5 10.5t36.5 -5.5t-30 -20.5t-76.5 -35.5t-102.5 -49.5t-108.5 -63.5t-94 -76.5l-86 -8q-16 0 -19 2t0 5.5 t7.5 9t2.5 13t-14 17t-42 20.5q-12 3 -40 -3.5t-60 -15.5t-62 -17.5t-46 -8.5q-21 0 -39 3t-31.5 11.5t-21 23.5t-7.5 40v33q11 16 39.5 37t65 43t76.5 45t72.5 45t54 41t21.5 33q0 42 -23.5 68t-58 40.5t-72.5 19.5t-66 5q-50 0 -80 -5t-54 -19.5t-47.5 -40.5t-60.5 -68 q17 -33 3 -63.5t-47 -47.5q-21 4 -30.5 16t-12.5 26t-2 29.5zM383 1110h31q17 0 30.5 0.5t27 2.5t28.5 6.5t36 12.5q0 8 -7 14.5t-15 6.5q-12 0 -30 -3.5t-36.5 -9.5t-35.5 -14t-29 -16z" />
<glyph unicode="&#xab;" horiz-adv-x="1139" d="M72 467v73l508 474h93q0 -17 -17.5 -44t-45.5 -60t-64.5 -69.5t-75 -72.5t-76 -69t-67.5 -59t-50 -43t-23 -21q42 -124 155.5 -236.5t285.5 -214.5q18 -11 13 -18.5t-24.5 -11t-50.5 -2.5t-65 8q-45 18 -87 48.5t-82 66.5t-79 74.5t-79 73t-82 62t-87 41.5zM424 467v73 l508 474h93q0 -17 -17.5 -44t-45.5 -60t-64.5 -69.5t-75 -72.5t-76 -69t-67.5 -59t-50 -43t-23 -21q42 -124 155.5 -236.5t285.5 -214.5q18 -11 13 -18.5t-24.5 -11t-50.5 -2.5t-65 8q-45 18 -87 48.5t-82 66.5t-79 74.5t-79 73t-82 62t-87 41.5z" />
<glyph unicode="&#xac;" horiz-adv-x="1229" d="M96 643v180h1037v-610h-181v430h-856z" />
<glyph unicode="&#xad;" horiz-adv-x="953" d="M86 683q0 6 8 12.5t18 11.5q11 6 26 11q75 -3 161.5 4.5t174 18.5t171.5 20.5t156 9.5q53 0 73.5 -23t14.5 -83q-3 -20 -8 -30.5t-12.5 -15.5t-17.5 -6t-23 -1q-23 0 -45 5.5t-44 12.5t-45.5 12.5t-49.5 5.5q-59 0 -118.5 -8.5t-119.5 -18t-118.5 -18t-113.5 -8.5 q-46 0 -67 17.5t-21 70.5z" />
<glyph unicode="&#xae;" horiz-adv-x="666" d="M34 -337q-8 59 1 120.5t26.5 123.5t41 125t45.5 125.5t39.5 124.5t23.5 123l360 1005q12 26 18.5 65t15 84t22 92.5t38.5 90.5l14 2q19 2 28 -3.5t11 -16t-0.5 -24.5t-4.5 -28q-27 -177 -72 -351.5t-100.5 -346t-118 -338t-123.5 -327.5t-117 -315t-99 -299 q-8 -20 -19 -25t-30 -7zM291 1902q0 6 8 12.5t18 11.5q11 6 26 11q75 -3 161.5 4.5t174 18.5t171.5 20.5t156 9.5q53 0 73.5 -23t14.5 -83q-3 -20 -8 -30.5t-12.5 -15.5t-17.5 -6t-23 -1q-23 0 -45 5.5t-44 12.5t-45.5 12.5t-49.5 5.5q-59 0 -118.5 -8.5t-119.5 -18 t-118.5 -18t-113.5 -8.5q-46 0 -67 17.5t-21 70.5z" />
<glyph unicode="&#xaf;" horiz-adv-x="675" d="M43 271q3 36 21 97t46.5 133.5t66 149.5t78 146t82.5 123t81 80q6 -1 16.5 -9.5t20 -20t16.5 -23t7 -17.5l-1 -17l-1 -16l-197 -511q-1 -15 -2 -27q-1 -11 -1.5 -21.5t-0.5 -16.5q-3 -36 -4 -67.5t6.5 -55t29 -38t63.5 -17.5q143 -10 245 -15.5t178 -7.5t134 0.5 t113.5 9.5t116.5 18t143 27t192.5 37t265.5 47q-118 -13 -219.5 -39t-201 -56.5t-203.5 -60.5t-226.5 -51.5t-270 -30.5t-333.5 3q-48 3 -96.5 21.5t-86 50t-60 76t-18.5 99.5zM102 1674q0 6 8 12.5t18 11.5q11 6 26 11q75 -3 161.5 4.5t174 18.5t171.5 20.5t156 9.5 q53 0 73.5 -23t14.5 -83q-3 -20 -8 -30.5t-12.5 -15.5t-17.5 -6t-23 -1q-23 0 -45 5.5t-44 12.5t-45.5 12.5t-49.5 5.5q-59 0 -118.5 -8.5t-119.5 -18t-118.5 -18t-113.5 -8.5q-46 0 -67 17.5t-21 70.5z" />
<glyph unicode="&#xb0;" horiz-adv-x="819" d="M170 1217q0 130 65 196t186 66q49 0 100.5 -10t94 -32.5t69.5 -59t27 -89.5q0 -72 -23.5 -132.5t-64.5 -105t-98.5 -69.5t-124.5 -25q-64 0 -108 16.5t-71.5 49.5t-39.5 82t-12 113zM210 1187q0 -49 14.5 -82t43 -52.5t69.5 -28t94 -8.5q45 0 85 22t70.5 57t48 78 t17.5 85q0 49 -25 77t-63 42.5t-82 18t-81 3.5q-91 0 -141 -56.5t-50 -155.5z" />
<glyph unicode="&#xb1;" horiz-adv-x="1229" d="M33 631q0 30 21.5 47t57 26t81 11.5t92.5 2.5t92.5 -0.5t81 2t57 11t21.5 26.5v394q35 0 58 -18t37 -47t20.5 -65.5t9 -73t2 -70.5t-0.5 -57q65 0 130 5t129.5 10.5t129.5 10.5t130 5q0 -17 -13 -31.5t-30.5 -26.5t-36 -21t-30.5 -15q-16 -4 -45.5 -11.5t-66 -16.5 t-77 -19.5t-77 -19.5t-66.5 -16.5l-46 -11.5l-47 -62v-286q0 -18 -10.5 -32.5t-25 -25t-30.5 -16t-28 -5.5v396l-82.5 -16.5t-114.5 -21t-126.5 -18t-117.5 -7.5q-35 0 -57 14t-22 49zM138 254q0 6 8 12.5t18 11.5q11 6 26 11q50 -2 117.5 2.5t143 12.5t155 18.5t154 19.5 t140 15t113.5 6q53 0 73.5 -23t14.5 -83q-3 -20 -8 -30.5t-12.5 -15.5t-17.5 -6t-23 -1q-23 0 -70 2.5t-99 5t-100.5 5t-74.5 2.5q-59 0 -118.5 -8.5t-119.5 -18t-118.5 -18t-113.5 -8.5q-46 0 -67 17.5t-21 70.5z" />
<glyph unicode="&#xb2;" horiz-adv-x="739" d="M15 1219q0 38 30 69t76.5 55.5t103.5 42t111 29.5t99.5 17.5t68.5 5.5q38 0 60.5 -24t22.5 -68q0 -26 -4 -55.5t-29 -54.5l-193 -176l379 108h42q3 0 11.5 1t18 0t18 -4.5t11.5 -13.5q-14 -6 -51 -23.5t-88.5 -42t-113 -54t-124.5 -58.5t-123.5 -56t-110.5 -47 t-84.5 -30.5t-45.5 -7.5q-35 11 -35 50q0 19 20 39t46.5 38.5t51.5 33.5t35 25l269 269q13 13 15 25t2 25q0 16 -4.5 23t-12.5 9.5t-19 2t-23 -0.5q-23 0 -55 -4t-66.5 -12.5t-70 -21.5t-66 -30t-54 -38t-33.5 -46q0 -7 4.5 -20.5t12.5 -13.5q0 -3 -4 -6t-10 -5.5t-12 -4 t-9 -1.5q-9 0 -20.5 3t-22 9.5t-17.5 16t-7 22.5z" />
<glyph unicode="&#xb3;" horiz-adv-x="1037" d="M52 182q0 59 14 127t35 140.5t46 146t47.5 143t39 131.5t20.5 112q7 14 13.5 21t13.5 10.5t14 4t14 0.5q26 0 44.5 -10.5t46.5 -23.5v-19.5t0.5 -26.5t0.5 -26.5v-19.5q0 -32 -12.5 -69.5t-31 -77.5t-40.5 -81t-40.5 -79.5t-30.5 -73t-12 -61.5q1 -14 1 -36v-36 q41 32 89 88t100 122.5t106.5 135t107.5 125.5t104 94t97 41q28 2 47 -17.5t31.5 -47.5t18.5 -58.5t8 -50.5q1 -8 -2 -50t-8.5 -108t-13.5 -150.5t-17 -176.5t-18.5 -187.5t-19.5 -183t-19 -162t-17 -126t-14.5 -74.5t-9.5 -7q-12 53 -18 123.5t-8.5 150t-2.5 164.5 t1.5 167.5t3 158t2 137t-1.5 105t-8 60.5l-11 132q-37 -22 -80 -64t-89 -96t-93.5 -115.5t-93.5 -122.5t-88.5 -117.5t-79 -99.5t-65 -68.5t-46.5 -25.5q-27 0 -42 6.5t-22.5 20t-9 34t-1.5 47.5zM524 1310.5q3 27.5 13 51t25 39.5t32 16q13 0 36.5 -4.5t47 -14.5t40.5 -26 t17 -38q0 -63 -33.5 -96.5t-95.5 -33.5q-34 0 -52.5 16t-25.5 39.5t-4 51z" />
<glyph unicode="&#xb4;" d="M76 1085q17 56 45.5 113t62.5 109t71.5 96.5t73 76.5t66 49.5t50.5 14.5q25 -14 34 -25t9 -33v-19q-16 -12 -54 -48.5t-85 -83.5t-97 -96.5t-90.5 -88t-65 -58.5t-20.5 -7z" />
<glyph unicode="&#xb5;" horiz-adv-x="1440" d="M69 163q-10 92 5 210t47.5 247t77.5 262.5t95.5 257.5t102.5 230.5t98 181.5q17 11 26.5 19t26.5 10q9 1 17.5 -1t18.5 -19q5 -75 10 -109.5t8 -43t1.5 1.5t-9.5 24.5t-24 26t-43 5.5q-38 -66 -83 -161t-89.5 -205.5t-85 -229.5t-69.5 -233t-43 -217t-6 -181 q2 -21 4.5 -35.5t8.5 -23.5t18 -12t33 -1q127 13 232.5 70t195 142.5t166 193t147 222.5t137.5 230t138 215.5t148.5 180t167.5 122.5q-7 -14 -4 -17t9.5 -4.5t13.5 -4.5t9 -16q0 -4 -1 -12t-3.5 -15.5t-6 -13.5t-7.5 -6q-48 -79 -113 -177.5t-133.5 -209.5t-134 -231.5 t-114 -242.5t-73.5 -243t-13 -232q7 -65 38.5 -112.5t80.5 -81t111 -54.5t129.5 -32.5t137.5 -15t134 -2.5t118.5 5t92.5 8q117 12 233 31.5t232 40.5t232.5 40t233.5 31q13 1 44.5 4.5t67 7.5t67 7t44.5 5q0 -2 -46.5 -14t-124 -30t-179 -40.5t-210 -46t-217.5 -46.5 t-202.5 -41.5t-164 -31.5t-101.5 -16q-73 -8 -160.5 -8.5t-177.5 11t-176.5 37.5t-156 72.5t-116 116t-56.5 167.5q-5 51 2.5 106t21.5 110.5t32.5 109.5t34.5 102l-23 -2q-77 -76 -165 -148t-182.5 -138t-192.5 -126t-194 -112q-35 9 -61.5 18t-44.5 23t-29 35.5t-14 54.5z M646 1886q0 6 8 12.5t18 11.5q11 6 26 11q75 -3 161.5 4.5t174 18.5t171.5 20.5t156 9.5q53 0 73.5 -23t14.5 -83q-3 -20 -8 -30.5t-12.5 -15.5t-17.5 -6t-23 -1q-23 0 -45 5.5t-44 12.5t-45.5 12.5t-49.5 5.5q-59 0 -118.5 -8.5t-119.5 -18t-118.5 -18t-113.5 -8.5 q-46 0 -67 17.5t-21 70.5zM3029.5 6.5q-0.5 4.5 1.5 8.5t6 4t7 -3t3 -7.5t-2 -8.5t-6 -4t-6.5 3t-3 7.5z" />
<glyph unicode="&#xb6;" horiz-adv-x="1628" d="M120 237q0 58 5.5 138.5t19.5 166.5t37.5 170t59 151t84.5 108t114 41q19 0 44 -0.5t50 -2t47 -5t35 -9t14.5 -14t-14.5 -19.5q-77 -57 -133.5 -129t-88 -146.5t-35.5 -144.5t24 -121h26q93 -19 177 9.5t164 87t158 139t159.5 164.5t168.5 163.5t184 136.5v-858 q0 -65 39 -126t100 -114.5t135.5 -97.5t146.5 -76t132 -49.5t93 -17.5t123 -2.5t224.5 -3t307.5 5t372 21t418 44t444.5 75.5t451.5 114.5t441 161.5l-52 -52q-24 -24 -96.5 -53.5t-182.5 -62.5t-251.5 -68.5t-302 -70.5t-334 -69t-349 -65t-346 -56.5t-325 -44.5 t-286.5 -29.5t-229 -10.5q-176 0 -311.5 33.5t-236 96.5t-169.5 154.5t-111.5 206.5t-61 252.5t-18.5 293.5q-52 -73 -127 -145.5t-161.5 -139t-179 -123.5t-179 -99.5t-162 -66.5t-127.5 -24q-49 0 -75.5 10t-38.5 32t-14 56.5t-2 83.5zM406 1512q0 6 8 12.5t18 11.5 q11 6 26 11q75 -3 161.5 4.5t174 18.5t171.5 20.5t156 9.5q53 0 73.5 -23t14.5 -83q-3 -20 -8 -30.5t-12.5 -15.5t-17.5 -6t-23 -1q-23 0 -45 5.5t-44 12.5t-45.5 12.5t-49.5 5.5q-59 0 -118.5 -8.5t-119.5 -18t-118.5 -18t-113.5 -8.5q-46 0 -67 17.5t-21 70.5z" />
<glyph unicode="&#xb7;" horiz-adv-x="756" d="M-536 595q0 23 1 33.5t6.5 16t18 10t35.5 16.5q34 12 105.5 38t161.5 59.5t189 70.5t189 70.5t161.5 59.5t105.5 38q27 7 38 33t15 59.5t6 71t10 69t26.5 52t56.5 20.5q19 0 31 -15t18.5 -37.5t9.5 -49t3.5 -50.5t-0.5 -41t-1 -21q519 126 1050 237t1068 194t1077 131 t1076 48h15q-127 -21 -294.5 -37.5t-367 -34t-427.5 -38.5t-476 -51t-512 -72.5t-537 -101.5q-175 -34 -324.5 -63.5t-283.5 -57t-258.5 -55.5t-248.5 -60.5t-253.5 -72t-273.5 -88.5q-11 -6 -24.5 -11.5t-26.5 -13t-23.5 -16t-16.5 -20.5q-3 -11 -12 -59.5t-24 -119 t-35.5 -157.5t-46 -176t-56 -173t-65 -149t-73.5 -104.5t-82 -39.5q0 65 15.5 143.5t39.5 163t51 172.5t51 171.5t39.5 159.5t15.5 137h-61q-34 0 -82 -17.5t-104 -46.5t-118 -65.5t-124 -74t-121.5 -73.5t-111 -63.5t-93 -43t-67.5 -12.5q-23 6 -35.5 17t-18 25t-6.5 31 t-1 34zM-427 597q0 -6 3 -10.5t9 -4.5t8.5 4.5t2.5 10.5t-2.5 10.5t-8.5 4.5t-9 -4.5t-3 -10.5zM107 -314.5q3 27.5 13 51t25 39.5t32 16q13 0 36.5 -4.5t47 -14.5t40.5 -26t17 -38q0 -63 -33.5 -96.5t-95.5 -33.5q-34 0 -52.5 16t-25.5 39.5t-4 51zM4924 1695.5 q0 5.5 2.5 10.5t8.5 5t8.5 -5t2.5 -10.5t-2.5 -10.5t-8.5 -5t-8.5 5t-2.5 10.5z" />
<glyph unicode="&#xb8;" d="M113 -452q0 -16 28.5 -15t70 15t89 38t86 54t61 62.5t13.5 63.5v11q-31 0 -65.5 -9.5t-68.5 -20.5t-66.5 -18.5t-58.5 -2.5q-6 5 -10 9l-14 14v6q0 23 18 37.5t45.5 24.5t61.5 18.5t65.5 20t56.5 28.5t36 44q5 12 8 19.5t6 14.5t6 15t8 21q1 2 6.5 2t13 -0.5t14 -1 t8.5 -0.5q13 -5 12 -12.5t-1 -16.5q0 -17 -12 -37t-28 -38t-31.5 -32t-21.5 -21h93l6 -10q2 -5 4 -9.5t2 -8.5v-6v-6q0 -5 -6 -12t-6 -12q13 -25 -1.5 -59t-48 -69t-81 -66.5t-99.5 -51t-104 -23.5t-95 17v23z" />
<glyph unicode="&#xb9;" horiz-adv-x="1408" d="M85 216q0 30 0.5 53.5t4.5 46t12 46.5t23 54q7 7 33 37t65.5 73.5t89.5 97t106 108t116 106t117.5 91.5t111.5 64t99 24q15 0 30 -6.5t30 -14t30 -13.5t30 -6q48 0 96 34.5t95 93t92 134.5t87 159t79.5 167.5t69.5 159.5t57.5 134t43.5 92.5t27.5 34.5t8.5 -41 q-1 -58 -18.5 -134.5t-46 -164t-65.5 -181t-76 -184t-77 -174t-70 -151t-54.5 -114.5t-29.5 -65q-23 -38 -38 -66.5t-24 -54.5t-13 -54.5t-4 -65.5q0 -68 21 -107.5t58.5 -60t88.5 -26.5t111 -6q234 0 462.5 38.5t454.5 96.5t451.5 125.5t453.5 125.5t459.5 96.5t471.5 38.5 q-78 -4 -167.5 -16.5t-184 -31t-191 -40.5t-187 -45.5t-173 -46.5t-149.5 -43t-115 -35.5t-70 -22.5q-45 -15 -115.5 -42t-158.5 -60.5t-191 -72t-213.5 -76t-224.5 -71.5t-224.5 -60.5t-214.5 -42t-194 -15.5q-85 0 -147.5 13.5t-108.5 40t-78 66.5t-54.5 93.5t-39 120 t-31.5 146.5q-35 -35 -85 -90t-110 -117.5t-127 -125t-135 -113t-134.5 -82.5t-126.5 -32q-38 0 -61 13.5t-36.5 36t-18 51.5t-4.5 59zM265 336q50 0 112 29t127.5 75t129 103.5t115.5 115.5t88 110.5t46 87.5h-40q-35 0 -91 -27.5t-120.5 -72t-129.5 -101t-118 -114.5 t-86 -112t-33 -94zM883 -430.5q3 27.5 13 51t25 39.5t32 16q13 0 36.5 -4.5t47 -14.5t40.5 -26t17 -38q0 -63 -33.5 -96.5t-95.5 -33.5q-34 0 -52.5 16t-25.5 39.5t-4 51zM4234 857v40l40 -40h-40zM4354 857q15 30 32.5 35t47.5 5h40q-15 -30 -32.5 -35t-47.5 -5h-40z" />
<glyph unicode="&#xba;" horiz-adv-x="1075" d="M52 182q0 59 14 127t35 140.5t46 146t47.5 143t39 131.5t20.5 112q7 14 13.5 21t13.5 10.5t14 4t14 0.5q26 0 44.5 -10.5t46.5 -23.5v-19.5t0.5 -26.5t0.5 -26.5v-19.5q0 -32 -12.5 -69.5t-31 -77.5t-40.5 -81t-40.5 -79.5t-30.5 -73t-12 -61.5q1 -14 1 -36v-36 q41 32 89 88t100 122.5t106.5 135t107.5 125.5t104 94t97 41q28 2 47 -17.5t31.5 -47.5t18.5 -58.5t8 -50.5q1 -8 -2 -50t-8.5 -108t-13.5 -150.5t-17 -176.5t-18.5 -187.5t-19.5 -183t-19 -162t-17 -126t-14.5 -74.5t-9.5 -7q-12 53 -18 123.5t-8.5 150t-2.5 164.5 t1.5 167.5t3 158t2 137t-1.5 105t-8 60.5l-11 132q-37 -22 -80 -64t-89 -96t-93.5 -115.5t-93.5 -122.5t-88.5 -117.5t-79 -99.5t-65 -68.5t-46.5 -25.5q-27 0 -42 6.5t-22.5 20t-9 34t-1.5 47.5zM477 -463.5q3 27.5 13 51t25 39.5t32 16q13 0 36.5 -4.5t47 -14.5t40.5 -26 t17 -38q0 -63 -33.5 -96.5t-95.5 -33.5q-34 0 -52.5 16t-25.5 39.5t-4 51z" />
<glyph unicode="&#xbb;" horiz-adv-x="1139" d="M85.5 76q-4.5 8 13.5 19q174 103 289.5 217.5t157.5 239.5q-5 5 -38 33t-80 70t-101 91.5t-100 97.5t-76 88.5t-30 63.5h94l515 -481v-74q-46 -14 -88.5 -41.5t-83 -63t-80 -74.5t-80 -75.5t-83 -67.5t-88.5 -49q-35 -7 -66 -8t-51 2.5t-24.5 11.5zM442.5 76 q-4.5 8 13.5 19q174 103 289.5 217.5t157.5 239.5q-5 5 -38 33t-80.5 70t-101 91.5t-99.5 97.5t-76 88.5t-30 63.5h94l515 -481v-74q-46 -14 -88.5 -41.5t-83 -63t-80 -74.5t-80 -75.5t-83 -67.5t-88.5 -49q-35 -7 -66 -8t-51 2.5t-24.5 11.5z" />
<glyph unicode="&#xbc;" horiz-adv-x="1452" d="M-64 830q0 25 46 67t125 94.5t185.5 113t228 124t251.5 127t256.5 121.5t243.5 108.5t211.5 87.5t160.5 58.5t92 21.5q14 0 23.5 -1t15 -5.5t8 -14.5t2.5 -28q0 -9 -7.5 -16.5t-16.5 -7.5q-149 -24 -300 -70.5t-301 -108.5t-296.5 -138t-286 -160t-270.5 -172.5 t-249 -176.5q9 -18 28 -28t41.5 -14.5t46.5 -5.5t42 -1q114 0 230 11.5t232 25t232 25t230 11.5q46 0 87.5 -4t73.5 -19t51 -44t19 -79q0 -82 -36 -147t-110 -120l-1046 -826q-27 -36 -63.5 -60.5t-81.5 -24.5v61q22 16 70 50.5t114.5 83t147 107.5t167.5 125t175.5 136.5 t171 140t154.5 137t125 127.5t84 111t31 87q0 21 -13.5 34t-35 19.5t-47 8.5t-50 2t-44.5 -1.5t-29 -1.5q-105 0 -208 -11.5t-205.5 -25t-205.5 -25t-208 -11.5h-146q-18 4 -43 15.5t-48 27.5t-39 36t-16 43zM795 1602q17 56 45.5 113t62.5 109t71.5 96.5t73 76.5t66 49.5 t50.5 14.5q25 -14 34 -25t9 -33v-19q-16 -12 -54 -48.5t-85 -83.5t-97 -96.5t-90.5 -88t-65 -58.5t-20.5 -7zM1566 1486l24 48v-12q0 -9 -3 -18t-21 -18z" />
<glyph unicode="&#xbd;" horiz-adv-x="842" d="M-569 -551q37 43 99.5 96.5t141.5 113.5t170 124.5t184 128.5t183 125.5t167.5 116t138 99t93.5 75.5v29q0 22 -20.5 38t-54 28t-76 23t-87.5 23.5t-87.5 28.5t-76 39.5t-54 55.5t-20.5 77q0 41 17.5 84.5t46.5 85t68 78.5t82 65t87.5 44t85.5 16q22 0 41.5 -10t33 -25.5 t21.5 -34t8 -34.5q-56 0 -121 -12.5t-121 -42t-93 -78t-37 -121.5q0 -45 23 -72t60.5 -43.5t86 -24.5t98.5 -14.5t98.5 -14t86 -22t60.5 -40t23 -67.5q0 -48 -16 -82t-41.5 -59t-58 -44.5t-65.5 -40t-64 -44.5t-53 -57l-506 -269l-30 -29q-15 -11 -54.5 -38.5t-91 -62.5 t-110 -72.5t-111.5 -68.5t-95 -51t-60 -20zM290 1171q17 56 45.5 113t62.5 109t71.5 96.5t73 76.5t66 49.5t50.5 14.5q25 -14 34 -25t9 -33v-19q-16 -12 -54 -48.5t-85 -83.5t-97 -96.5t-90.5 -88t-65 -58.5t-20.5 -7z" />
<glyph unicode="&#xbe;" horiz-adv-x="1433" d="M-64 830q0 25 46 67t125 94.5t185.5 113t228 124t251.5 127t256.5 121.5t243.5 108.5t211.5 87.5t160.5 58.5t92 21.5q14 0 23.5 -1t15 -5.5t8 -14.5t2.5 -28q0 -9 -7.5 -16.5t-16.5 -7.5q-149 -24 -300 -70.5t-301 -108.5t-296.5 -138t-286 -160t-270.5 -172.5 t-249 -176.5q9 -18 28 -28t41.5 -14.5t46.5 -5.5t42 -1q114 0 230 11.5t232 25t232 25t230 11.5q46 0 87.5 -4t73.5 -19t51 -44t19 -79q0 -82 -36 -147t-110 -120l-1046 -826q-27 -36 -63.5 -60.5t-81.5 -24.5v61q22 16 70 50.5t114.5 83t147 107.5t167.5 125t175.5 136.5 t171 140t154.5 137t125 127.5t84 111t31 87q0 21 -13.5 34t-35 19.5t-47 8.5t-50 2t-44.5 -1.5t-29 -1.5q-105 0 -208 -11.5t-205.5 -25t-205.5 -25t-208 -11.5h-146q-18 4 -43 15.5t-48 27.5t-39 36t-16 43zM550 -462.5q3 27.5 13 51t25 39.5t32 16q13 0 36.5 -4.5 t47 -14.5t40.5 -26t17 -38q0 -63 -33.5 -96.5t-95.5 -33.5q-34 0 -52.5 16t-25.5 39.5t-4 51zM1566 1486l24 48v-12q0 -9 -3 -18t-21 -18z" />
<glyph unicode="&#xbf;" horiz-adv-x="812" d="M-569 -551q37 43 99.5 96.5t141.5 113.5t170 124.5t184 128.5t183 125.5t167.5 116t138 99t93.5 75.5v29q0 22 -20.5 38t-54 28t-76 23t-87.5 23.5t-87.5 28.5t-76 39.5t-54 55.5t-20.5 77q0 41 17.5 84.5t46.5 85t68 78.5t82 65t87.5 44t85.5 16q22 0 41.5 -10t33 -25.5 t21.5 -34t8 -34.5q-56 0 -121 -12.5t-121 -42t-93 -78t-37 -121.5q0 -45 23 -72t60.5 -43.5t86 -24.5t98.5 -14.5t98.5 -14t86 -22t60.5 -40t23 -67.5q0 -48 -16 -82t-41.5 -59t-58 -44.5t-65.5 -40t-64 -44.5t-53 -57l-506 -269l-30 -29q-15 -11 -54.5 -38.5t-91 -62.5 t-110 -72.5t-111.5 -68.5t-95 -51t-60 -20zM248 -430.5q3 27.5 13 51t25 39.5t32 16q13 0 36.5 -4.5t47 -14.5t40.5 -26t17 -38q0 -63 -33.5 -96.5t-95.5 -33.5q-34 0 -52.5 16t-25.5 39.5t-4 51z" />
<glyph unicode="&#xc0;" horiz-adv-x="1480" d="M-222 185q3 15 6 27q2 11 4.5 21t2.5 15q6 22 29.5 36.5t56.5 24t71.5 16.5t75.5 13.5t68.5 14.5t50.5 21q45 40 112.5 113.5t148.5 166t169.5 197.5t176 208.5t168 198.5t145 167.5t107.5 116t55 43.5q29 0 39 -17.5t10 -45.5v-38q-6 -22 -21.5 -70.5t-35.5 -110 t-42.5 -130t-43 -131.5t-36 -113.5t-21.5 -75.5q-5 -24 -9.5 -39.5t-8.5 -28t-6 -26t-2 -32.5v-26l856 253q175 30 341 65.5t326 66t316 50.5t312 20h63l-25 -25q-52 -52 -149.5 -84t-225.5 -52.5t-279.5 -33t-312.5 -26t-323.5 -33t-312.5 -52t-280.5 -83.5t-227 -128.5 t-151 -185.5t-53.5 -256q10 0 23 -0.5t25 -4t20.5 -11t8.5 -21.5q0 -19 -6.5 -39.5t-17.5 -39.5t-25 -35t-28 -25q-38 14 -62 23.5t-37.5 24t-19 38t-5.5 65.5q0 47 11.5 92.5t26 89t26 86.5t11.5 85v26q-125 -47 -217 -80.5t-161 -59.5t-119.5 -48t-92.5 -47.5t-80 -57.5 t-82 -78t-99 -109t-130 -151q-10 -10 -16 -17t-13 -11.5t-17.5 -7t-28.5 -2.5v88l150 215h-189zM369 449l529 177q19 7 41 49t44.5 105t43 138t37 147t26 133t9.5 96v13q-21 -19 -63.5 -58.5t-98 -93t-119 -116.5t-127 -129t-121.5 -132t-103 -123.5t-71.5 -104.5t-26.5 -75 v-26zM1085 2013q56 0 106 -25t93.5 -63t81 -82t68.5 -81v-34q0 -25 -12.5 -46t-37.5 -21q-29 0 -62.5 19t-66.5 50t-64 69.5t-54.5 77.5t-37.5 75t-14 61zM3312 1156v25q39 4 77 8q32 4 66.5 8t58.5 9h12h13l-25 -25zM3589 1181q9 19 20 22t31 3h24zM3705 1206q0 5 2.5 9 t7.5 4q4 0 6.5 -4t2.5 -9t-2.5 -9t-6.5 -4q-5 0 -7.5 4t-2.5 9zM3866 1232q0 4 4 6.5t8.5 2.5t8.5 -2.5t4 -6.5q0 -5 -4 -7.5t-8.5 -2.5t-8.5 2.5t-4 7.5zM3941 1232q-5 4 12 6.5t38 2.5t38 -2.5t12 -6.5q-5 -5 -19 -7.5t-30.5 -2.5t-31 2.5t-19.5 7.5zM4117 1232q0 4 4 6.5 t8.5 2.5t8.5 -2.5t4 -6.5q0 -5 -4 -7.5t-8.5 -2.5t-8.5 2.5t-4 7.5z" />
<glyph unicode="&#xc1;" horiz-adv-x="808" d="M90.5 256.5q2.5 51.5 11.5 98.5q5 20 10 39.5t12.5 37t18.5 32.5t28 26l116 565q2 14 12.5 20t22.5 6.5t23.5 -1.5t16.5 -5q36 -7 53.5 -28.5t21.5 -51t-1.5 -65t-14.5 -70.5t-19 -66.5t-14 -53.5q36 -7 85.5 5.5t105.5 37.5t114 59t110 69t94 68t66 56q144 57 270 103 t239.5 83.5t219.5 67t210.5 54t211.5 44.5t223.5 38t246 34.5t279.5 33.5l37 -17q-62 -3 -167.5 -18t-241.5 -41.5t-295 -64.5t-328 -87t-340.5 -108.5t-332 -129t-303.5 -148.5t-255 -168t-185.5 -186.5t-95.5 -203.5q-3 -20 3.5 -44.5t15 -48.5t15 -45t2.5 -33 q-11 -68 -47.5 -99.5t-103.5 -17.5q-60 12 -93 46t-46.5 80t-11 97.5zM117 -386.5q3 27.5 13 51t25 39.5t32 16q13 0 36.5 -4.5t47 -14.5t40.5 -26t17 -38q0 -63 -33.5 -96.5t-95.5 -33.5q-34 0 -52.5 16t-25.5 39.5t-4 51zM2913 1509q121 23 231.5 38t213 21.5t199.5 4 t191 -14.5q15 -2 38 -5t36 -5q-123 0 -251.5 -4t-248.5 -12.5t-224 -22.5t-178 -33zM3935 1570q-6 8 7.5 9.5t30.5 -0.5t29.5 -7.5t4.5 -12.5q-15 -9 -37 -7t-35 18zM4084 1586q1 7 7 9.5t12.5 2t11.5 -5t4 -10.5t-6.5 -8.5t-12.5 -2t-12 4.5t-4 10zM4193 1572q-5 5 3 7 t21.5 2t30 -2t30 -5.5t20.5 -7t2 -7.5q-8 -6 -23.5 -7.5t-32 1t-31 7.5t-20.5 12zM4435.5 1578.5q0.5 6.5 4.5 11.5t12 3q6 0 9 -6.5t2 -13t-4.5 -12t-10.5 -3.5q-7 1 -10 7.5t-2.5 13z" />
<glyph unicode="&#xc2;" horiz-adv-x="1779" d="M135 159q0 76 12 148.5t29.5 143.5t37.5 142.5t35.5 144.5t23.5 149t2 158q9 9 29 25t41.5 31t41 26.5t28.5 11.5t25 -11.5t31 -26.5t26.5 -31t11.5 -25v-466q43 26 90.5 66t95.5 77t95.5 63.5t91.5 26.5q35 0 59.5 -22t46 -48t45.5 -48t59 -22q58 0 102.5 24t81.5 60.5 t70 79t68 79t75.5 60.5t93.5 24q26 0 48 -12t39.5 -31.5t30.5 -45t22 -51.5q-70 -140 -144.5 -299t-136 -327.5t-101 -341t-39.5 -338.5v-186l47 -93q0 -26 -8 -44t-21 -29t-30 -16t-34 -5h-47q-6 17 -15 57t-19.5 91.5t-21 108t-18.5 108t-13.5 91t-5.5 57.5q0 96 22 189 t48 184.5t48 184t22 188.5q-26 0 -58.5 -14t-67 -37t-69.5 -52.5t-68 -59.5q-77 -72 -157 -163h-24q-26 0 -51.5 19t-47.5 47.5t-38.5 61t-25.5 58.5l-327 -279h-23q-26 0 -55 12t-53 31.5t-40 44.5t-16 51zM781 -381.5q3 27.5 13 51t25 39.5t32 16q13 0 36.5 -4.5t47 -14.5 t40.5 -26t17 -38q0 -63 -33.5 -96.5t-95.5 -33.5q-34 0 -52.5 16t-25.5 39.5t-4 51z" />
<glyph unicode="&#xc3;" horiz-adv-x="1327" d="M-222 185q3 15 6 27q2 11 4.5 21t2.5 15q6 22 29.5 36.5t56.5 24t71.5 16.5t75.5 13.5t68.5 14.5t50.5 21q45 40 112.5 113.5t148.5 166t169.5 197.5t176 208.5t168 198.5t145 167.5t107.5 116t55 43.5q29 0 39 -17.5t10 -45.5v-38q-6 -22 -21.5 -70.5t-35.5 -110 t-42.5 -130t-43 -131.5t-36 -113.5t-21.5 -75.5q-5 -24 -9.5 -39.5t-8.5 -28t-6 -26t-2 -32.5v-26l856 253q175 30 341 65.5t326 66t316 50.5t312 20h63l-25 -25q-52 -52 -149.5 -84t-225.5 -52.5t-279.5 -33t-312.5 -26t-323.5 -33t-312.5 -52t-280.5 -83.5t-227 -128.5 t-151 -185.5t-53.5 -256q10 0 23 -0.5t25 -4t20.5 -11t8.5 -21.5q0 -19 -6.5 -39.5t-17.5 -39.5t-25 -35t-28 -25q-38 14 -62 23.5t-37.5 24t-19 38t-5.5 65.5q0 47 11.5 92.5t26 89t26 86.5t11.5 85v26q-125 -47 -217 -80.5t-161 -59.5t-119.5 -48t-92.5 -47.5t-80 -57.5 t-82 -78t-99 -109t-130 -151q-10 -10 -16 -17t-13 -11.5t-17.5 -7t-28.5 -2.5v88l150 215h-189zM369 449l529 177q19 7 41 49t44.5 105t43 138t37 147t26 133t9.5 96v13q-21 -19 -63.5 -58.5t-98 -93t-119 -116.5t-127 -129t-121.5 -132t-103 -123.5t-71.5 -104.5t-26.5 -75 v-26zM996 1632q0 51 9.5 95t31.5 76.5t59 50.5t92 18q46 0 78.5 -19.5t60 -43.5t55 -43.5t65.5 -19.5q23 0 35.5 9.5t20 23.5t12.5 30t12.5 30t20 23.5t35.5 9.5q12 0 17 -7t6 -17t0 -19.5t-1 -13.5q0 -30 -10 -60.5t-28 -55.5t-42.5 -40.5t-54.5 -15.5q-34 0 -57.5 13.5 t-41.5 34t-31.5 44.5t-27 44.5t-30 34t-38.5 13.5q-45 0 -73 -14.5t-46.5 -36t-30 -47t-24 -47t-29.5 -36t-45 -14.5zM3312 1156v25q39 4 77 8q32 4 66.5 8t58.5 9h12h13l-25 -25zM3589 1181q9 19 20 22t31 3h24zM3705 1206q0 5 2.5 9t7.5 4q4 0 6.5 -4t2.5 -9t-2.5 -9 t-6.5 -4q-5 0 -7.5 4t-2.5 9zM3866 1232q0 4 4 6.5t8.5 2.5t8.5 -2.5t4 -6.5q0 -5 -4 -7.5t-8.5 -2.5t-8.5 2.5t-4 7.5zM3941 1232q-5 4 12 6.5t38 2.5t38 -2.5t12 -6.5q-5 -5 -19 -7.5t-30.5 -2.5t-31 2.5t-19.5 7.5zM4117 1232q0 4 4 6.5t8.5 2.5t8.5 -2.5t4 -6.5 q0 -5 -4 -7.5t-8.5 -2.5t-8.5 2.5t-4 7.5z" />
<glyph unicode="&#xc4;" horiz-adv-x="1383" d="M-222 185q3 15 6 27q2 11 4.5 21t2.5 15q6 22 29.5 36.5t56.5 24t71.5 16.5t75.5 13.5t68.5 14.5t50.5 21q45 40 112.5 113.5t148.5 166t169.5 197.5t176 208.5t168 198.5t145 167.5t107.5 116t55 43.5q29 0 39 -17.5t10 -45.5v-38q-6 -22 -21.5 -70.5t-35.5 -110 t-42.5 -130t-43 -131.5t-36 -113.5t-21.5 -75.5q-5 -24 -9.5 -39.5t-8.5 -28t-6 -26t-2 -32.5v-26l856 253q175 30 341 65.5t326 66t316 50.5t312 20h63l-25 -25q-52 -52 -149.5 -84t-225.5 -52.5t-279.5 -33t-312.5 -26t-323.5 -33t-312.5 -52t-280.5 -83.5t-227 -128.5 t-151 -185.5t-53.5 -256q10 0 23 -0.5t25 -4t20.5 -11t8.5 -21.5q0 -19 -6.5 -39.5t-17.5 -39.5t-25 -35t-28 -25q-38 14 -62 23.5t-37.5 24t-19 38t-5.5 65.5q0 47 11.5 92.5t26 89t26 86.5t11.5 85v26q-125 -47 -217 -80.5t-161 -59.5t-119.5 -48t-92.5 -47.5t-80 -57.5 t-82 -78t-99 -109t-130 -151q-10 -10 -16 -17t-13 -11.5t-17.5 -7t-28.5 -2.5v88l150 215h-189zM369 449l529 177q19 7 41 49t44.5 105t43 138t37 147t26 133t9.5 96v13q-21 -19 -63.5 -58.5t-98 -93t-119 -116.5t-127 -129t-121.5 -132t-103 -123.5t-71.5 -104.5t-26.5 -75 v-26zM1008 1804.5q3 27.5 13 51t25 39.5t32 16q13 0 36.5 -4.5t47 -14.5t40.5 -26t17 -38q0 -63 -33.5 -96.5t-95.5 -33.5q-34 0 -52.5 16t-25.5 39.5t-4 51zM1331 1805.5q3 27.5 13 51t25 39.5t32 16q13 0 36.5 -4.5t47 -14.5t40.5 -26t17 -38q0 -63 -33.5 -96.5 t-95.5 -33.5q-34 0 -52.5 16t-25.5 39.5t-4 51zM3312 1156v25q39 4 77 8q32 4 66.5 8t58.5 9h12h13l-25 -25zM3589 1181q9 19 20 22t31 3h24zM3705 1206q0 5 2.5 9t7.5 4q4 0 6.5 -4t2.5 -9t-2.5 -9t-6.5 -4q-5 0 -7.5 4t-2.5 9zM3866 1232q0 4 4 6.5t8.5 2.5t8.5 -2.5 t4 -6.5q0 -5 -4 -7.5t-8.5 -2.5t-8.5 2.5t-4 7.5zM3941 1232q-5 4 12 6.5t38 2.5t38 -2.5t12 -6.5q-5 -5 -19 -7.5t-30.5 -2.5t-31 2.5t-19.5 7.5zM4117 1232q0 4 4 6.5t8.5 2.5t8.5 -2.5t4 -6.5q0 -5 -4 -7.5t-8.5 -2.5t-8.5 2.5t-4 7.5z" />
<glyph unicode="&#xc5;" horiz-adv-x="1933" d="M101 91v40q8 17 27 70t45.5 129.5t59.5 171.5t69 197t73.5 205.5t73.5 196t68.5 169.5t58.5 126q8 20 23 36.5t31 16.5q32 0 57 -29.5t44.5 -79t34.5 -113t28.5 -132.5t26 -137t26.5 -126t31.5 -100.5t39.5 -59.5q57 63 104.5 130t90 137.5t83.5 142.5t85 143t93 141 t109 136h22q24 0 37 -11.5t19 -30t7 -42t1 -48.5q0 -183 0.5 -367t-5 -366t-19.5 -360.5t-42 -351.5q8 -60 1.5 -118.5t-23.5 -118.5q-12 15 -17 39.5t-5.5 50.5t0.5 48.5t1 32.5v364t0.5 335.5t0.5 330.5v349v53q-36 -25 -71 -72.5t-68.5 -108.5t-66 -131t-64.5 -139 t-64 -132.5t-64.5 -112.5t-66 -78t-67.5 -29q-47 0 -79 29t-54.5 77t-37 110.5t-25 129t-20 132.5t-21.5 121.5t-29.5 95.5t-43.5 55q-10 -32 -32 -102.5t-51.5 -163.5t-65 -201t-72.5 -216.5t-74.5 -208.5t-71.5 -177.5t-62 -123.5t-46 -46q-16 0 -25 9t-13 22.5t-4.5 29.5 t-0.5 31zM1062 1701.5q3 27.5 13 51t25 39.5t32 16q13 0 36.5 -4.5t47 -14.5t40.5 -26t17 -38q0 -63 -33.5 -96.5t-95.5 -33.5q-34 0 -52.5 16t-25.5 39.5t-4 51zM2209 -1187q0 5 2 9t6 4t6 -4t2 -9t-2 -9t-6 -4t-6 4t-2 9z" />
<glyph unicode="&#xc6;" horiz-adv-x="1788" d="M135 159q0 76 12 148.5t29.5 143.5t37.5 142.5t35.5 144.5t23.5 149t2 158q9 9 29 25t41.5 31t41 26.5t28.5 11.5t25 -11.5t31 -26.5t26.5 -31t11.5 -25v-466q43 26 90.5 66t95.5 77t95.5 63.5t91.5 26.5q35 0 59.5 -22t46 -48t45.5 -48t59 -22q58 0 102.5 24t81.5 60.5 t70 79t68 79t75.5 60.5t93.5 24q26 0 48 -12t39.5 -31.5t30.5 -45t22 -51.5q-70 -140 -144.5 -299t-136 -327.5t-101 -341t-39.5 -338.5v-186l47 -93q0 -26 -8 -44t-21 -29t-30 -16t-34 -5h-47q-6 17 -15 57t-19.5 91.5t-21 108t-18.5 108t-13.5 91t-5.5 57.5q0 96 22 189 t48 184.5t48 184t22 188.5q-26 0 -58.5 -14t-67 -37t-69.5 -52.5t-68 -59.5q-77 -72 -157 -163h-24q-26 0 -51.5 19t-47.5 47.5t-38.5 61t-25.5 58.5l-327 -279h-23q-26 0 -55 12t-53 31.5t-40 44.5t-16 51zM825 1251.5q3 27.5 13 51t25 39.5t32 16q13 0 36.5 -4.5t47 -14.5 t40.5 -26t17 -38q0 -63 -33.5 -96.5t-95.5 -33.5q-34 0 -52.5 16t-25.5 39.5t-4 51z" />
<glyph unicode="&#xc7;" horiz-adv-x="1251" d="M57 167l2 -12q1 -5 2 -12t3 -15q4 -25 14 -48.5t23 -42t26.5 -30.5t25.5 -14t21 7.5t11 34.5q7 75 22 153t42 153t68 144t100 125.5t138 97t183 58.5q29 5 49 1t33.5 -16.5t22 -34t13.5 -51.5q11 -64 18.5 -115.5t9.5 -98.5t-1.5 -93.5t-14.5 -101t-29.5 -120 t-45.5 -150.5q59 10 104 50.5t77.5 99t53 129.5t30.5 142.5t10.5 137.5t-8.5 115q-6 34 -17.5 76t-29 84t-42 80.5t-56 66t-71.5 40.5t-89 4q-66 -12 -111 -29.5t-81 -45t-69.5 -66.5t-76.5 -92l44 152q14 47 42.5 120t66 163.5t81 195t86.5 216t83 225.5t70.5 223.5 t49 210.5t18.5 186zM676 -358.5q3 27.5 13 51t25 39.5t32 16q13 0 36.5 -4.5t47 -14.5t40.5 -26t17 -38q0 -63 -33.5 -96.5t-95.5 -33.5q-34 0 -52.5 16t-25.5 39.5t-4 51zM2198 2683v35h27q-7 -5 -10 -10t-5.5 -9.5t-4.5 -8.5t-7 -7zM2527 2656q0 3 4 3t4 -3t-4 -3t-4 3z M2558 2589.5q0 4.5 3 4.5q4 0 4 -4.5t-4 -4.5q-3 0 -3 4.5z" />
<glyph unicode="&#xc8;" horiz-adv-x="1139" d="M-27 664q2 26 11 40t24.5 23t37 16.5t49.5 20.5q17 8 54 25t78 35t77.5 32.5t52.5 18.5q-2 31 5 62t17 61.5t20 60.5t13 61q0 10 2.5 27t3.5 28q-65 -14 -101 -58t-43 -107q-21 2 -37.5 13.5t-27.5 28t-16 36.5t-2 41q0 3 17 17.5t44.5 36.5t62.5 49.5t72 55.5 q86 66 197 148q5 0 13.5 -7.5t17 -17t14 -19.5t4.5 -15q97 28 204.5 62.5t220.5 69t230 65.5t233 52t229.5 29.5t220.5 -2.5l-5 -54l-592 -77q-74 -34 -148 -57t-145.5 -41t-138 -35t-125.5 -39.5t-109.5 -54t-89.5 -79.5t-64.5 -115t-35.5 -160l14 -2q18 5 72 23t130 41.5 t166.5 48t181 44t174 29.5t145.5 3q-3 -23 -39 -47t-95 -47.5t-134.5 -46.5t-157 -44.5t-162.5 -41.5t-151 -37t-122.5 -31.5t-77.5 -24.5q-44 -69 -72 -144t-45.5 -154.5t-27.5 -161.5t-19 -165q13 -2 37 2t53.5 11.5t60.5 16t59.5 17t51 15t33.5 8.5q174 56 352 124.5 t359 143t365 151.5t370.5 150.5t375 140t379.5 119.5q32 9 75 21t91.5 25.5t100 27t99.5 25.5q114 29 237 60q-122 -30 -268.5 -77t-307 -106t-329.5 -125.5t-334 -135t-321.5 -136t-292.5 -127.5t-246 -109.5t-183 -81.5q-100 -57 -212 -105.5t-229 -90t-235.5 -78.5 t-232.5 -71l-12 1q-20 2 -33.5 13t-33.5 22q1 5 2.5 14t2 19.5t1.5 20t1 15.5q7 67 27.5 133t43.5 131.5t43 131.5t27 134q0 5 2 21t4 34t4 34t2 21q-11 -4 -35.5 -17.5t-52 -29t-52.5 -29t-36 -18.5q-28 -12 -37.5 -22t-14.5 -16t-11.5 -8t-27.5 0q-30 4 -40.5 16.5 t-6.5 44.5zM345 1850q56 0 106 -25t93.5 -63t81 -82t68.5 -81v-34q0 -25 -12.5 -46t-37.5 -21q-29 0 -62.5 19t-66.5 50t-64 69.5t-54.5 77.5t-37.5 75t-14 61z" />
<glyph unicode="&#xc9;" horiz-adv-x="1139" d="M-27 664q2 26 11 40t24.5 23t37 16.5t49.5 20.5q17 8 54 25t78 35t77.5 32.5t52.5 18.5q-2 31 5 62t17 61.5t20 60.5t13 61q0 10 2.5 27t3.5 28q-65 -14 -101 -58t-43 -107q-21 2 -37.5 13.5t-27.5 28t-16 36.5t-2 41q0 3 17 17.5t44.5 36.5t62.5 49.5t72 55.5 q86 66 197 148q5 0 13.5 -7.5t17 -17t14 -19.5t4.5 -15q97 28 204.5 62.5t220.5 69t230 65.5t233 52t229.5 29.5t220.5 -2.5l-5 -54l-592 -77q-74 -34 -148 -57t-145.5 -41t-138 -35t-125.5 -39.5t-109.5 -54t-89.5 -79.5t-64.5 -115t-35.5 -160l14 -2q18 5 72 23t130 41.5 t166.5 48t181 44t174 29.5t145.5 3q-3 -23 -39 -47t-95 -47.5t-134.5 -46.5t-157 -44.5t-162.5 -41.5t-151 -37t-122.5 -31.5t-77.5 -24.5q-44 -69 -72 -144t-45.5 -154.5t-27.5 -161.5t-19 -165q13 -2 37 2t53.5 11.5t60.5 16t59.5 17t51 15t33.5 8.5q174 56 352 124.5 t359 143t365 151.5t370.5 150.5t375 140t379.5 119.5q32 9 75 21t91.5 25.5t100 27t99.5 25.5q114 29 237 60q-122 -30 -268.5 -77t-307 -106t-329.5 -125.5t-334 -135t-321.5 -136t-292.5 -127.5t-246 -109.5t-183 -81.5q-100 -57 -212 -105.5t-229 -90t-235.5 -78.5 t-232.5 -71l-12 1q-20 2 -33.5 13t-33.5 22q1 5 2.5 14t2 19.5t1.5 20t1 15.5q7 67 27.5 133t43.5 131.5t43 131.5t27 134q0 5 2 21t4 34t4 34t2 21q-11 -4 -35.5 -17.5t-52 -29t-52.5 -29t-36 -18.5q-28 -12 -37.5 -22t-14.5 -16t-11.5 -8t-27.5 0q-30 4 -40.5 16.5 t-6.5 44.5zM289 1459q17 56 45.5 113t62.5 109t71.5 96.5t73 76.5t66 49.5t50.5 14.5q25 -14 34 -25t9 -33v-19q-16 -12 -54 -48.5t-85 -83.5t-97 -96.5t-90.5 -88t-65 -58.5t-20.5 -7z" />
<glyph unicode="&#xca;" horiz-adv-x="1139" d="M-27 664q2 26 11 40t24.5 23t37 16.5t49.5 20.5q17 8 54 25t78 35t77.5 32.5t52.5 18.5q-2 31 5 62t17 61.5t20 60.5t13 61q0 10 2.5 27t3.5 28q-65 -14 -101 -58t-43 -107q-21 2 -37.5 13.5t-27.5 28t-16 36.5t-2 41q0 3 17 17.5t44.5 36.5t62.5 49.5t72 55.5 q86 66 197 148q5 0 13.5 -7.5t17 -17t14 -19.5t4.5 -15q97 28 204.5 62.5t220.5 69t230 65.5t233 52t229.5 29.5t220.5 -2.5l-5 -54l-592 -77q-74 -34 -148 -57t-145.5 -41t-138 -35t-125.5 -39.5t-109.5 -54t-89.5 -79.5t-64.5 -115t-35.5 -160l14 -2q18 5 72 23t130 41.5 t166.5 48t181 44t174 29.5t145.5 3q-3 -23 -39 -47t-95 -47.5t-134.5 -46.5t-157 -44.5t-162.5 -41.5t-151 -37t-122.5 -31.5t-77.5 -24.5q-44 -69 -72 -144t-45.5 -154.5t-27.5 -161.5t-19 -165q13 -2 37 2t53.5 11.5t60.5 16t59.5 17t51 15t33.5 8.5q174 56 352 124.5 t359 143t365 151.5t370.5 150.5t375 140t379.5 119.5q32 9 75 21t91.5 25.5t100 27t99.5 25.5q114 29 237 60q-122 -30 -268.5 -77t-307 -106t-329.5 -125.5t-334 -135t-321.5 -136t-292.5 -127.5t-246 -109.5t-183 -81.5q-100 -57 -212 -105.5t-229 -90t-235.5 -78.5 t-232.5 -71l-12 1q-20 2 -33.5 13t-33.5 22q1 5 2.5 14t2 19.5t1.5 20t1 15.5q7 67 27.5 133t43.5 131.5t43 131.5t27 134q0 5 2 21t4 34t4 34t2 21q-11 -4 -35.5 -17.5t-52 -29t-52.5 -29t-36 -18.5q-28 -12 -37.5 -22t-14.5 -16t-11.5 -8t-27.5 0q-30 4 -40.5 16.5 t-6.5 44.5zM302 1588q0 23 21 60.5t52.5 80.5t70 88t73 83t61 65.5t35.5 36.5h23q22 0 34.5 -7.5t21.5 -20t17.5 -28.5t21.5 -34q9 -14 26 -38.5t36.5 -51.5t36.5 -52t26 -38q9 -22 22 -48.5t22.5 -50t11.5 -39t-11 -15.5q-29 0 -53.5 19t-46 49t-41.5 66t-40.5 70t-44 61.5 t-50.5 40.5q-1 1 -16 -15t-38 -41.5t-52 -57.5t-59 -64t-59 -60t-51.5 -46.5t-36 -23t-13.5 10.5z" />
<glyph unicode="&#xcb;" horiz-adv-x="1139" d="M-27 664q2 26 11 40t24.5 23t37 16.5t49.5 20.5q17 8 54 25t78 35t77.5 32.5t52.5 18.5q-2 31 5 62t17 61.5t20 60.5t13 61q0 10 2.5 27t3.5 28q-65 -14 -101 -58t-43 -107q-21 2 -37.5 13.5t-27.5 28t-16 36.5t-2 41q0 3 17 17.5t44.5 36.5t62.5 49.5t72 55.5 q86 66 197 148q5 0 13.5 -7.5t17 -17t14 -19.5t4.5 -15q97 28 204.5 62.5t220.5 69t230 65.5t233 52t229.5 29.5t220.5 -2.5l-5 -54l-592 -77q-74 -34 -148 -57t-145.5 -41t-138 -35t-125.5 -39.5t-109.5 -54t-89.5 -79.5t-64.5 -115t-35.5 -160l14 -2q18 5 72 23t130 41.5 t166.5 48t181 44t174 29.5t145.5 3q-3 -23 -39 -47t-95 -47.5t-134.5 -46.5t-157 -44.5t-162.5 -41.5t-151 -37t-122.5 -31.5t-77.5 -24.5q-44 -69 -72 -144t-45.5 -154.5t-27.5 -161.5t-19 -165q13 -2 37 2t53.5 11.5t60.5 16t59.5 17t51 15t33.5 8.5q174 56 352 124.5 t359 143t365 151.5t370.5 150.5t375 140t379.5 119.5q32 9 75 21t91.5 25.5t100 27t99.5 25.5q114 29 237 60q-122 -30 -268.5 -77t-307 -106t-329.5 -125.5t-334 -135t-321.5 -136t-292.5 -127.5t-246 -109.5t-183 -81.5q-100 -57 -212 -105.5t-229 -90t-235.5 -78.5 t-232.5 -71l-12 1q-20 2 -33.5 13t-33.5 22q1 5 2.5 14t2 19.5t1.5 20t1 15.5q7 67 27.5 133t43.5 131.5t43 131.5t27 134q0 5 2 21t4 34t4 34t2 21q-11 -4 -35.5 -17.5t-52 -29t-52.5 -29t-36 -18.5q-28 -12 -37.5 -22t-14.5 -16t-11.5 -8t-27.5 0q-30 4 -40.5 16.5 t-6.5 44.5zM311 1672.5q3 27.5 13 51t25 39.5t32 16q13 0 36.5 -4.5t47 -14.5t40.5 -26t17 -38q0 -63 -33.5 -96.5t-95.5 -33.5q-34 0 -52.5 16t-25.5 39.5t-4 51zM634 1673.5q3 27.5 13 51t25 39.5t32 16q13 0 36.5 -4.5t47 -14.5t40.5 -26t17 -38q0 -63 -33.5 -96.5 t-95.5 -33.5q-34 0 -52.5 16t-25.5 39.5t-4 51z" />
<glyph unicode="&#xcc;" d="M34 -337q-8 59 1 120.5t26.5 123.5t41 125t45.5 125.5t39.5 124.5t23.5 123l360 1005q12 26 18.5 65t15 84t22 92.5t38.5 90.5l14 2q19 2 28 -3.5t11 -16t-0.5 -24.5t-4.5 -28q-27 -177 -72 -351.5t-100.5 -346t-118 -338t-123.5 -327.5t-117 -315t-99 -299 q-8 -20 -19 -25t-30 -7zM516 2165q56 0 106 -25t93.5 -63t81 -82t68.5 -81v-34q0 -25 -12.5 -46t-37.5 -21q-29 0 -62.5 19t-66.5 50t-64 69.5t-54.5 77.5t-37.5 75t-14 61z" />
<glyph unicode="&#xcd;" d="M34 -337q-8 59 1 120.5t26.5 123.5t41 125t45.5 125.5t39.5 124.5t23.5 123l360 1005q12 26 18.5 65t15 84t22 92.5t38.5 90.5l14 2q19 2 28 -3.5t11 -16t-0.5 -24.5t-4.5 -28q-27 -177 -72 -351.5t-100.5 -346t-118 -338t-123.5 -327.5t-117 -315t-99 -299 q-8 -20 -19 -25t-30 -7zM460 1726q17 56 45.5 113t62.5 109t71.5 96.5t73 76.5t66 49.5t50.5 14.5q25 -14 34 -25t9 -33v-19q-16 -12 -54 -48.5t-85 -83.5t-97 -96.5t-90.5 -88t-65 -58.5t-20.5 -7z" />
<glyph unicode="&#xce;" d="M34 -337q-8 59 1 120.5t26.5 123.5t41 125t45.5 125.5t39.5 124.5t23.5 123l360 1005q12 26 18.5 65t15 84t22 92.5t38.5 90.5l14 2q19 2 28 -3.5t11 -16t-0.5 -24.5t-4.5 -28q-27 -177 -72 -351.5t-100.5 -346t-118 -338t-123.5 -327.5t-117 -315t-99 -299 q-8 -20 -19 -25t-30 -7zM354 1613q0 23 21 60.5t52.5 80.5t70 88t73 83t61 65.5t35.5 36.5h23q22 0 34.5 -7.5t21.5 -20t17.5 -28.5t21.5 -34q9 -14 26 -38.5t36.5 -51.5t36.5 -52t26 -38q9 -22 22 -48.5t22.5 -50t11.5 -39t-11 -15.5q-29 0 -53.5 19t-46 49t-41.5 66 t-40.5 70t-44 61.5t-50.5 40.5q-1 1 -16 -15t-38 -41.5t-52 -57.5t-59 -64t-59 -60t-51.5 -46.5t-36 -23t-13.5 10.5z" />
<glyph unicode="&#xcf;" d="M34 -337q-8 59 1 120.5t26.5 123.5t41 125t45.5 125.5t39.5 124.5t23.5 123l360 1005q12 26 18.5 65t15 84t22 92.5t38.5 90.5l14 2q19 2 28 -3.5t11 -16t-0.5 -24.5t-4.5 -28q-27 -177 -72 -351.5t-100.5 -346t-118 -338t-123.5 -327.5t-117 -315t-99 -299 q-8 -20 -19 -25t-30 -7zM458 1898.5q3 27.5 13 51t25 39.5t32 16q13 0 36.5 -4.5t47 -14.5t40.5 -26t17 -38q0 -63 -33.5 -96.5t-95.5 -33.5q-34 0 -52.5 16t-25.5 39.5t-4 51zM781 1899.5q3 27.5 13 51t25 39.5t32 16q13 0 36.5 -4.5t47 -14.5t40.5 -26t17 -38 q0 -63 -33.5 -96.5t-95.5 -33.5q-34 0 -52.5 16t-25.5 39.5t-4 51z" />
<glyph unicode="&#xd0;" horiz-adv-x="1479" d="M31 700v131h139v599h422q328 0 540 -187q222 -194 222 -516q0 -354 -205 -543q-198 -184 -557 -184h-422v700h-139zM375 180h215q547 0 547 539q0 232 -146 381t-381 149h-235v-418h375v-131h-375v-520z" />
<glyph unicode="&#xd1;" horiz-adv-x="1479" d="M-122 -227q-1 8 20.5 54t58.5 119t88 167.5t109 199.5t121.5 215t126 213.5t121 195.5t108.5 161t87.5 109.5t57.5 42.5q10 1 26.5 -8.5t33 -24t28.5 -32t14 -32.5l64 -741q2 -20 13 -36t31 -14l13 2q89 183 218 382t289 401t347 400.5t392.5 380t424.5 339t444 277.5 t450.5 196.5t443.5 95.5l27 2q-197 -52 -374.5 -119t-342 -150.5t-320.5 -185t-309 -224.5t-307.5 -268.5t-316.5 -315.5q-151 -158 -297.5 -326t-274 -348t-230 -372t-164.5 -397q-8 -31 -13 -47.5t-13 -25t-21.5 -11t-38.5 -5.5q-50 -4 -81 18.5t-49 60t-26 84.5t-12 92 q-6 73 -8.5 147.5t-4 149.5t-4 150t-9.5 150q0 3 -0.5 17t-2 33t-5 40.5t-9.5 39t-15 28.5t-22 10q-16 -1 -47.5 -31t-74 -81.5t-93.5 -121.5t-106 -151.5t-110.5 -171t-108 -180.5t-98.5 -179.5t-81 -168.5t-57 -147.5t-26 -115.5l-26 -4q-20 -2 -31 2.5t-17 12.5t-8 20 t-3 27zM985 1594q0 51 9.5 95t31.5 76.5t59 50.5t92 18q46 0 78.5 -19.5t60 -43.5t55 -43.5t65.5 -19.5q23 0 35.5 9.5t20 23.5t12.5 30t12.5 30t20 23.5t35.5 9.5q12 0 17 -7t6 -17t0 -19.5t-1 -13.5q0 -30 -10 -60.5t-28 -55.5t-42.5 -40.5t-54.5 -15.5q-34 0 -57.5 13.5 t-41.5 34t-31.5 44.5t-27 44.5t-30 34t-38.5 13.5q-45 0 -73 -14.5t-46.5 -36t-30 -47t-24 -47t-29.5 -36t-45 -14.5z" />
<glyph unicode="&#xd2;" horiz-adv-x="1415" d="M31 531q1 132 42.5 255.5t111 232t160.5 198t192 154t205 100t200 35.5q43 0 90 -8.5t93 -26.5t87.5 -46.5t73 -69t49.5 -94t18 -120.5q0 -26 -10.5 -42.5t-22.5 -30.5t-22 -28.5t-10 -34.5q0 -25 6.5 -46.5t14 -43.5t14 -46t6.5 -54q-1 -128 -47.5 -235.5t-122.5 -193 t-173.5 -149.5t-200.5 -107t-203 -64.5t-182 -21.5h-118q-126 71 -189.5 188t-61.5 299zM95 531q-1 -96 20 -167.5t61.5 -118.5t99.5 -70t135 -23q66 0 152.5 17t178.5 51.5t182 86t163 120.5t121 156t57 192q5 51 -6 91.5t-31.5 75t-47 65.5t-51.5 62t-45 64.5t-27 74.5h21 q16 0 33.5 -9t34 -22t32 -26.5t27.5 -23.5v53q1 66 -22 108.5t-60 66.5t-82 33t-88 9q-85 0 -181.5 -30.5t-191 -86t-182 -134t-154.5 -174.5t-107.5 -207.5t-41.5 -233.5zM803 1969q56 0 106 -25t93.5 -63t81 -82t68.5 -81v-34q0 -25 -12.5 -46t-37.5 -21q-29 0 -62.5 19 t-66.5 50t-64 69.5t-54.5 77.5t-37.5 75t-14 61z" />
<glyph unicode="&#xd3;" horiz-adv-x="1396" d="M31 531q1 132 42.5 255.5t111 232t160.5 198t192 154t205 100t200 35.5q43 0 90 -8.5t93 -26.5t87.5 -46.5t73 -69t49.5 -94t18 -120.5q0 -26 -10.5 -42.5t-22.5 -30.5t-22 -28.5t-10 -34.5q0 -25 6.5 -46.5t14 -43.5t14 -46t6.5 -54q-1 -128 -47.5 -235.5t-122.5 -193 t-173.5 -149.5t-200.5 -107t-203 -64.5t-182 -21.5h-118q-126 71 -189.5 188t-61.5 299zM95 531q-1 -96 20 -167.5t61.5 -118.5t99.5 -70t135 -23q66 0 152.5 17t178.5 51.5t182 86t163 120.5t121 156t57 192q5 51 -6 91.5t-31.5 75t-47 65.5t-51.5 62t-45 64.5t-27 74.5h21 q16 0 33.5 -9t34 -22t32 -26.5t27.5 -23.5v53q1 66 -22 108.5t-60 66.5t-82 33t-88 9q-85 0 -181.5 -30.5t-191 -86t-182 -134t-154.5 -174.5t-107.5 -207.5t-41.5 -233.5zM788 1587q17 56 45.5 113t62.5 109t71.5 96.5t73 76.5t66 49.5t50.5 14.5q25 -14 34 -25t9 -33v-19 q-16 -12 -54 -48.5t-85 -83.5t-97 -96.5t-90.5 -88t-65 -58.5t-20.5 -7z" />
<glyph unicode="&#xd4;" horiz-adv-x="1396" d="M31 531q1 132 42.5 255.5t111 232t160.5 198t192 154t205 100t200 35.5q43 0 90 -8.5t93 -26.5t87.5 -46.5t73 -69t49.5 -94t18 -120.5q0 -26 -10.5 -42.5t-22.5 -30.5t-22 -28.5t-10 -34.5q0 -25 6.5 -46.5t14 -43.5t14 -46t6.5 -54q-1 -128 -47.5 -235.5t-122.5 -193 t-173.5 -149.5t-200.5 -107t-203 -64.5t-182 -21.5h-118q-126 71 -189.5 188t-61.5 299zM95 531q-1 -96 20 -167.5t61.5 -118.5t99.5 -70t135 -23q66 0 152.5 17t178.5 51.5t182 86t163 120.5t121 156t57 192q5 51 -6 91.5t-31.5 75t-47 65.5t-51.5 62t-45 64.5t-27 74.5h21 q16 0 33.5 -9t34 -22t32 -26.5t27.5 -23.5v53q1 66 -22 108.5t-60 66.5t-82 33t-88 9q-85 0 -181.5 -30.5t-191 -86t-182 -134t-154.5 -174.5t-107.5 -207.5t-41.5 -233.5zM628 1569q0 23 21 60.5t52.5 80.5t70 88t73 83t61 65.5t35.5 36.5h23q22 0 34.5 -7.5t21.5 -20 t17.5 -28.5t21.5 -34q9 -14 26 -38.5t36.5 -51.5t36.5 -52t26 -38q9 -22 22 -48.5t22.5 -50t11.5 -39t-11 -15.5q-29 0 -53.5 19t-46 49t-41.5 66t-40.5 70t-44 61.5t-50.5 40.5q-1 1 -16 -15t-38 -41.5t-52 -57.5t-59 -64t-59 -60t-51.5 -46.5t-36 -23t-13.5 10.5z" />
<glyph unicode="&#xd5;" horiz-adv-x="1402" d="M31 531q1 132 42.5 255.5t111 232t160.5 198t192 154t205 100t200 35.5q43 0 90 -8.5t93 -26.5t87.5 -46.5t73 -69t49.5 -94t18 -120.5q0 -26 -10.5 -42.5t-22.5 -30.5t-22 -28.5t-10 -34.5q0 -25 6.5 -46.5t14 -43.5t14 -46t6.5 -54q-1 -128 -47.5 -235.5t-122.5 -193 t-173.5 -149.5t-200.5 -107t-203 -64.5t-182 -21.5h-118q-126 71 -189.5 188t-61.5 299zM95 531q-1 -96 20 -167.5t61.5 -118.5t99.5 -70t135 -23q66 0 152.5 17t178.5 51.5t182 86t163 120.5t121 156t57 192q5 51 -6 91.5t-31.5 75t-47 65.5t-51.5 62t-45 64.5t-27 74.5h21 q16 0 33.5 -9t34 -22t32 -26.5t27.5 -23.5v53q1 66 -22 108.5t-60 66.5t-82 33t-88 9q-85 0 -181.5 -30.5t-191 -86t-182 -134t-154.5 -174.5t-107.5 -207.5t-41.5 -233.5zM598 1657q0 51 9.5 95t31.5 76.5t59 50.5t92 18q46 0 78.5 -19.5t60 -43.5t55 -43.5t65.5 -19.5 q23 0 35.5 9.5t20 23.5t12.5 30t12.5 30t20 23.5t35.5 9.5q12 0 17 -7t6 -17t0 -19.5t-1 -13.5q0 -30 -10 -60.5t-28 -55.5t-42.5 -40.5t-54.5 -15.5q-34 0 -57.5 13.5t-41.5 34t-31.5 44.5t-27 44.5t-30 34t-38.5 13.5q-45 0 -73 -14.5t-46.5 -36t-30 -47t-24 -47 t-29.5 -36t-45 -14.5z" />
<glyph unicode="&#xd6;" horiz-adv-x="1415" d="M31 531q1 132 42.5 255.5t111 232t160.5 198t192 154t205 100t200 35.5q43 0 90 -8.5t93 -26.5t87.5 -46.5t73 -69t49.5 -94t18 -120.5q0 -26 -10.5 -42.5t-22.5 -30.5t-22 -28.5t-10 -34.5q0 -25 6.5 -46.5t14 -43.5t14 -46t6.5 -54q-1 -128 -47.5 -235.5t-122.5 -193 t-173.5 -149.5t-200.5 -107t-203 -64.5t-182 -21.5h-118q-126 71 -189.5 188t-61.5 299zM95 531q-1 -96 20 -167.5t61.5 -118.5t99.5 -70t135 -23q66 0 152.5 17t178.5 51.5t182 86t163 120.5t121 156t57 192q5 51 -6 91.5t-31.5 75t-47 65.5t-51.5 62t-45 64.5t-27 74.5h21 q16 0 33.5 -9t34 -22t32 -26.5t27.5 -23.5v53q1 66 -22 108.5t-60 66.5t-82 33t-88 9q-85 0 -181.5 -30.5t-191 -86t-182 -134t-154.5 -174.5t-107.5 -207.5t-41.5 -233.5zM662 1735.5q3 27.5 13 51t25 39.5t32 16q13 0 36.5 -4.5t47 -14.5t40.5 -26t17 -38 q0 -63 -33.5 -96.5t-95.5 -33.5q-34 0 -52.5 16t-25.5 39.5t-4 51zM985 1736.5q3 27.5 13 51t25 39.5t32 16q13 0 36.5 -4.5t47 -14.5t40.5 -26t17 -38q0 -63 -33.5 -96.5t-95.5 -33.5q-34 0 -52.5 16t-25.5 39.5t-4 51z" />
<glyph unicode="&#xd7;" horiz-adv-x="1229" d="M-80 -16v103q0 64 21.5 108t55 73t75 46.5t80.5 29t72 21t50 22.5q26 25 30.5 62t4.5 75q0 45 -11 90t-23.5 90t-23.5 90.5t-11 90.5v17q0 6 8.5 18t19.5 23t23 19.5t18 8.5q90 -65 145.5 -153t94.5 -191h17q39 0 69 19.5t55.5 47t49 56.5t49.5 49q17 13 52 39.5t79 60.5 t92.5 71.5t92 71.5t78.5 60.5t52 39.5q19 -13 32.5 -23.5t21.5 -21.5t11.5 -25t3.5 -33q0 -35 -28 -66.5t-74 -60.5t-104.5 -57.5t-119.5 -58t-119.5 -62t-104.5 -69.5t-74 -80.5t-28 -94.5q0 -34 18 -53.5t44.5 -31t57.5 -19t57.5 -19t44.5 -30.5t18 -53q0 -32 -12 -52.5 t-31 -31.5t-44 -15t-50 -4q-81 0 -137 11t-97 24.5t-71 26t-59 16t-62 -6t-78.5 -40t-109 -85.5t-153.5 -143h-68z" />
<glyph unicode="&#xd8;" horiz-adv-x="1593" d="M108 506.5q-11 88.5 15.5 181.5t82 182.5t137.5 170.5t182 145q80 51 153.5 88.5t156.5 55.5t184 13t235 -39l50 -30q93 -59 127.5 -140.5t24.5 -173t-56.5 -187.5t-114.5 -185t-150 -165t-163 -128q-39 -26 -88 -52t-104 -47.5t-114 -36t-118 -17t-116 9.5t-108 43 q-101 63 -153 143t-63 168.5zM177 -214q42 101 76 183q15 35 29.5 69t27 62.5t22 48t13.5 24.5l977 1616q7 25 6.5 26.5t-5.5 -13.5t-12.5 -42t-14.5 -58t-11 -62t-2 -53q3 -27 -0.5 -46.5t-13 -37t-27 -34t-43.5 -37.5q-92 -134 -163 -257t-128.5 -237t-106 -220t-96 -205 t-98 -193t-112.5 -184t-139.5 -177t-178.5 -173zM360.5 580q6.5 -48 34.5 -91.5t82 -77.5q47 -30 94.5 -31.5t92.5 13.5t87 40.5t79 49.5q112 72 188.5 143.5t122.5 149t64 162.5t13 183q-97 13 -187.5 2t-173 -38t-156 -65.5t-135.5 -78.5q-49 -32 -89.5 -74.5t-68.5 -90 t-41 -98t-6.5 -98.5z" />
<glyph unicode="&#xd9;" horiz-adv-x="1479" d="M69 163q-10 92 5 210t47.5 247t77.5 262.5t95.5 257.5t102.5 230.5t98 181.5q17 11 26.5 19t26.5 10q9 1 17.5 -1t18.5 -19q5 -75 10 -109.5t8 -43t1.5 1.5t-9.5 24.5t-24 26t-43 5.5q-38 -66 -83 -161t-89.5 -205.5t-85 -229.5t-69.5 -233t-43 -217t-6 -181 q2 -21 4.5 -35.5t8.5 -23.5t18 -12t33 -1q127 13 232.5 70t195 142.5t166 193t147 222.5t137.5 230t138 215.5t148.5 180t167.5 122.5q-7 -14 -4 -17t9.5 -4.5t13.5 -4.5t9 -16q0 -4 -1 -12t-3.5 -15.5t-6 -13.5t-7.5 -6q-48 -79 -113 -177.5t-133.5 -209.5t-134 -231.5 t-114 -242.5t-73.5 -243t-13 -232q7 -65 38.5 -112.5t80.5 -81t111 -54.5t129.5 -32.5t137.5 -15t134 -2.5t118.5 5t92.5 8q117 12 233 31.5t232 40.5t232.5 40t233.5 31q13 1 44.5 4.5t67 7.5t67 7t44.5 5q0 -2 -46.5 -14t-124 -30t-179 -40.5t-210 -46t-217.5 -46.5 t-202.5 -41.5t-164 -31.5t-101.5 -16q-73 -8 -160.5 -8.5t-177.5 11t-176.5 37.5t-156 72.5t-116 116t-56.5 167.5q-5 51 2.5 106t21.5 110.5t32.5 109.5t34.5 102l-23 -2q-77 -76 -165 -148t-182.5 -138t-192.5 -126t-194 -112q-35 9 -61.5 18t-44.5 23t-29 35.5t-14 54.5z M978 1994q56 0 106 -25t93.5 -63t81 -82t68.5 -81v-34q0 -25 -12.5 -46t-37.5 -21q-29 0 -62.5 19t-66.5 50t-64 69.5t-54.5 77.5t-37.5 75t-14 61zM3029.5 6.5q-0.5 4.5 1.5 8.5t6 4t7 -3t3 -7.5t-2 -8.5t-6 -4t-6.5 3t-3 7.5z" />
<glyph unicode="&#xda;" horiz-adv-x="1479" d="M69 163q-10 92 5 210t47.5 247t77.5 262.5t95.5 257.5t102.5 230.5t98 181.5q17 11 26.5 19t26.5 10q9 1 17.5 -1t18.5 -19q5 -75 10 -109.5t8 -43t1.5 1.5t-9.5 24.5t-24 26t-43 5.5q-38 -66 -83 -161t-89.5 -205.5t-85 -229.5t-69.5 -233t-43 -217t-6 -181 q2 -21 4.5 -35.5t8.5 -23.5t18 -12t33 -1q127 13 232.5 70t195 142.5t166 193t147 222.5t137.5 230t138 215.5t148.5 180t167.5 122.5q-7 -14 -4 -17t9.5 -4.5t13.5 -4.5t9 -16q0 -4 -1 -12t-3.5 -15.5t-6 -13.5t-7.5 -6q-48 -79 -113 -177.5t-133.5 -209.5t-134 -231.5 t-114 -242.5t-73.5 -243t-13 -232q7 -65 38.5 -112.5t80.5 -81t111 -54.5t129.5 -32.5t137.5 -15t134 -2.5t118.5 5t92.5 8q117 12 233 31.5t232 40.5t232.5 40t233.5 31q13 1 44.5 4.5t67 7.5t67 7t44.5 5q0 -2 -46.5 -14t-124 -30t-179 -40.5t-210 -46t-217.5 -46.5 t-202.5 -41.5t-164 -31.5t-101.5 -16q-73 -8 -160.5 -8.5t-177.5 11t-176.5 37.5t-156 72.5t-116 116t-56.5 167.5q-5 51 2.5 106t21.5 110.5t32.5 109.5t34.5 102l-23 -2q-77 -76 -165 -148t-182.5 -138t-192.5 -126t-194 -112q-35 9 -61.5 18t-44.5 23t-29 35.5t-14 54.5z M962 1562q17 56 45.5 113t62.5 109t71.5 96.5t73 76.5t66 49.5t50.5 14.5q25 -14 34 -25t9 -33v-19q-16 -12 -54 -48.5t-85 -83.5t-97 -96.5t-90.5 -88t-65 -58.5t-20.5 -7zM3029.5 6.5q-0.5 4.5 1.5 8.5t6 4t7 -3t3 -7.5t-2 -8.5t-6 -4t-6.5 3t-3 7.5z" />
<glyph unicode="&#xdb;" horiz-adv-x="1479" d="M69 163q-10 92 5 210t47.5 247t77.5 262.5t95.5 257.5t102.5 230.5t98 181.5q17 11 26.5 19t26.5 10q9 1 17.5 -1t18.5 -19q5 -75 10 -109.5t8 -43t1.5 1.5t-9.5 24.5t-24 26t-43 5.5q-38 -66 -83 -161t-89.5 -205.5t-85 -229.5t-69.5 -233t-43 -217t-6 -181 q2 -21 4.5 -35.5t8.5 -23.5t18 -12t33 -1q127 13 232.5 70t195 142.5t166 193t147 222.5t137.5 230t138 215.5t148.5 180t167.5 122.5q-7 -14 -4 -17t9.5 -4.5t13.5 -4.5t9 -16q0 -4 -1 -12t-3.5 -15.5t-6 -13.5t-7.5 -6q-48 -79 -113 -177.5t-133.5 -209.5t-134 -231.5 t-114 -242.5t-73.5 -243t-13 -232q7 -65 38.5 -112.5t80.5 -81t111 -54.5t129.5 -32.5t137.5 -15t134 -2.5t118.5 5t92.5 8q117 12 233 31.5t232 40.5t232.5 40t233.5 31q13 1 44.5 4.5t67 7.5t67 7t44.5 5q0 -2 -46.5 -14t-124 -30t-179 -40.5t-210 -46t-217.5 -46.5 t-202.5 -41.5t-164 -31.5t-101.5 -16q-73 -8 -160.5 -8.5t-177.5 11t-176.5 37.5t-156 72.5t-116 116t-56.5 167.5q-5 51 2.5 106t21.5 110.5t32.5 109.5t34.5 102l-23 -2q-77 -76 -165 -148t-182.5 -138t-192.5 -126t-194 -112q-35 9 -61.5 18t-44.5 23t-29 35.5t-14 54.5z M778 1657q0 23 21 60.5t52.5 80.5t70 88t73 83t61 65.5t35.5 36.5h23q22 0 34.5 -7.5t21.5 -20t17.5 -28.5t21.5 -34q9 -14 26 -38.5t36.5 -51.5t36.5 -52t26 -38q9 -22 22 -48.5t22.5 -50t11.5 -39t-11 -15.5q-29 0 -53.5 19t-46 49t-41.5 66t-40.5 70t-44 61.5t-50.5 40.5 q-1 1 -16 -15t-38 -41.5t-52 -57.5t-59 -64t-59 -60t-51.5 -46.5t-36 -23t-13.5 10.5zM3029.5 6.5q-0.5 4.5 1.5 8.5t6 4t7 -3t3 -7.5t-2 -8.5t-6 -4t-6.5 3t-3 7.5z" />
<glyph unicode="&#xdc;" horiz-adv-x="1479" d="M69 163q-10 92 5 210t47.5 247t77.5 262.5t95.5 257.5t102.5 230.5t98 181.5q17 11 26.5 19t26.5 10q9 1 17.5 -1t18.5 -19q5 -75 10 -109.5t8 -43t1.5 1.5t-9.5 24.5t-24 26t-43 5.5q-38 -66 -83 -161t-89.5 -205.5t-85 -229.5t-69.5 -233t-43 -217t-6 -181 q2 -21 4.5 -35.5t8.5 -23.5t18 -12t33 -1q127 13 232.5 70t195 142.5t166 193t147 222.5t137.5 230t138 215.5t148.5 180t167.5 122.5q-7 -14 -4 -17t9.5 -4.5t13.5 -4.5t9 -16q0 -4 -1 -12t-3.5 -15.5t-6 -13.5t-7.5 -6q-48 -79 -113 -177.5t-133.5 -209.5t-134 -231.5 t-114 -242.5t-73.5 -243t-13 -232q7 -65 38.5 -112.5t80.5 -81t111 -54.5t129.5 -32.5t137.5 -15t134 -2.5t118.5 5t92.5 8q117 12 233 31.5t232 40.5t232.5 40t233.5 31q13 1 44.5 4.5t67 7.5t67 7t44.5 5q0 -2 -46.5 -14t-124 -30t-179 -40.5t-210 -46t-217.5 -46.5 t-202.5 -41.5t-164 -31.5t-101.5 -16q-73 -8 -160.5 -8.5t-177.5 11t-176.5 37.5t-156 72.5t-116 116t-56.5 167.5q-5 51 2.5 106t21.5 110.5t32.5 109.5t34.5 102l-23 -2q-77 -76 -165 -148t-182.5 -138t-192.5 -126t-194 -112q-35 9 -61.5 18t-44.5 23t-29 35.5t-14 54.5z M830 1753.5q3 27.5 13 51t25 39.5t32 16q13 0 36.5 -4.5t47 -14.5t40.5 -26t17 -38q0 -63 -33.5 -96.5t-95.5 -33.5q-34 0 -52.5 16t-25.5 39.5t-4 51zM1153 1754.5q3 27.5 13 51t25 39.5t32 16q13 0 36.5 -4.5t47 -14.5t40.5 -26t17 -38q0 -63 -33.5 -96.5t-95.5 -33.5 q-34 0 -52.5 16t-25.5 39.5t-4 51zM3029.5 6.5q-0.5 4.5 1.5 8.5t6 4t7 -3t3 -7.5t-2 -8.5t-6 -4t-6.5 3t-3 7.5z" />
<glyph unicode="&#xdd;" horiz-adv-x="1366" d="M45 939q0 42 2.5 102t10 128t21.5 138t37 132.5t57 112t81 75.5q8 0 22 -10t27.5 -23.5t23.5 -27.5t10 -22q6 -6 10 -13q4 -6 7.5 -13.5t3.5 -15.5q-52 0 -89.5 -28.5t-63 -74t-41 -103t-23.5 -115.5t-10.5 -111t-2.5 -89q0 -63 3 -113t20.5 -85.5t56 -54.5t109.5 -19 q113 0 208.5 37t177 98.5t152 141t135 164.5t125.5 169.5t123 155.5t128 122.5t141 71.5q16 8 31 5t27 -12.5t19 -24t7 -30.5q0 -84 -21.5 -175.5t-54.5 -189t-70.5 -199.5t-70.5 -206t-54.5 -209.5t-21.5 -209.5v-250q55 62 126 134t154 148t175 153.5t189 151.5t196 142 t195.5 124t188.5 99t174 66l501 87q-131 -11 -280 -59.5t-304 -124t-311.5 -174t-303 -210t-277 -231.5t-234 -239t-174.5 -232t-99 -210q-6 -25 -18 -79.5t-29 -128.5t-38.5 -163.5t-47 -186t-55.5 -194.5t-63.5 -189t-70 -171t-76 -139t-81 -93t-85.5 -34q-26 0 -44 16 t-29.5 40.5t-17.5 55.5t-9 61.5t-3.5 56.5t-0.5 42q0 109 23.5 206.5t62.5 187t90 172.5t106 163t109.5 159.5t101.5 161t82 167.5t51 180q4 27 9 79t10.5 118.5t11.5 144.5t12 158.5t11.5 158.5t11 145t10 118.5t8.5 79.5v20v21q-74 -20 -137 -55.5t-119 -80t-107 -95.5 t-102 -100.5t-104 -95.5t-112.5 -80.5t-128.5 -55.5t-151 -21q-57 0 -98 17.5t-69 48t-44.5 70t-25 83.5t-11 89.5t-2.5 87.5zM582 -1248q0 31 0.5 71.5t3.5 80t10 74t19 52.5l294 556v-66q0 -104 -28 -220t-74 -229t-105 -217t-120 -183v81zM789 1487q17 56 45.5 113 t62.5 109t71.5 96.5t73 76.5t66 49.5t50.5 14.5q25 -14 34 -25t9 -33v-19q-16 -12 -54 -48.5t-85 -83.5t-97 -96.5t-90.5 -88t-65 -58.5t-20.5 -7z" />
<glyph unicode="&#xde;" horiz-adv-x="1139" d="M170 0v1430h205v-209h170q536 0 536 -428q0 -222 -156 -335q-133 -96 -350 -96h-200v-362h-205zM375 543h203q112 0 191 55q95 68 95 197q0 122 -110 190q-89 55 -205 55h-174v-497z" />
<glyph unicode="&#xdf;" horiz-adv-x="1251" d="M164 0v971q0 290 112 434q123 156 390 156q162 0 281 -101q134 -112 134 -301q0 -260 -239 -334v-4q140 -16 225 -130q80 -106 80 -247q0 -196 -118 -322q-125 -134 -335 -134q-101 0 -198 28v162q79 -35 161 -35q123 0 201 75q84 81 84 218q0 167 -108 237 q-90 58 -277 58v156q156 0 232 55q88 63 88 211q0 104 -60 175q-64 77 -170 77q-157 0 -232 -133q-59 -104 -59 -271v-1001h-192z" />
<glyph unicode="&#xe0;" horiz-adv-x="1139" d="M-12.5 655.5q-1.5 26.5 4.5 54t10 50.5q10 63 47 114t91.5 89.5t121.5 65t136 40.5t135 17t120 -6q112 -18 193 -47.5t137 -73t91 -102t56 -133t31.5 -167.5t18.5 -205q-2 -15 7.5 -29.5t24.5 -15.5q124 -5 205 -9.5t137 -8.5t95 -7.5t77.5 -4.5t85 0t118 5t176.5 12 t260 20q7 1 20.5 -1t28 -4.5t28 -5.5t21.5 -4q-145 -26 -262.5 -43t-215 -30t-177.5 -24t-151 -25t-135 -32.5t-129.5 -46.5t-134.5 -68t-150 -97l-154 12q-29 5 -33.5 9t1 9.5t15 14t8.5 22t-20 33t-70 47.5q-14 7 -42.5 8t-64.5 -2.5t-76.5 -9t-78.5 -10t-70 -7t-52 0.5 q-36 6 -67.5 15.5t-53 28.5t-31 48t-2.5 74l10 60q24 26 81 54.5t128.5 58t148.5 59.5t141.5 59t107.5 56.5t47 52.5q8 49 -6 88.5t-41.5 70.5t-66.5 54.5t-80.5 40t-83.5 27t-76 16.5q-59 9 -101.5 12t-77.5 -1.5t-65 -17t-62 -34.5t-70.5 -53.5t-90.5 -73.5 q10 -32 6 -61.5t-19 -53.5t-39.5 -42t-56.5 -28q-35 13 -49 36t-15.5 49.5zM420 1486q56 0 106 -25t93.5 -63t81 -82t68.5 -81v-34q0 -25 -12.5 -46t-37.5 -21q-29 0 -62.5 19t-66.5 50t-64 69.5t-54.5 77.5t-37.5 75t-14 61zM608 281l58 -10q29 -5 53 -7.5t48.5 -2.5 t52.5 4t67 13q3 14 -7.5 28.5t-25.5 16.5q-22 3 -54 1.5t-66.5 -7.5t-68 -15.5t-57.5 -20.5z" />
<glyph unicode="&#xe1;" horiz-adv-x="1139" d="M-12.5 655.5q-1.5 26.5 4.5 54t10 50.5q10 63 47 114t91.5 89.5t121.5 65t136 40.5t135 17t120 -6q112 -18 193 -47.5t137 -73t91 -102t56 -133t31.5 -167.5t18.5 -205q-2 -15 7.5 -29.5t24.5 -15.5q124 -5 205 -9.5t137 -8.5t95 -7.5t77.5 -4.5t85 0t118 5t176.5 12 t260 20q7 1 20.5 -1t28 -4.5t28 -5.5t21.5 -4q-145 -26 -262.5 -43t-215 -30t-177.5 -24t-151 -25t-135 -32.5t-129.5 -46.5t-134.5 -68t-150 -97l-154 12q-29 5 -33.5 9t1 9.5t15 14t8.5 22t-20 33t-70 47.5q-14 7 -42.5 8t-64.5 -2.5t-76.5 -9t-78.5 -10t-70 -7t-52 0.5 q-36 6 -67.5 15.5t-53 28.5t-31 48t-2.5 74l10 60q24 26 81 54.5t128.5 58t148.5 59.5t141.5 59t107.5 56.5t47 52.5q8 49 -6 88.5t-41.5 70.5t-66.5 54.5t-80.5 40t-83.5 27t-76 16.5q-59 9 -101.5 12t-77.5 -1.5t-65 -17t-62 -34.5t-70.5 -53.5t-90.5 -73.5 q10 -32 6 -61.5t-19 -53.5t-39.5 -42t-56.5 -28q-35 13 -49 36t-15.5 49.5zM376 1085q17 56 45.5 113t62.5 109t71.5 96.5t73 76.5t66 49.5t50.5 14.5q25 -14 34 -25t9 -33v-19q-16 -12 -54 -48.5t-85 -83.5t-97 -96.5t-90.5 -88t-65 -58.5t-20.5 -7zM608 281l58 -10 q29 -5 53 -7.5t48.5 -2.5t52.5 4t67 13q3 14 -7.5 28.5t-25.5 16.5q-22 3 -54 1.5t-66.5 -7.5t-68 -15.5t-57.5 -20.5z" />
<glyph unicode="&#xe2;" horiz-adv-x="1139" d="M-12.5 655.5q-1.5 26.5 4.5 54t10 50.5q10 63 47 114t91.5 89.5t121.5 65t136 40.5t135 17t120 -6q112 -18 193 -47.5t137 -73t91 -102t56 -133t31.5 -167.5t18.5 -205q-2 -15 7.5 -29.5t24.5 -15.5q124 -5 205 -9.5t137 -8.5t95 -7.5t77.5 -4.5t85 0t118 5t176.5 12 t260 20q7 1 20.5 -1t28 -4.5t28 -5.5t21.5 -4q-145 -26 -262.5 -43t-215 -30t-177.5 -24t-151 -25t-135 -32.5t-129.5 -46.5t-134.5 -68t-150 -97l-154 12q-29 5 -33.5 9t1 9.5t15 14t8.5 22t-20 33t-70 47.5q-14 7 -42.5 8t-64.5 -2.5t-76.5 -9t-78.5 -10t-70 -7t-52 0.5 q-36 6 -67.5 15.5t-53 28.5t-31 48t-2.5 74l10 60q24 26 81 54.5t128.5 58t148.5 59.5t141.5 59t107.5 56.5t47 52.5q8 49 -6 88.5t-41.5 70.5t-66.5 54.5t-80.5 40t-83.5 27t-76 16.5q-59 9 -101.5 12t-77.5 -1.5t-65 -17t-62 -34.5t-70.5 -53.5t-90.5 -73.5 q10 -32 6 -61.5t-19 -53.5t-39.5 -42t-56.5 -28q-35 13 -49 36t-15.5 49.5zM336 1161q0 23 21 60.5t52.5 80.5t70 88t73 83t61 65.5t35.5 36.5h23q22 0 34.5 -7.5t21.5 -20t17.5 -28.5t21.5 -34q9 -14 26 -38.5t36.5 -51.5t36.5 -52t26 -38q9 -22 22 -48.5t22.5 -50 t11.5 -39t-11 -15.5q-29 0 -53.5 19t-46 49t-41.5 66t-40.5 70t-44 61.5t-50.5 40.5q-1 1 -16 -15t-38 -41.5t-52 -57.5t-59 -64t-59 -60t-51.5 -46.5t-36 -23t-13.5 10.5zM608 281l58 -10q29 -5 53 -7.5t48.5 -2.5t52.5 4t67 13q3 14 -7.5 28.5t-25.5 16.5q-22 3 -54 1.5 t-66.5 -7.5t-68 -15.5t-57.5 -20.5z" />
<glyph unicode="&#xe3;" horiz-adv-x="1139" d="M-12.5 655.5q-1.5 26.5 4.5 54t10 50.5q10 63 47 114t91.5 89.5t121.5 65t136 40.5t135 17t120 -6q112 -18 193 -47.5t137 -73t91 -102t56 -133t31.5 -167.5t18.5 -205q-2 -15 7.5 -29.5t24.5 -15.5q124 -5 205 -9.5t137 -8.5t95 -7.5t77.5 -4.5t85 0t118 5t176.5 12 t260 20q7 1 20.5 -1t28 -4.5t28 -5.5t21.5 -4q-145 -26 -262.5 -43t-215 -30t-177.5 -24t-151 -25t-135 -32.5t-129.5 -46.5t-134.5 -68t-150 -97l-154 12q-29 5 -33.5 9t1 9.5t15 14t8.5 22t-20 33t-70 47.5q-14 7 -42.5 8t-64.5 -2.5t-76.5 -9t-78.5 -10t-70 -7t-52 0.5 q-36 6 -67.5 15.5t-53 28.5t-31 48t-2.5 74l10 60q24 26 81 54.5t128.5 58t148.5 59.5t141.5 59t107.5 56.5t47 52.5q8 49 -6 88.5t-41.5 70.5t-66.5 54.5t-80.5 40t-83.5 27t-76 16.5q-59 9 -101.5 12t-77.5 -1.5t-65 -17t-62 -34.5t-70.5 -53.5t-90.5 -73.5 q10 -32 6 -61.5t-19 -53.5t-39.5 -42t-56.5 -28q-35 13 -49 36t-15.5 49.5zM278 1211q0 51 9.5 95t31.5 76.5t59 50.5t92 18q46 0 78.5 -19.5t60 -43.5t55 -43.5t65.5 -19.5q23 0 35.5 9.5t20 23.5t12.5 30t12.5 30t20 23.5t35.5 9.5q12 0 17 -7t6 -17t0 -19.5t-1 -13.5 q0 -30 -10 -60.5t-28 -55.5t-42.5 -40.5t-54.5 -15.5q-34 0 -57.5 13.5t-41.5 34t-31.5 44.5t-27 44.5t-30 34t-38.5 13.5q-45 0 -73 -14.5t-46.5 -36t-30 -47t-24 -47t-29.5 -36t-45 -14.5zM608 281l58 -10q29 -5 53 -7.5t48.5 -2.5t52.5 4t67 13q3 14 -7.5 28.5 t-25.5 16.5q-22 3 -54 1.5t-66.5 -7.5t-68 -15.5t-57.5 -20.5z" />
<glyph unicode="&#xe4;" horiz-adv-x="1139" d="M-12.5 655.5q-1.5 26.5 4.5 54t10 50.5q10 63 47 114t91.5 89.5t121.5 65t136 40.5t135 17t120 -6q112 -18 193 -47.5t137 -73t91 -102t56 -133t31.5 -167.5t18.5 -205q-2 -15 7.5 -29.5t24.5 -15.5q124 -5 205 -9.5t137 -8.5t95 -7.5t77.5 -4.5t85 0t118 5t176.5 12 t260 20q7 1 20.5 -1t28 -4.5t28 -5.5t21.5 -4q-145 -26 -262.5 -43t-215 -30t-177.5 -24t-151 -25t-135 -32.5t-129.5 -46.5t-134.5 -68t-150 -97l-154 12q-29 5 -33.5 9t1 9.5t15 14t8.5 22t-20 33t-70 47.5q-14 7 -42.5 8t-64.5 -2.5t-76.5 -9t-78.5 -10t-70 -7t-52 0.5 q-36 6 -67.5 15.5t-53 28.5t-31 48t-2.5 74l10 60q24 26 81 54.5t128.5 58t148.5 59.5t141.5 59t107.5 56.5t47 52.5q8 49 -6 88.5t-41.5 70.5t-66.5 54.5t-80.5 40t-83.5 27t-76 16.5q-59 9 -101.5 12t-77.5 -1.5t-65 -17t-62 -34.5t-70.5 -53.5t-90.5 -73.5 q10 -32 6 -61.5t-19 -53.5t-39.5 -42t-56.5 -28q-35 13 -49 36t-15.5 49.5zM311 1308.5q3 27.5 13 51t25 39.5t32 16q13 0 36.5 -4.5t47 -14.5t40.5 -26t17 -38q0 -63 -33.5 -96.5t-95.5 -33.5q-34 0 -52.5 16t-25.5 39.5t-4 51zM608 281l58 -10q29 -5 53 -7.5t48.5 -2.5 t52.5 4t67 13q3 14 -7.5 28.5t-25.5 16.5q-22 3 -54 1.5t-66.5 -7.5t-68 -15.5t-57.5 -20.5zM634 1309.5q3 27.5 13 51t25 39.5t32 16q13 0 36.5 -4.5t47 -14.5t40.5 -26t17 -38q0 -63 -33.5 -96.5t-95.5 -33.5q-34 0 -52.5 16t-25.5 39.5t-4 51z" />
<glyph unicode="&#xe5;" horiz-adv-x="1139" d="M-12.5 655.5q-1.5 26.5 4.5 54t10 50.5q10 63 47 114t91.5 89.5t121.5 65t136 40.5t135 17t120 -6q112 -18 193 -47.5t137 -73t91 -102t56 -133t31.5 -167.5t18.5 -205q-2 -15 7.5 -29.5t24.5 -15.5q124 -5 205 -9.5t137 -8.5t95 -7.5t77.5 -4.5t85 0t118 5t176.5 12 t260 20q7 1 20.5 -1t28 -4.5t28 -5.5t21.5 -4q-145 -26 -262.5 -43t-215 -30t-177.5 -24t-151 -25t-135 -32.5t-129.5 -46.5t-134.5 -68t-150 -97l-154 12q-29 5 -33.5 9t1 9.5t15 14t8.5 22t-20 33t-70 47.5q-14 7 -42.5 8t-64.5 -2.5t-76.5 -9t-78.5 -10t-70 -7t-52 0.5 q-36 6 -67.5 15.5t-53 28.5t-31 48t-2.5 74l10 60q24 26 81 54.5t128.5 58t148.5 59.5t141.5 59t107.5 56.5t47 52.5q8 49 -6 88.5t-41.5 70.5t-66.5 54.5t-80.5 40t-83.5 27t-76 16.5q-59 9 -101.5 12t-77.5 -1.5t-65 -17t-62 -34.5t-70.5 -53.5t-90.5 -73.5 q10 -32 6 -61.5t-19 -53.5t-39.5 -42t-56.5 -28q-35 13 -49 36t-15.5 49.5zM366 1352q0 103 51.5 156t148.5 53q39 0 80 -8t74.5 -26t55.5 -47t22 -71q0 -57 -18.5 -105.5t-51.5 -83.5t-78.5 -55t-99.5 -20q-102 0 -143 52.5t-41 154.5zM423 1334q0 -32 9.5 -53.5t28 -34.5 t45 -18.5t61.5 -5.5q29 0 55.5 14.5t46 37.5t31 51t11.5 55q0 32 -16.5 50.5t-41 27.5t-53 11.5t-52.5 2.5q-60 0 -92.5 -36.5t-32.5 -101.5zM608 281l58 -10q29 -5 53 -7.5t48.5 -2.5t52.5 4t67 13q3 14 -7.5 28.5t-25.5 16.5q-22 3 -54 1.5t-66.5 -7.5t-68 -15.5 t-57.5 -20.5z" />
<glyph unicode="&#xe6;" horiz-adv-x="2182" d="M11 131q0 77 25 157t68 157.5t102 151t127.5 138.5t143.5 119t150 93t147 60.5t135 21.5q54 0 99.5 -25t81.5 -65.5t63 -92t45 -105.5q44 45 94.5 92t105.5 91t113 82.5t118.5 67.5t121.5 46t121 17q36 0 70.5 -13t62 -38.5t44 -62.5t16.5 -84q0 -61 -23.5 -107.5 t-62 -83t-87.5 -65t-100 -54t-100 -49.5t-87.5 -50.5t-62 -58t-23.5 -71.5v-18q104 14 205 42t200.5 62t198 69.5t199.5 65t204.5 48.5t211.5 19v-54q-32 -15 -62 -29q-26 -12 -52.5 -24t-44.5 -19q-30 -10 -86.5 -28.5t-129.5 -42.5t-158 -52t-172 -56.5t-172 -56.5 t-158 -52t-129.5 -42.5t-86.5 -28.5h-80q-36 0 -72 11t-70.5 24.5t-67.5 24.5t-63 11q-28 0 -40 -24t-17 -58.5t-9 -74.5t-16 -71.5t-37.5 -49t-73.5 -8.5q-24 6 -37 16t-19 23.5t-7 30.5t-1 37q0 33 5 64t11 61.5t11 61.5t5 65h-32q-72 -47 -155 -103.5t-173.5 -105.5 t-186 -82t-191.5 -33q-30 0 -59 -1t-51.5 7.5t-36 31.5t-13.5 70zM155 203q96 0 187 27t176.5 69t167 93t159.5 98q24 14 28 29.5t4 42.5q0 20 -1 34t-7 22.5t-19 12t-37 3.5q-44 0 -110 -17t-139 -47t-146 -71t-131.5 -89t-95 -100.5t-36.5 -106.5zM256 526q0 -7 2.5 -12.5 t8.5 -5.5t9 5.5t3 12.5t-3 12.5t-9 5.5t-8.5 -5.5t-2.5 -12.5zM331 598h16q36 0 75 18.5t79.5 45.5t83 57.5t85.5 54.5t87 36.5t88 3.5q12 0 39 -14.5t57.5 -33t57.5 -36t39 -24.5q12 0 22 11t10 24q0 27 -18.5 58.5t-46 58.5t-58 45t-54.5 18q-48 0 -100.5 -12.5 t-105.5 -35t-104.5 -53.5t-98 -67t-86 -75.5t-67.5 -79.5zM1294 598h48q32 0 86.5 13t116.5 35.5t126 54.5t116 69.5t84.5 80.5t32.5 88q0 20 -13 31t-31 16t-37 6t-31 1q-28 0 -73.5 -18t-98 -48.5t-107.5 -70.5t-101 -84t-78 -89t-40 -85zM1391 382q12 -14 32 -14t32 14 q6 7 -5.5 10t-26.5 3t-26.5 -3t-5.5 -10z" />
<glyph unicode="&#xe7;" horiz-adv-x="1075" d="M24 203v60q91 128 197 238t221.5 204.5t237 176.5t242.5 154h47q9 0 22 1t25 -3t19 -16.5t3 -40.5q-2 -14 -32.5 -40.5t-79 -61t-111.5 -75.5t-130.5 -84t-135 -86.5t-126 -84t-103 -75t-66.5 -59.5q-9 -11 -28 -36t-41 -52.5t-41 -53t-28 -36.5v-15q0 -23 14.5 -32.5 t34 -12.5t38.5 -1.5t28 1.5q109 0 218 22t217 55t216 72t216 72t216.5 55t218.5 22h81l-46 -30q-104 -30 -213 -72.5t-221 -88.5t-226 -92t-228 -82.5t-227 -59t-222 -22.5h-115q-26 17 -43.5 34.5t-28.5 38.5t-15.5 47t-4.5 59zM172 -367q0 -17 28.5 -15.5t70 15.5t89 38 t86 54t61 62.5t13.5 63.5v11q-31 0 -65.5 -9.5t-68.5 -20.5t-66.5 -18.5t-58.5 -2.5q-6 5 -10 9l-14 14v6q0 23 18 37.5t45.5 24.5t61.5 18.5t65.5 20t56.5 28.5t36 44q5 12 8 19.5t6 14.5t6 15t8 21q1 2 6.5 2t13 -0.5t14 -1t8.5 -0.5q13 -5 12 -12.5t-1 -16.5 q0 -17 -12 -37t-28 -38t-31.5 -32t-21.5 -21h93l6 -10q2 -5 4 -9.5t2 -8.5v-6v-6q0 -5 -6 -12t-6 -12q13 -25 -1.5 -59t-48 -69t-81 -66.5t-99.5 -51t-104 -23.5t-95 17v23z" />
<glyph unicode="&#xe8;" horiz-adv-x="1139" d="M-280 73q0 20 10 34q16 23 51.5 43.5t80.5 38t96 33.5t98 30.5t87 27t63 24.5q47 127 99 222.5t109 166.5t120 120t132 84t144.5 59.5t158.5 44.5q8 2 31 2t49.5 -0.5t49.5 -1t32 -0.5q26 -9 36.5 -32t12.5 -49t-0.5 -49.5t-2.5 -32.5q0 -70 -36 -122t-93.5 -93.5 t-128 -76t-139.5 -68t-128 -70.5t-94 -83l93 -47q6 0 37 -4t75.5 -10t98 -13t104 -13t93 -10t65.5 -4q147 0 288.5 12.5t281.5 27.5t281.5 27.5t288.5 12.5h209q-194 -58 -395 -101.5t-395 -73t-376 -44t-338 -14.5q-87 0 -169.5 7.5t-163 16t-159 16t-156.5 7.5 q-46 0 -90 -9.5t-86.5 -23.5t-84 -30.5t-84 -30.5t-86.5 -23.5t-90 -9.5q-26 0 -44 13t-27 31t-9 38zM370 1486q56 0 106 -25t93.5 -63t81 -82t68.5 -81v-34q0 -25 -12.5 -46t-37.5 -21q-29 0 -62.5 19t-66.5 50t-64 69.5t-54.5 77.5t-37.5 75t-14 61zM437 443 q29 12 79.5 33t110 49t120 63t110 75t81 84t31.5 91q-46 0 -103.5 -11.5t-116.5 -32.5t-115 -52t-100 -69.5t-70.5 -84.5t-26.5 -98v-47zM2565 304l46 46l47 -46h-93zM2918 350q0 9 4 16t13 7q8 0 12 -7t4 -16t-4 -16t-12 -7q-9 0 -13 7t-4 16z" />
<glyph unicode="&#xe9;" horiz-adv-x="1139" d="M-280 73q0 20 10 34q16 23 51.5 43.5t80.5 38t96 33.5t98 30.5t87 27t63 24.5q47 127 99 222.5t109 166.5t120 120t132 84t144.5 59.5t158.5 44.5q8 2 31 2t49.5 -0.5t49.5 -1t32 -0.5q26 -9 36.5 -32t12.5 -49t-0.5 -49.5t-2.5 -32.5q0 -70 -36 -122t-93.5 -93.5 t-128 -76t-139.5 -68t-128 -70.5t-94 -83l93 -47q6 0 37 -4t75.5 -10t98 -13t104 -13t93 -10t65.5 -4q147 0 288.5 12.5t281.5 27.5t281.5 27.5t288.5 12.5h209q-194 -58 -395 -101.5t-395 -73t-376 -44t-338 -14.5q-87 0 -169.5 7.5t-163 16t-159 16t-156.5 7.5 q-46 0 -90 -9.5t-86.5 -23.5t-84 -30.5t-84 -30.5t-86.5 -23.5t-90 -9.5q-26 0 -44 13t-27 31t-9 38zM406 1085q17 56 45.5 113t62.5 109t71.5 96.5t73 76.5t66 49.5t50.5 14.5q25 -14 34 -25t9 -33v-19q-16 -12 -54 -48.5t-85 -83.5t-97 -96.5t-90.5 -88t-65 -58.5 t-20.5 -7zM437 443q29 12 79.5 33t110 49t120 63t110 75t81 84t31.5 91q-46 0 -103.5 -11.5t-116.5 -32.5t-115 -52t-100 -69.5t-70.5 -84.5t-26.5 -98v-47zM2565 304l46 46l47 -46h-93zM2918 350q0 9 4 16t13 7q8 0 12 -7t4 -16t-4 -16t-12 -7q-9 0 -13 7t-4 16z" />
<glyph unicode="&#xea;" horiz-adv-x="1139" d="M-280 73q0 20 10 34q16 23 51.5 43.5t80.5 38t96 33.5t98 30.5t87 27t63 24.5q47 127 99 222.5t109 166.5t120 120t132 84t144.5 59.5t158.5 44.5q8 2 31 2t49.5 -0.5t49.5 -1t32 -0.5q26 -9 36.5 -32t12.5 -49t-0.5 -49.5t-2.5 -32.5q0 -70 -36 -122t-93.5 -93.5 t-128 -76t-139.5 -68t-128 -70.5t-94 -83l93 -47q6 0 37 -4t75.5 -10t98 -13t104 -13t93 -10t65.5 -4q147 0 288.5 12.5t281.5 27.5t281.5 27.5t288.5 12.5h209q-194 -58 -395 -101.5t-395 -73t-376 -44t-338 -14.5q-87 0 -169.5 7.5t-163 16t-159 16t-156.5 7.5 q-46 0 -90 -9.5t-86.5 -23.5t-84 -30.5t-84 -30.5t-86.5 -23.5t-90 -9.5q-26 0 -44 13t-27 31t-9 38zM437 443q29 12 79.5 33t110 49t120 63t110 75t81 84t31.5 91q-46 0 -103.5 -11.5t-116.5 -32.5t-115 -52t-100 -69.5t-70.5 -84.5t-26.5 -98v-47zM654 1117q0 23 21 60.5 t52.5 80.5t70 88t73 83t61 65.5t35.5 36.5h23q22 0 34.5 -7.5t21.5 -20t17.5 -28.5t21.5 -34q9 -14 26 -38.5t36.5 -51.5t36.5 -52t26 -38q9 -22 22 -48.5t22.5 -50t11.5 -39t-11 -15.5q-29 0 -53.5 19t-46 49t-41.5 66t-40.5 70t-44 61.5t-50.5 40.5q-1 1 -16 -15 t-38 -41.5t-52 -57.5t-59 -64t-59 -60t-51.5 -46.5t-36 -23t-13.5 10.5zM2565 304l46 46l47 -46h-93zM2918 350q0 9 4 16t13 7q8 0 12 -7t4 -16t-4 -16t-12 -7q-9 0 -13 7t-4 16z" />
<glyph unicode="&#xeb;" horiz-adv-x="1139" d="M-280 73q0 20 10 34q16 23 51.5 43.5t80.5 38t96 33.5t98 30.5t87 27t63 24.5q47 127 99 222.5t109 166.5t120 120t132 84t144.5 59.5t158.5 44.5q8 2 31 2t49.5 -0.5t49.5 -1t32 -0.5q26 -9 36.5 -32t12.5 -49t-0.5 -49.5t-2.5 -32.5q0 -70 -36 -122t-93.5 -93.5 t-128 -76t-139.5 -68t-128 -70.5t-94 -83l93 -47q6 0 37 -4t75.5 -10t98 -13t104 -13t93 -10t65.5 -4q147 0 288.5 12.5t281.5 27.5t281.5 27.5t288.5 12.5h209q-194 -58 -395 -101.5t-395 -73t-376 -44t-338 -14.5q-87 0 -169.5 7.5t-163 16t-159 16t-156.5 7.5 q-46 0 -90 -9.5t-86.5 -23.5t-84 -30.5t-84 -30.5t-86.5 -23.5t-90 -9.5q-26 0 -44 13t-27 31t-9 38zM311 1308.5q3 27.5 13 51t25 39.5t32 16q13 0 36.5 -4.5t47 -14.5t40.5 -26t17 -38q0 -63 -33.5 -96.5t-95.5 -33.5q-34 0 -52.5 16t-25.5 39.5t-4 51zM437 443 q29 12 79.5 33t110 49t120 63t110 75t81 84t31.5 91q-46 0 -103.5 -11.5t-116.5 -32.5t-115 -52t-100 -69.5t-70.5 -84.5t-26.5 -98v-47zM634 1309.5q3 27.5 13 51t25 39.5t32 16q13 0 36.5 -4.5t47 -14.5t40.5 -26t17 -38q0 -63 -33.5 -96.5t-95.5 -33.5q-34 0 -52.5 16 t-25.5 39.5t-4 51zM2565 304l46 46l47 -46h-93zM2918 350q0 9 4 16t13 7q8 0 12 -7t4 -16t-4 -16t-12 -7q-9 0 -13 7t-4 16z" />
<glyph unicode="&#xec;" d="M43 271q3 36 21 97t46.5 133.5t66 149.5t78 146t82.5 123t81 80q6 -1 16.5 -9.5t20 -20t16.5 -23t7 -17.5l-1 -17l-1 -16l-197 -511q-1 -15 -2 -27q-1 -11 -1.5 -21.5t-0.5 -16.5q-3 -36 -4 -67.5t6.5 -55t29 -38t63.5 -17.5q143 -10 245 -15.5t178 -7.5t134 0.5 t113.5 9.5t116.5 18t143 27t192.5 37t265.5 47q-118 -13 -219.5 -39t-201 -56.5t-203.5 -60.5t-226.5 -51.5t-270 -30.5t-333.5 3q-48 3 -96.5 21.5t-86 50t-60 76t-18.5 99.5zM295 1468q56 0 106 -25t93.5 -63t81 -82t68.5 -81v-34q0 -25 -12.5 -46t-37.5 -21 q-29 0 -62.5 19t-66.5 50t-64 69.5t-54.5 77.5t-37.5 75t-14 61z" />
<glyph unicode="&#xed;" d="M43 271q3 36 21 97t46.5 133.5t66 149.5t78 146t82.5 123t81 80q6 -1 16.5 -9.5t20 -20t16.5 -23t7 -17.5l-1 -17l-1 -16l-197 -511q-1 -15 -2 -27q-1 -11 -1.5 -21.5t-0.5 -16.5q-3 -36 -4 -67.5t6.5 -55t29 -38t63.5 -17.5q143 -10 245 -15.5t178 -7.5t134 0.5 t113.5 9.5t116.5 18t143 27t192.5 37t265.5 47q-118 -13 -219.5 -39t-201 -56.5t-203.5 -60.5t-226.5 -51.5t-270 -30.5t-333.5 3q-48 3 -96.5 21.5t-86 50t-60 76t-18.5 99.5zM248 1085q17 56 45.5 113t62.5 109t71.5 96.5t73 76.5t66 49.5t50.5 14.5q25 -14 34 -25t9 -33 v-19q-16 -12 -54 -48.5t-85 -83.5t-97 -96.5t-90.5 -88t-65 -58.5t-20.5 -7z" />
<glyph unicode="&#xee;" d="M43 271q3 36 21 97t46.5 133.5t66 149.5t78 146t82.5 123t81 80q6 -1 16.5 -9.5t20 -20t16.5 -23t7 -17.5l-1 -17l-1 -16l-197 -511q-1 -15 -2 -27q-1 -11 -1.5 -21.5t-0.5 -16.5q-3 -36 -4 -67.5t6.5 -55t29 -38t63.5 -17.5q143 -10 245 -15.5t178 -7.5t134 0.5 t113.5 9.5t116.5 18t143 27t192.5 37t265.5 47q-118 -13 -219.5 -39t-201 -56.5t-203.5 -60.5t-226.5 -51.5t-270 -30.5t-333.5 3q-48 3 -96.5 21.5t-86 50t-60 76t-18.5 99.5zM190 1074q0 23 21 60.5t52.5 80.5t70 88t73 83t61 65.5t35.5 36.5h23q22 0 34.5 -7.5t21.5 -20 t17.5 -28.5t21.5 -34q9 -14 26 -38.5t36.5 -51.5t36.5 -52t26 -38q9 -22 22 -48.5t22.5 -50t11.5 -39t-11 -15.5q-29 0 -53.5 19t-46 49t-41.5 66t-40.5 70t-44 61.5t-50.5 40.5q-1 1 -16 -15t-38 -41.5t-52 -57.5t-59 -64t-59 -60t-51.5 -46.5t-36 -23t-13.5 10.5z" />
<glyph unicode="&#xef;" d="M43 271q3 36 21 97t46.5 133.5t66 149.5t78 146t82.5 123t81 80q6 -1 16.5 -9.5t20 -20t16.5 -23t7 -17.5l-1 -17l-1 -16l-197 -511q-1 -15 -2 -27q-1 -11 -1.5 -21.5t-0.5 -16.5q-3 -36 -4 -67.5t6.5 -55t29 -38t63.5 -17.5q143 -10 245 -15.5t178 -7.5t134 0.5 t113.5 9.5t116.5 18t143 27t192.5 37t265.5 47q-118 -13 -219.5 -39t-201 -56.5t-203.5 -60.5t-226.5 -51.5t-270 -30.5t-333.5 3q-48 3 -96.5 21.5t-86 50t-60 76t-18.5 99.5zM243 1303.5q3 27.5 13 51t25 39.5t32 16q13 0 36.5 -4.5t47 -14.5t40.5 -26t17 -38 q0 -63 -33.5 -96.5t-95.5 -33.5q-34 0 -52.5 16t-25.5 39.5t-4 51zM566 1304.5q3 27.5 13 51t25 39.5t32 16q13 0 36.5 -4.5t47 -14.5t40.5 -26t17 -38q0 -63 -33.5 -96.5t-95.5 -33.5q-34 0 -52.5 16t-25.5 39.5t-4 51z" />
<glyph unicode="&#xf0;" horiz-adv-x="1251" d="M94 522q0 240 147.5 393.5t385.5 153.5q97 0 172 -45h4q-96 129 -223 221l-265 -141l-94 108l225 121q-112 69 -256 119l148 109q154 -56 280 -136l250 136l95 -109l-213 -115q183 -140 289 -337q118 -220 118 -478q0 -228 -148 -385q-151 -162 -382 -162 q-233 0 -385 162q-148 157 -148 385zM299 522q0 -156 79 -265q90 -126 249 -126q157 0 247 126q78 109 78 265q0 158 -86 270q-92 121 -239 121q-149 0 -242 -121q-86 -112 -86 -270z" />
<glyph unicode="&#xf1;" horiz-adv-x="1251" d="M52 182q0 59 14 127t35 140.5t46 146t47.5 143t39 131.5t20.5 112q7 14 13.5 21t13.5 10.5t14 4t14 0.5q26 0 44.5 -10.5t46.5 -23.5v-19.5t0.5 -26.5t0.5 -26.5v-19.5q0 -32 -12.5 -69.5t-31 -77.5t-40.5 -81t-40.5 -79.5t-30.5 -73t-12 -61.5q1 -14 1 -36v-36 q41 32 89 88t100 122.5t106.5 135t107.5 125.5t104 94t97 41q28 2 47 -17.5t31.5 -47.5t18.5 -58.5t8 -50.5q1 -8 -2 -50t-8.5 -108t-13.5 -150.5t-17 -176.5t-18.5 -187.5t-19.5 -183t-19 -162t-17 -126t-14.5 -74.5t-9.5 -7q-12 53 -18 123.5t-8.5 150t-2.5 164.5 t1.5 167.5t3 158t2 137t-1.5 105t-8 60.5l-11 132q-37 -22 -80 -64t-89 -96t-93.5 -115.5t-93.5 -122.5t-88.5 -117.5t-79 -99.5t-65 -68.5t-46.5 -25.5q-27 0 -42 6.5t-22.5 20t-9 34t-1.5 47.5zM368 1211q0 51 9.5 95t31.5 76.5t59 50.5t92 18q46 0 78.5 -19.5t60 -43.5 t55 -43.5t65.5 -19.5q23 0 35.5 9.5t20 23.5t12.5 30t12.5 30t20 23.5t35.5 9.5q12 0 17 -7t6 -17t0 -19.5t-1 -13.5q0 -30 -10 -60.5t-28 -55.5t-42.5 -40.5t-54.5 -15.5q-34 0 -57.5 13.5t-41.5 34t-31.5 44.5t-27 44.5t-30 34t-38.5 13.5q-45 0 -73 -14.5t-46.5 -36 t-30 -47t-24 -47t-29.5 -36t-45 -14.5z" />
<glyph unicode="&#xf2;" horiz-adv-x="1251" d="M54.5 337.5q8.5 90.5 44 174.5t93.5 159.5t130.5 137t155.5 107t169 70.5q69 19 127.5 28t112.5 -3t107.5 -50.5t111.5 -114.5l13 -46q25 -85 6 -170t-67 -164.5t-118.5 -151t-150 -129t-160.5 -99t-150 -60.5q-51 -15 -113.5 -22t-121 4t-105.5 45.5t-66 102.5 q-27 91 -18.5 181.5zM227 418q-16 -59 1 -118q10 -35 30.5 -49.5t46.5 -16t54 5t54 14.5q77 22 138.5 53.5t111.5 76t90 102.5t74 132q-38 35 -82.5 51t-91.5 19t-94.5 -4.5t-90.5 -19.5q-51 -15 -101.5 -51.5t-87 -86t-52.5 -108.5zM430 1486q56 0 106 -25t93.5 -63t81 -82 t68.5 -81v-34q0 -25 -12.5 -46t-37.5 -21q-29 0 -62.5 19t-66.5 50t-64 69.5t-54.5 77.5t-37.5 75t-14 61z" />
<glyph unicode="&#xf3;" horiz-adv-x="1251" d="M54.5 337.5q8.5 90.5 44 174.5t93.5 159.5t130.5 137t155.5 107t169 70.5q69 19 127.5 28t112.5 -3t107.5 -50.5t111.5 -114.5l13 -46q25 -85 6 -170t-67 -164.5t-118.5 -151t-150 -129t-160.5 -99t-150 -60.5q-51 -15 -113.5 -22t-121 4t-105.5 45.5t-66 102.5 q-27 91 -18.5 181.5zM227 418q-16 -59 1 -118q10 -35 30.5 -49.5t46.5 -16t54 5t54 14.5q77 22 138.5 53.5t111.5 76t90 102.5t74 132q-38 35 -82.5 51t-91.5 19t-94.5 -4.5t-90.5 -19.5q-51 -15 -101.5 -51.5t-87 -86t-52.5 -108.5zM718 1173q17 56 45.5 113t62.5 109 t71.5 96.5t73 76.5t66 49.5t50.5 14.5q25 -14 34 -25t9 -33v-19q-16 -12 -54 -48.5t-85 -83.5t-97 -96.5t-90.5 -88t-65 -58.5t-20.5 -7z" />
<glyph unicode="&#xf4;" horiz-adv-x="1251" d="M54.5 337.5q8.5 90.5 44 174.5t93.5 159.5t130.5 137t155.5 107t169 70.5q69 19 127.5 28t112.5 -3t107.5 -50.5t111.5 -114.5l13 -46q25 -85 6 -170t-67 -164.5t-118.5 -151t-150 -129t-160.5 -99t-150 -60.5q-51 -15 -113.5 -22t-121 4t-105.5 45.5t-66 102.5 q-27 91 -18.5 181.5zM227 418q-16 -59 1 -118q10 -35 30.5 -49.5t46.5 -16t54 5t54 14.5q77 22 138.5 53.5t111.5 76t90 102.5t74 132q-38 35 -82.5 51t-91.5 19t-94.5 -4.5t-90.5 -19.5q-51 -15 -101.5 -51.5t-87 -86t-52.5 -108.5zM581 1142q0 23 21 60.5t52.5 80.5t70 88 t73 83t61 65.5t35.5 36.5h23q22 0 34.5 -7.5t21.5 -20t17.5 -28.5t21.5 -34q9 -14 26 -38.5t36.5 -51.5t36.5 -52t26 -38q9 -22 22 -48.5t22.5 -50t11.5 -39t-11 -15.5q-29 0 -53.5 19t-46 49t-41.5 66t-40.5 70t-44 61.5t-50.5 40.5q-1 1 -16 -15t-38 -41.5t-52 -57.5 t-59 -64t-59 -60t-51.5 -46.5t-36 -23t-13.5 10.5z" />
<glyph unicode="&#xf5;" horiz-adv-x="1201" d="M54.5 337.5q8.5 90.5 44 174.5t93.5 159.5t130.5 137t155.5 107t169 70.5q69 19 127.5 28t112.5 -3t107.5 -50.5t111.5 -114.5l13 -46q25 -85 6 -170t-67 -164.5t-118.5 -151t-150 -129t-160.5 -99t-150 -60.5q-51 -15 -113.5 -22t-121 4t-105.5 45.5t-66 102.5 q-27 91 -18.5 181.5zM227 418q-16 -59 1 -118q10 -35 30.5 -49.5t46.5 -16t54 5t54 14.5q77 22 138.5 53.5t111.5 76t90 102.5t74 132q-38 35 -82.5 51t-91.5 19t-94.5 -4.5t-90.5 -19.5q-51 -15 -101.5 -51.5t-87 -86t-52.5 -108.5zM608 1236q0 51 9.5 95t31.5 76.5 t59 50.5t92 18q46 0 78.5 -19.5t60 -43.5t55 -43.5t65.5 -19.5q23 0 35.5 9.5t20 23.5t12.5 30t12.5 30t20 23.5t35.5 9.5q12 0 17 -7t6 -17t0 -19.5t-1 -13.5q0 -30 -10 -60.5t-28 -55.5t-42.5 -40.5t-54.5 -15.5q-34 0 -57.5 13.5t-41.5 34t-31.5 44.5t-27 44.5t-30 34 t-38.5 13.5q-45 0 -73 -14.5t-46.5 -36t-30 -47t-24 -47t-29.5 -36t-45 -14.5z" />
<glyph unicode="&#xf6;" horiz-adv-x="1176" d="M54.5 337.5q8.5 90.5 44 174.5t93.5 159.5t130.5 137t155.5 107t169 70.5q69 19 127.5 28t112.5 -3t107.5 -50.5t111.5 -114.5l13 -46q25 -85 6 -170t-67 -164.5t-118.5 -151t-150 -129t-160.5 -99t-150 -60.5q-51 -15 -113.5 -22t-121 4t-105.5 45.5t-66 102.5 q-27 91 -18.5 181.5zM227 418q-16 -59 1 -118q10 -35 30.5 -49.5t46.5 -16t54 5t54 14.5q77 22 138.5 53.5t111.5 76t90 102.5t74 132q-38 35 -82.5 51t-91.5 19t-94.5 -4.5t-90.5 -19.5q-51 -15 -101.5 -51.5t-87 -86t-52.5 -108.5zM361 1308.5q3 27.5 13 51t25 39.5t32 16 q13 0 36.5 -4.5t47 -14.5t40.5 -26t17 -38q0 -63 -33.5 -96.5t-95.5 -33.5q-34 0 -52.5 16t-25.5 39.5t-4 51zM684 1309.5q3 27.5 13 51t25 39.5t32 16q13 0 36.5 -4.5t47 -14.5t40.5 -26t17 -38q0 -63 -33.5 -96.5t-95.5 -33.5q-34 0 -52.5 16t-25.5 39.5t-4 51z" />
<glyph unicode="&#xf7;" horiz-adv-x="1229" d="M-43 537q0 21 11.5 39t37.5 18q11 0 17.5 -5t16.5 -10h126q126 0 251.5 4.5t251.5 10t251.5 10t251.5 4.5q16 0 29 -7t13 -29q0 -8 -6 -23.5t-14.5 -30.5t-18 -26.5t-17.5 -11.5q-26 0 -41.5 12t-30 26t-32.5 25t-49 8h-182q-100 0 -200.5 -9t-201.5 -19.5t-201.5 -19.5 t-199.5 -9q-13 0 -24.5 0.5t-20 4.5t-13.5 13t-5 25zM461.5 896.5q4.5 36.5 17.5 68t33 52.5t42 21q18 0 49 -6t62 -19.5t53.5 -34.5t22.5 -50q0 -83 -44.5 -128t-126.5 -45q-45 0 -69.5 21t-34 52.5t-5 68zM467.5 273.5q4.5 36.5 17.5 68t33 52.5t42 21q18 0 49 -6 t62 -19.5t53.5 -34.5t22.5 -50q0 -83 -44.5 -128t-126.5 -45q-45 0 -69.5 21t-34 52.5t-5 68z" />
<glyph unicode="&#xf8;" horiz-adv-x="1251" d="M31 327q-10 74 13.5 151t73.5 151t122.5 141.5t161.5 120.5q71 43 136.5 74t139.5 46t163.5 10.5t208.5 -32.5l45 -25q83 -49 113 -116.5t21 -143.5t-50 -156t-101.5 -153.5t-133.5 -137t-145 -106.5q-35 -21 -78 -42.5t-92 -39.5t-101.5 -30t-105 -14t-103.5 7.5 t-96 35.5q-89 52 -135.5 118.5t-56.5 140.5zM93 -271q36 83 67 152q13 29 26 57.5t24.5 52t19.5 39.5t12 20l869 1342q7 21 6 22t-5.5 -11.5t-11.5 -35t-13 -48.5t-9.5 -51.5t-1.5 -43.5q2 -23 -0.5 -39t-11.5 -30.5t-24.5 -28t-38.5 -31.5q-109 -148 -185.5 -280.5 t-137.5 -252.5t-115 -229.5t-118.5 -212t-148 -199.5t-203.5 -192zM260.5 470q-16.5 -62 5 -121t93.5 -101q42 -25 84 -26.5t82 11t77.5 34t70.5 41.5q100 59 168 118.5t109 123.5t57 135t11 152q-86 11 -166.5 1.5t-154 -32t-139 -54t-120.5 -64.5q-65 -40 -113 -98 t-64.5 -120z" />
<glyph unicode="&#xf9;" horiz-adv-x="1534" d="M120 237q0 58 5.5 138.5t19.5 166.5t37.5 170t59 151t84.5 108t114 41q19 0 44 -0.5t50 -2t47 -5t35 -9t14.5 -14t-14.5 -19.5q-77 -57 -133.5 -129t-88 -146.5t-35.5 -144.5t24 -121h26q93 -19 177 9.5t164 87t158 139t159.5 164.5t168.5 163.5t184 136.5v-858 q0 -65 39 -126t100 -114.5t135.5 -97.5t146.5 -76t132 -49.5t93 -17.5t123 -2.5t224.5 -3t307.5 5t372 21t418 44t444.5 75.5t451.5 114.5t441 161.5l-52 -52q-24 -24 -96.5 -53.5t-182.5 -62.5t-251.5 -68.5t-302 -70.5t-334 -69t-349 -65t-346 -56.5t-325 -44.5 t-286.5 -29.5t-229 -10.5q-176 0 -311.5 33.5t-236 96.5t-169.5 154.5t-111.5 206.5t-61 252.5t-18.5 293.5q-52 -73 -127 -145.5t-161.5 -139t-179 -123.5t-179 -99.5t-162 -66.5t-127.5 -24q-49 0 -75.5 10t-38.5 32t-14 56.5t-2 83.5zM693 1624q56 0 106 -25t93.5 -63 t81 -82t68.5 -81v-34q0 -25 -12.5 -46t-37.5 -21q-29 0 -62.5 19t-66.5 50t-64 69.5t-54.5 77.5t-37.5 75t-14 61z" />
<glyph unicode="&#xfa;" horiz-adv-x="1496" d="M120 237q0 58 5.5 138.5t19.5 166.5t37.5 170t59 151t84.5 108t114 41q19 0 44 -0.5t50 -2t47 -5t35 -9t14.5 -14t-14.5 -19.5q-77 -57 -133.5 -129t-88 -146.5t-35.5 -144.5t24 -121h26q93 -19 177 9.5t164 87t158 139t159.5 164.5t168.5 163.5t184 136.5v-858 q0 -65 39 -126t100 -114.5t135.5 -97.5t146.5 -76t132 -49.5t93 -17.5t123 -2.5t224.5 -3t307.5 5t372 21t418 44t444.5 75.5t451.5 114.5t441 161.5l-52 -52q-24 -24 -96.5 -53.5t-182.5 -62.5t-251.5 -68.5t-302 -70.5t-334 -69t-349 -65t-346 -56.5t-325 -44.5 t-286.5 -29.5t-229 -10.5q-176 0 -311.5 33.5t-236 96.5t-169.5 154.5t-111.5 206.5t-61 252.5t-18.5 293.5q-52 -73 -127 -145.5t-161.5 -139t-179 -123.5t-179 -99.5t-162 -66.5t-127.5 -24q-49 0 -75.5 10t-38.5 32t-14 56.5t-2 83.5zM763 1173q17 56 45.5 113t62.5 109 t71.5 96.5t73 76.5t66 49.5t50.5 14.5q25 -14 34 -25t9 -33v-19q-16 -12 -54 -48.5t-85 -83.5t-97 -96.5t-90.5 -88t-65 -58.5t-20.5 -7z" />
<glyph unicode="&#xfb;" horiz-adv-x="1515" d="M120 237q0 58 5.5 138.5t19.5 166.5t37.5 170t59 151t84.5 108t114 41q19 0 44 -0.5t50 -2t47 -5t35 -9t14.5 -14t-14.5 -19.5q-77 -57 -133.5 -129t-88 -146.5t-35.5 -144.5t24 -121h26q93 -19 177 9.5t164 87t158 139t159.5 164.5t168.5 163.5t184 136.5v-858 q0 -65 39 -126t100 -114.5t135.5 -97.5t146.5 -76t132 -49.5t93 -17.5t123 -2.5t224.5 -3t307.5 5t372 21t418 44t444.5 75.5t451.5 114.5t441 161.5l-52 -52q-24 -24 -96.5 -53.5t-182.5 -62.5t-251.5 -68.5t-302 -70.5t-334 -69t-349 -65t-346 -56.5t-325 -44.5 t-286.5 -29.5t-229 -10.5q-176 0 -311.5 33.5t-236 96.5t-169.5 154.5t-111.5 206.5t-61 252.5t-18.5 293.5q-52 -73 -127 -145.5t-161.5 -139t-179 -123.5t-179 -99.5t-162 -66.5t-127.5 -24q-49 0 -75.5 10t-38.5 32t-14 56.5t-2 83.5zM571 1287q0 23 21 60.5t52.5 80.5 t70 88t73 83t61 65.5t35.5 36.5h23q22 0 34.5 -7.5t21.5 -20t17.5 -28.5t21.5 -34q9 -14 26 -38.5t36.5 -51.5t36.5 -52t26 -38q9 -22 22 -48.5t22.5 -50t11.5 -39t-11 -15.5q-29 0 -53.5 19t-46 49t-41.5 66t-40.5 70t-44 61.5t-50.5 40.5q-1 1 -16 -15t-38 -41.5 t-52 -57.5t-59 -64t-59 -60t-51.5 -46.5t-36 -23t-13.5 10.5z" />
<glyph unicode="&#xfc;" horiz-adv-x="1490" d="M120 237q0 58 5.5 138.5t19.5 166.5t37.5 170t59 151t84.5 108t114 41q19 0 44 -0.5t50 -2t47 -5t35 -9t14.5 -14t-14.5 -19.5q-77 -57 -133.5 -129t-88 -146.5t-35.5 -144.5t24 -121h26q93 -19 177 9.5t164 87t158 139t159.5 164.5t168.5 163.5t184 136.5v-858 q0 -65 39 -126t100 -114.5t135.5 -97.5t146.5 -76t132 -49.5t93 -17.5t123 -2.5t224.5 -3t307.5 5t372 21t418 44t444.5 75.5t451.5 114.5t441 161.5l-52 -52q-24 -24 -96.5 -53.5t-182.5 -62.5t-251.5 -68.5t-302 -70.5t-334 -69t-349 -65t-346 -56.5t-325 -44.5 t-286.5 -29.5t-229 -10.5q-176 0 -311.5 33.5t-236 96.5t-169.5 154.5t-111.5 206.5t-61 252.5t-18.5 293.5q-52 -73 -127 -145.5t-161.5 -139t-179 -123.5t-179 -99.5t-162 -66.5t-127.5 -24q-49 0 -75.5 10t-38.5 32t-14 56.5t-2 83.5zM643 1383.5q3 27.5 13 51t25 39.5 t32 16q13 0 36.5 -4.5t47 -14.5t40.5 -26t17 -38q0 -63 -33.5 -96.5t-95.5 -33.5q-34 0 -52.5 16t-25.5 39.5t-4 51zM966 1384.5q3 27.5 13 51t25 39.5t32 16q13 0 36.5 -4.5t47 -14.5t40.5 -26t17 -38q0 -63 -33.5 -96.5t-95.5 -33.5q-34 0 -52.5 16t-25.5 39.5t-4 51z" />
<glyph unicode="&#xfd;" horiz-adv-x="1132" d="M-507 -1582q192 54 339.5 113t261 121t199 128t154.5 134t127.5 138.5t117.5 143.5q143 227 268.5 680.5t222.5 1141.5q36 0 66.5 -12t51 -33.5t28.5 -51t-1 -64.5q-46 -187 -89 -383.5t-94.5 -392.5t-116.5 -386t-156.5 -364t-214.5 -325.5t-289.5 -271t-382 -201.5 t-492.5 -115zM151 240q0 58 3.5 133t14 153.5t30 153.5t51.5 134t79 95t112 36q19 0 44 -0.5t50 -2t47 -5t35 -9t14.5 -14t-14.5 -19.5q-52 -38 -97.5 -84.5t-83 -97.5t-64.5 -103.5t-41 -102.5t-13.5 -94.5t19.5 -78.5h26q93 -19 167.5 -5t139 55t122.5 105t118 144.5 t126 174t147 193.5q5 -145 -44.5 -264t-155.5 -229q-78 -109 -168 -193t-182.5 -141t-183 -86.5t-168.5 -29.5q-49 0 -75.5 10t-38.5 32t-14 56.5t-2 83.5zM556 1179q17 56 45.5 113t62.5 109t71.5 96.5t73 76.5t66 49.5t50.5 14.5q25 -14 34 -25t9 -33v-19 q-16 -12 -54 -48.5t-85 -83.5t-97 -96.5t-90.5 -88t-65 -58.5t-20.5 -7z" />
<glyph unicode="&#xfe;" horiz-adv-x="1251" d="M164 -430v1966h192v-635h4q104 168 347 168q216 0 339 -159q111 -145 111 -369q0 -237 -106 -390q-121 -176 -342 -176q-245 0 -349 168h-4v-573h-192zM356 520q0 -150 73 -260q85 -129 235 -129q141 0 222 136q66 113 66 259q0 160 -65 265q-76 122 -221 122 q-148 0 -233 -123q-77 -110 -77 -270z" />
<glyph unicode="&#xff;" horiz-adv-x="1107" d="M-507 -1582q192 54 339.5 113t261 121t199 128t154.5 134t127.5 138.5t117.5 143.5q143 227 268.5 680.5t222.5 1141.5q36 0 66.5 -12t51 -33.5t28.5 -51t-1 -64.5q-46 -187 -89 -383.5t-94.5 -392.5t-116.5 -386t-156.5 -364t-214.5 -325.5t-289.5 -271t-382 -201.5 t-492.5 -115zM151 240q0 58 3.5 133t14 153.5t30 153.5t51.5 134t79 95t112 36q19 0 44 -0.5t50 -2t47 -5t35 -9t14.5 -14t-14.5 -19.5q-52 -38 -97.5 -84.5t-83 -97.5t-64.5 -103.5t-41 -102.5t-13.5 -94.5t19.5 -78.5h26q93 -19 167.5 -5t139 55t122.5 105t118 144.5 t126 174t147 193.5q5 -145 -44.5 -264t-155.5 -229q-78 -109 -168 -193t-182.5 -141t-183 -86.5t-168.5 -29.5q-49 0 -75.5 10t-38.5 32t-14 56.5t-2 83.5zM368 1334.5q3 27.5 13 51t25 39.5t32 16q13 0 36.5 -4.5t47 -14.5t40.5 -26t17 -38q0 -63 -33.5 -96.5t-95.5 -33.5 q-34 0 -52.5 16t-25.5 39.5t-4 51zM691 1335.5q3 27.5 13 51t25 39.5t32 16q13 0 36.5 -4.5t47 -14.5t40.5 -26t17 -38q0 -63 -33.5 -96.5t-95.5 -33.5q-34 0 -52.5 16t-25.5 39.5t-4 51z" />
<glyph unicode="&#x152;" horiz-adv-x="2685" d="M86 298q0 108 38.5 213.5t106 203.5t159 187t197.5 165.5t221 139t229 106t223 67.5t203 24h226q19 -47 38 -69t40 -29t45 -5t52 2q150 0 300 12t300.5 26t300.5 26t300 12q0 -75 -31 -124t-85.5 -78t-128.5 -42t-160 -18t-180 -5t-188 -2.5t-184.5 -11.5t-170 -31.5 t-143.5 -62t-105 -103.5h50q106 0 208.5 13t202.5 32.5t198.5 42.5t196.5 42.5t196.5 32.5t198.5 13q0 -28 -1 -52t-5.5 -45t-14.5 -40.5t-29 -38.5q-169 -19 -353.5 -47t-372 -65.5t-372.5 -84.5t-354 -104q-28 -19 -47 -34t-31 -31.5t-17 -37t-5 -48.5q0 -47 25 -76.5 t62.5 -46t81 -22.5t81.5 -6q100 0 196.5 18.5t190.5 46.5t186 61t184 61t184 46.5t186 18.5q37 0 61.5 -5.5t38.5 -19.5t19.5 -38.5t5.5 -62.5q0 -47 -54 -90.5t-143.5 -82t-205 -72.5t-239 -62.5t-245 -50.5t-222.5 -37.5t-173 -23.5t-95 -8q-75 0 -136.5 22.5t-113.5 62.5 t-95 95t-80 121q-94 -38 -173 -81.5t-156 -81.5t-160.5 -63t-186.5 -25q-132 0 -204 60t-72 191zM262 298q119 0 239 34t231.5 95.5t208 147t168.5 189t113 221t41 243.5q-71 0 -151 -24.5t-164 -68t-167 -102.5t-159.5 -128.5t-142 -146.5t-114 -155.5t-76 -156 t-27.5 -148.5z" />
<glyph unicode="&#x153;" horiz-adv-x="1836" d="M106 500q0 25 15.5 68.5t42 96.5t62.5 109t77 106t84.5 89t86 56.5t81.5 9t70 -53.5l297 -428h37q32 0 61 39.5t59.5 99t64.5 129t77 129t96.5 99t122.5 39.5q49 0 95.5 -36.5t83 -94.5t59 -129t22.5 -141v-80q-42 -30 -95.5 -71.5t-113 -81.5t-120.5 -72t-116 -42v-27 q0 -53 30.5 -87.5t78.5 -55.5t106.5 -30t114 -12t102 -2t69.5 1q69 0 138.5 16.5t139 37t139 37t138.5 16.5h57q-14 -50 -48 -88t-82 -66.5t-105.5 -47.5t-119.5 -31.5t-124 -19.5t-118.5 -10t-103.5 -3.5t-78 -0.5q-61 0 -115.5 20t-105.5 49.5t-99 64t-96 64t-96 49.5 t-99 20q-42 0 -81 -16t-77.5 -39.5t-76.5 -51.5t-77.5 -51.5t-82 -39.5t-88.5 -16q-83 0 -154.5 30t-123.5 90t-81.5 150t-29.5 210zM254 473q0 -40 14 -69.5t36.5 -50t51 -33.5t57.5 -20.5t55 -10t45 -2.5q7 0 34.5 5.5t59 18t58.5 33t34 50.5q-28 26 -45 62t-30 74.5 t-24.5 76t-29 67t-44 48t-68.5 18.5t-79 -15.5t-64.5 -47.5t-44 -83t-16.5 -121zM1144 607h93q97 0 171.5 40t143.5 121q-7 10 -26 36t-41.5 53.5t-45 49t-36.5 21.5q-41 -10 -81.5 -39t-75.5 -71.5t-61.5 -96.5t-40.5 -114zM2306 207q50 11 96 -4.5t90 -43.5t86 -62.5 t84 -63.5t84 -45t85 -7q18 3 19 23t-5.5 43.5t-16 45t-11.5 27.5q16 -5 25.5 -17t19 -23t21.5 -17.5t35 -1.5q30 6 38.5 28t5.5 50.5t-12 61.5t-12 61.5t4 49.5t36 27q16 4 25 1.5t14.5 -9t8.5 -17t8 -23.5q10 -27 10.5 -54t-1.5 -53t-3 -50t7 -45q1 -3 3.5 -9t6.5 -12 t8.5 -10.5t10.5 -3.5l123 26q-1 -5 -2 -9q-2 -10 1 -14q0 -26 -2 -36.5t-3.5 -16t-0.5 -11.5t7 -23q10 -27 30.5 -42.5t45 -22t51.5 -5.5t51 6q46 9 81.5 33.5t68.5 52.5t68.5 53t81.5 35q30 6 51 9.5t39.5 1.5t38 -10.5t46.5 -26.5q-14 -22 -45 -42.5t-71.5 -40.5 t-86.5 -40t-91 -41.5t-85 -44.5t-67 -49t-38 -55.5t2 -63.5q9 -26 30 -38.5t47.5 -18.5t55.5 -8.5t55.5 -8t47 -17t29.5 -35.5q8 -23 -1.5 -28.5t-31.5 -10.5q-25 -5 -52 -2.5t-55 8.5t-55.5 14.5t-53.5 15.5q-20 -3 -24 -18t-0.5 -34t11 -38t11.5 -30q13 -36 35 -68.5 t45.5 -63t43.5 -59.5t31 -58l3 -9q-37 14 -67 38.5t-57 52t-53.5 54.5t-56.5 46.5t-64.5 28t-77.5 -0.5q-36 -7 -50.5 -27.5t-18.5 -47t-3 -56.5t-3 -57t-19.5 -47.5t-51.5 -27.5q-15 40 -12 75.5t10 69.5t10.5 67.5t-9.5 69.5q-7 19 -26 29.5t-41 15.5t-43 5t-32 -2 q-29 -6 -55.5 -16t-53.5 -21.5t-54.5 -22.5t-57.5 -18l-6 17q20 4 42 18.5t42 34.5t37 45t28 50.5t14.5 49.5t-3.5 44q-8 21 -26.5 30.5t-43 13.5t-51.5 6.5t-51.5 8t-44 17.5t-28.5 37q-6 15 -5 22.5t7 11.5t15.5 6t21.5 4q24 5 48.5 2.5t49 -7t48.5 -7.5t46 2 q17 5 28.5 21t4.5 36q-19 51 -59 82.5t-91.5 53.5t-108.5 40t-108.5 42t-93.5 58.5t-62 89.5zM2371 88q-2 7 5 8.5t9 -5.5q2 -5 -5 -6.5t-9 3.5zM2428 260.5q0 9.5 3.5 18t10.5 8.5t10 -8.5t3 -18t-3 -18t-10 -8.5t-10.5 8.5t-3.5 18zM2516 -5q-2 5 4.5 6t8.5 -4 q2 -6 -4.5 -7.5t-8.5 5.5zM2559 -294q-2 4 6.5 6t10.5 -3q1 -4 -1 -6t-5 -3t-6.5 0.5t-4.5 5.5zM2611 -599q-2 4 5 6t9 -3q2 -7 -5 -9t-9 6zM2641 -640q-2 5 5 6.5t9 -3.5q2 -6 -5 -7.5t-9 4.5zM2720.5 268.5q-4.5 7.5 7.5 13.5l8 -24q-11 3 -15.5 10.5zM2737 235 q6 1 14 0.5t17 -3.5t16.5 -8t12.5 -12q1 -3 2.5 -10t2.5 -14.5t1 -14.5t-2 -10q-24 5 -40 27.5t-24 44.5zM2757.5 -761.5q3.5 30.5 18 50.5t41.5 20q33 -4 58 -26.5t41 -54t22 -66.5t1 -64.5t-22 -48t-46 -15.5q-29 0 -51.5 20.5t-37.5 51t-21.5 66.5t-3 66.5zM2922 112 q-2 5 5.5 6t9.5 -4q2 -7 -5.5 -8.5t-9.5 6.5zM3112.5 -993.5q3.5 30.5 18 50.5t42.5 19q32 -3 57 -25.5t40.5 -53.5t21.5 -66t1 -64t-21 -47.5t-44 -15.5q-29 0 -52 20t-38 50.5t-22 66t-3.5 66zM3196 88q-2 7 4.5 7.5t8.5 -4.5q2 -6 -4.5 -7.5t-8.5 4.5zM3235 127 q-9 25 3.5 33.5t33.5 13.5q4 -11 1.5 -19t-8 -13.5t-14 -9t-16.5 -5.5zM3275 -634q-2 6 4.5 7.5t8.5 -5.5q2 -4 -4.5 -5.5t-8.5 3.5zM3292 -1296q4 30 18.5 50t42.5 19q32 -3 56.5 -25t40.5 -53t21.5 -66.5t0.5 -65t-21.5 -48t-46.5 -15.5q-28 0 -50.5 20.5t-37.5 51.5 t-21.5 66.5t-2.5 65.5zM3478.5 166.5q-3.5 14.5 1 14.5t12 -15.5t9.5 -44.5q-19 31 -22.5 45.5zM3513 -771q-2 5 4.5 6t8.5 -4q3 -7 -3.5 -8.5t-9.5 6.5zM3518 75l37 -21l-6 -1q-21 -5 -28 15zM3537 -875q-2 4 5 5t8 -2q4 -9 -3 -10.5t-10 7.5zM3559 -857q-1 2 1 3t5 1.5 t5.5 0t3.5 -1.5q2 -6 -5.5 -7.5t-9.5 4.5z" />
<glyph unicode="&#x178;" horiz-adv-x="1366" d="M45 939q0 42 2.5 102t10 128t21.5 138t37 132.5t57 112t81 75.5q8 0 22 -10t27.5 -23.5t23.5 -27.5t10 -22q6 -6 10 -13q4 -6 7.5 -13.5t3.5 -15.5q-52 0 -89.5 -28.5t-63 -74t-41 -103t-23.5 -115.5t-10.5 -111t-2.5 -89q0 -63 3 -113t20.5 -85.5t56 -54.5t109.5 -19 q113 0 208.5 37t177 98.5t152 141t135 164.5t125.5 169.5t123 155.5t128 122.5t141 71.5q16 8 31 5t27 -12.5t19 -24t7 -30.5q0 -84 -21.5 -175.5t-54.5 -189t-70.5 -199.5t-70.5 -206t-54.5 -209.5t-21.5 -209.5v-250q55 62 126 134t154 148t175 153.5t189 151.5t196 142 t195.5 124t188.5 99t174 66l501 87q-131 -11 -280 -59.5t-304 -124t-311.5 -174t-303 -210t-277 -231.5t-234 -239t-174.5 -232t-99 -210q-6 -25 -18 -79.5t-29 -128.5t-38.5 -163.5t-47 -186t-55.5 -194.5t-63.5 -189t-70 -171t-76 -139t-81 -93t-85.5 -34q-26 0 -44 16 t-29.5 40.5t-17.5 55.5t-9 61.5t-3.5 56.5t-0.5 42q0 109 23.5 206.5t62.5 187t90 172.5t106 163t109.5 159.5t101.5 161t82 167.5t51 180q4 27 9 79t10.5 118.5t11.5 144.5t12 158.5t11.5 158.5t11 145t10 118.5t8.5 79.5v20v21q-74 -20 -137 -55.5t-119 -80t-107 -95.5 t-102 -100.5t-104 -95.5t-112.5 -80.5t-128.5 -55.5t-151 -21q-57 0 -98 17.5t-69 48t-44.5 70t-25 83.5t-11 89.5t-2.5 87.5zM416 1672.5q3 27.5 13 51t25 39.5t32 16q13 0 36.5 -4.5t47 -14.5t40.5 -26t17 -38q0 -63 -33.5 -96.5t-95.5 -33.5q-34 0 -52.5 16t-25.5 39.5 t-4 51zM582 -1248q0 31 0.5 71.5t3.5 80t10 74t19 52.5l294 556v-66q0 -104 -28 -220t-74 -229t-105 -217t-120 -183v81zM739 1673.5q3 27.5 13 51t25 39.5t32 16q13 0 36.5 -4.5t47 -14.5t40.5 -26t17 -38q0 -63 -33.5 -96.5t-95.5 -33.5q-34 0 -52.5 16t-25.5 39.5t-4 51z " />
<glyph unicode="&#x2c6;" horiz-adv-x="704" d="M65 1117q0 23 21 60.5t52.5 80.5t70 88t73 83t61 65.5t35.5 36.5h23q22 0 34.5 -7.5t21.5 -20t17.5 -28.5t21.5 -34q9 -14 26 -38.5t36.5 -51.5t36.5 -52t26 -38q9 -22 22 -48.5t22.5 -50t11.5 -39t-11 -15.5q-29 0 -53.5 19t-46 49t-41.5 66t-40.5 70t-44 61.5 t-50.5 40.5q-1 1 -16 -15t-38 -41.5t-52 -57.5t-59 -64t-59 -60t-51.5 -46.5t-36 -23t-13.5 10.5z" />
<glyph unicode="&#x2dc;" d="M-22 1211q0 51 9.5 95t31.5 76.5t59 50.5t92 18q46 0 78.5 -19.5t60 -43.5t55 -43.5t65.5 -19.5q23 0 35.5 9.5t20 23.5t12.5 30t12.5 30t20 23.5t35.5 9.5q12 0 17 -7t6 -17t0 -19.5t-1 -13.5q0 -30 -10 -60.5t-28 -55.5t-42.5 -40.5t-54.5 -15.5q-34 0 -57.5 13.5 t-41.5 34t-31.5 44.5t-27 44.5t-30 34t-38.5 13.5q-45 0 -73 -14.5t-46.5 -36t-30 -47t-24 -47t-29.5 -36t-45 -14.5z" />
<glyph unicode="&#x2000;" horiz-adv-x="1419" />
<glyph unicode="&#x2001;" horiz-adv-x="2838" />
<glyph unicode="&#x2002;" horiz-adv-x="1419" />
<glyph unicode="&#x2003;" horiz-adv-x="2838" />
<glyph unicode="&#x2004;" horiz-adv-x="946" />
<glyph unicode="&#x2005;" horiz-adv-x="709" />
<glyph unicode="&#x2006;" horiz-adv-x="473" />
<glyph unicode="&#x2007;" horiz-adv-x="473" />
<glyph unicode="&#x2008;" horiz-adv-x="354" />
<glyph unicode="&#x2009;" horiz-adv-x="567" />
<glyph unicode="&#x200a;" horiz-adv-x="157" />
<glyph unicode="&#x2010;" horiz-adv-x="953" d="M86 683q0 6 8 12.5t18 11.5q11 6 26 11q75 -3 161.5 4.5t174 18.5t171.5 20.5t156 9.5q53 0 73.5 -23t14.5 -83q-3 -20 -8 -30.5t-12.5 -15.5t-17.5 -6t-23 -1q-23 0 -45 5.5t-44 12.5t-45.5 12.5t-49.5 5.5q-59 0 -118.5 -8.5t-119.5 -18t-118.5 -18t-113.5 -8.5 q-46 0 -67 17.5t-21 70.5z" />
<glyph unicode="&#x2011;" horiz-adv-x="953" d="M86 683q0 6 8 12.5t18 11.5q11 6 26 11q75 -3 161.5 4.5t174 18.5t171.5 20.5t156 9.5q53 0 73.5 -23t14.5 -83q-3 -20 -8 -30.5t-12.5 -15.5t-17.5 -6t-23 -1q-23 0 -45 5.5t-44 12.5t-45.5 12.5t-49.5 5.5q-59 0 -118.5 -8.5t-119.5 -18t-118.5 -18t-113.5 -8.5 q-46 0 -67 17.5t-21 70.5z" />
<glyph unicode="&#x2012;" horiz-adv-x="953" d="M86 683q0 6 8 12.5t18 11.5q11 6 26 11q75 -3 161.5 4.5t174 18.5t171.5 20.5t156 9.5q53 0 73.5 -23t14.5 -83q-3 -20 -8 -30.5t-12.5 -15.5t-17.5 -6t-23 -1q-23 0 -45 5.5t-44 12.5t-45.5 12.5t-49.5 5.5q-59 0 -118.5 -8.5t-119.5 -18t-118.5 -18t-113.5 -8.5 q-46 0 -67 17.5t-21 70.5z" />
<glyph unicode="&#x2013;" horiz-adv-x="1024" d="M-8 679q0 8 10.5 16.5t24.5 15.5q15 8 35 15q67 -3 141 1t151 12t155.5 18t154.5 19t148 15t136 6q70 0 97.5 -31.5t19.5 -110.5q-5 -26 -11.5 -40.5t-16.5 -21t-23 -7.5t-31 -1q-31 0 -60 7.5t-58 16t-60.5 16t-66.5 7.5q-78 0 -158.5 -11t-160 -24.5t-158 -24.5 t-152.5 -11q-31 0 -53 5t-36.5 18.5t-21 36.5t-6.5 58z" />
<glyph unicode="&#x2014;" horiz-adv-x="2048" d="M21 611q0 17 4.5 33.5t13.5 29t24 20.5t36 8q17 0 28 -7.5t28 -15.5h202q202 0 404 7t403.5 16t403.5 16t404 7q12 0 24 -2.5t21.5 -9t15.5 -17.5t6 -28q0 -13 -9.5 -38t-23 -49.5t-29 -43t-28.5 -18.5q-28 0 -48 9.5t-36 23t-31 29t-33 28t-41.5 20t-56.5 4.5h-292 q-160 0 -321.5 -14t-323 -31.5t-323 -31.5t-321.5 -14q-21 0 -39.5 1t-32 7.5t-21.5 20.5t-8 40z" />
<glyph unicode="&#x2018;" d="M69 980q17 57 45.5 113.5t62.5 108.5t71.5 96.5t73 76.5t66 49.5t50.5 14.5q25 -14 34 -25t9 -33v-19q-16 -12 -54 -48.5t-85 -83.5t-97 -96.5t-90.5 -88t-65 -58.5t-20.5 -7z" />
<glyph unicode="&#x2019;" d="M69 980q17 57 45.5 113.5t62.5 108.5t71.5 96.5t73 76.5t66 49.5t50.5 14.5q25 -14 34 -25t9 -33v-19q-16 -12 -54 -48.5t-85 -83.5t-97 -96.5t-90.5 -88t-65 -58.5t-20.5 -7z" />
<glyph unicode="&#x201a;" d="M24 -225q0 29 21 73t54 94.5t74.5 103.5t81.5 99.5t75.5 82t57.5 52.5q25 -14 34 -25t9 -33v-19q-2 -15 -17 -43.5t-38.5 -64t-53 -76t-62 -80.5t-64.5 -76.5t-59.5 -64.5t-48.5 -44.5t-31 -16.5q-17 0 -25 12t-8 26z" />
<glyph unicode="&#x201c;" horiz-adv-x="1139" d="M273 1014.5q-5 13.5 1 38.5q9 42 27 78t41.5 69.5t49 65.5t49 66.5t41.5 73.5t27 85h85q0 -29 -8.5 -78t-24 -105t-37.5 -113t-50 -103.5t-61.5 -75.5t-71.5 -29q-12 0 -26.5 1t-25.5 7t-16 19.5zM509 970q0 25 18 68.5t46.5 94t64.5 102.5t71.5 94t67 69t52.5 27 q0 -26 -13 -75.5t-34.5 -109.5t-49 -123t-57.5 -114.5t-60 -84.5t-55 -33q-19 0 -29.5 8.5t-15 21t-5.5 27.5t-1 28z" />
<glyph unicode="&#x201d;" horiz-adv-x="1139" d="M256 1037.5q-5 13.5 1 38.5q8 42 26.5 78t42 69.5t49 65.5t49 66.5t41.5 73.5t27 85h85q0 -29 -8.5 -78t-24 -105t-37.5 -113t-50 -103.5t-61.5 -75.5t-71.5 -29q-12 0 -26.5 1t-25.5 7t-16 19.5zM492 993q0 25 18 68.5t46.5 94t64.5 102.5t71.5 94t67 69t52.5 27 q0 -26 -13 -75.5t-34.5 -109.5t-49 -123t-57.5 -114.5t-60 -84.5t-55 -33q-19 0 -29.5 8.5t-15 21t-5.5 27.5t-1 28z" />
<glyph unicode="&#x201e;" horiz-adv-x="1139" d="M222 -248.5q-5 13.5 1 38.5q8 42 26.5 78t42 69.5t49 65.5t49 66.5t41.5 73.5t27 85h85q0 -29 -8.5 -78t-24 -105t-37.5 -113t-50 -103.5t-61.5 -75.5t-71.5 -29q-12 0 -26.5 1t-25.5 7t-16 19.5zM458 -293q0 25 18 68.5t46.5 94t64.5 102.5t71.5 94t67 69t52.5 27 q0 -25 -13 -75t-34.5 -110t-49 -123t-57.5 -114.5t-60 -84.5t-55 -33q-19 0 -29.5 8.5t-15 21t-5.5 27.5t-1 28z" />
<glyph unicode="&#x2022;" horiz-adv-x="1024" d="M222 668q0 130 65 196t186 66q49 0 100.5 -10t94 -32.5t69.5 -59t27 -89.5q0 -72 -23.5 -132.5t-64.5 -105t-98.5 -69.5t-124.5 -25q-64 0 -108 16.5t-71.5 49.5t-39.5 82t-12 113z" />
<glyph unicode="&#x2026;" horiz-adv-x="2048" d="M286 155.5q3 27.5 13 51t25 39.5t32 16q13 0 36.5 -4.5t47 -14.5t40.5 -26t17 -38q0 -63 -33.5 -96.5t-95.5 -33.5q-34 0 -52.5 16t-25.5 39.5t-4 51zM833 162.5q3 27.5 13 51t25 39.5t32 16q13 0 36.5 -4.5t47 -14.5t40.5 -26t17 -38q0 -63 -33.5 -96.5t-95.5 -33.5 q-34 0 -52.5 16t-25.5 39.5t-4 51zM1414 155.5q3 27.5 13 51t25 39.5t32 16q13 0 36.5 -4.5t47 -14.5t40.5 -26t17 -38q0 -63 -33.5 -96.5t-95.5 -33.5q-34 0 -52.5 16t-25.5 39.5t-4 51z" />
<glyph unicode="&#x202f;" horiz-adv-x="567" />
<glyph unicode="&#x2039;" d="M41 551l293 414h180l-266 -414l266 -414h-180z" />
<glyph unicode="&#x203a;" horiz-adv-x="622" d="M46 910q0 48 40 48h13q55 -61 111.5 -108.5t113.5 -92t113.5 -89.5t110.5 -100q21 -24 24.5 -43.5t-4.5 -36.5t-24 -31.5t-35 -28t-37 -27t-29 -28.5q-10 -12 -28.5 -35t-42 -51.5t-48.5 -59.5t-48.5 -59.5t-42 -51.5t-28.5 -35h-93q0 53 16 92.5t41.5 71.5t57 59.5 t62 57t57.5 63t44 78.5q-20 24 -53.5 53.5t-71.5 62.5t-77 69t-70.5 73t-51.5 74.5t-20 74.5z" />
<glyph unicode="&#x205f;" horiz-adv-x="709" />
<glyph unicode="&#x20ac;" horiz-adv-x="1139" d="M-120 654v19q0 21 15.5 42t39 39t50 32t47.5 21q106 28 219 56t229 53t232.5 46t230.5 35h18h19q7 0 17 -6t21 -13t21 -13t17 -6q0 -21 -10 -41.5t-25.5 -36.5t-36 -26t-41.5 -10q-119 -14 -207.5 -26t-160 -25t-131.5 -28t-121.5 -35.5t-131 -48.5t-159.5 -66l-76 -38z M-103 328q0 7 0.5 31.5t4 51.5t11.5 48t22 21l1139 267l38 -38q-43 -36 -108 -71.5t-144 -69t-166.5 -64t-174.5 -57.5t-169.5 -49t-150.5 -37.5t-117.5 -24t-70.5 -8.5h-114zM68 243v60q-1 125 29 246.5t87.5 231t139.5 204.5t184.5 167.5t223.5 119t256 59.5h47q9 0 22 1 t25 -3t19 -16.5t3 -40.5q-2 -14 -29.5 -28t-72.5 -30.5t-104 -38t-123.5 -50t-131 -67t-127 -89.5t-111.5 -116t-85 -147q-6 -7 -18.5 -40t-28 -78.5t-33.5 -97.5t-33.5 -98t-28 -79t-18.5 -40v-15q0 -23 14.5 -32.5t34 -12.5t38.5 -1.5t28 1.5q109 0 218 22t217 55t216 72 t216 72t216.5 55t218.5 22h81l-46 -30q-104 -30 -213 -72.5t-221 -88.5t-226 -92t-228 -82.5t-227 -59t-222 -22.5h-115q-26 17 -43.5 34.5t-28.5 38.5t-15.5 47t-4.5 59z" />
<glyph unicode="&#x2122;" horiz-adv-x="2028" d="M131 1291q0 8 3 17.5t11 14.5q52 16 108.5 30.5t113 31t110 37.5t98.5 51q0 6 -1 23t0.5 35t6 32.5t14.5 15.5q4 0 12 -2.5t9 -6.5l5 -84q6 1 11 1h9t6 1q2 0 8 2t12.5 4t12.5 4.5t8 2.5l836 163q13 2 40.5 5.5t63.5 8t78.5 9.5t84.5 9t82 7.5t71 5.5q6 0 14 0.5t16 0.5 q9 0 18 1l10 -9q-56 -23 -117 -33t-125 -14.5t-129 -6.5t-129 -7.5t-126 -17.5t-119 -38l-505 -101l-124 -39l-9 -11q-4 -19 -14.5 -59.5t-25 -94t-31.5 -116t-35 -124.5t-34.5 -119.5t-30 -101.5t-22.5 -70.5t-11 -26.5q-5 74 6 147t31.5 144.5t47.5 142t54 138.5l-1 11 q2 4 5.5 19.5t7 33t7 33t5.5 19.5v5q0 5 -2 12.5t-9 3.5l-338 -124l11 -10zM709 834q5 9 17 42.5t28.5 81t36 102.5t40 108.5t40 99t35.5 72.5q4 8 11.5 15.5t16.5 9.5q25 4 45 -12t37.5 -42.5t32.5 -59.5t30.5 -63t31.5 -52.5t35 -27.5q43 42 74 86t60.5 89t62 90.5 t77.5 89.5l12 2q14 2 22 -1t12.5 -9t6.5 -14.5t4 -17.5q10 -67 1 -142t-25.5 -152t-34 -151.5t-23.5 -140.5q8 -22 7.5 -44t-5.5 -45q-8 4 -12.5 12.5t-6.5 18t-3 17.5t-1 12q-8 47 -5 94t10.5 94t18 94t18.5 93t11 91.5t-4 90.5q-1 3 -1.5 9t-1.5 10q-26 -17 -48 -47.5 t-42 -67t-38.5 -75.5t-38.5 -71.5t-42 -55t-48 -26.5q-36 -6 -60.5 9t-42 41t-30.5 58t-26 61.5t-28 51t-36 25.5q-5 -17 -17.5 -60t-30 -97.5t-38 -113.5t-41 -108.5t-39 -83t-32.5 -35.5q-19 -3 -23.5 8t-6.5 22zM1995.5 549.5q-0.5 4.5 4.5 4.5q5 1 5.5 -3t-4.5 -5 t-5.5 3.5zM2053 1703v21h135q-14 -8 -31.5 -11.5t-36 -5t-36.5 -2t-31 -2.5z" />
<glyph unicode="&#x25fc;" horiz-adv-x="1020" d="M0 0v1020h1020v-1020h-1020z" />
<glyph unicode="&#xfb01;" horiz-adv-x="1366" d="M43 889v155h246v97q0 209 68 305q82 115 282 115q51 0 129 -13l-8 -155q-34 12 -92 12q-116 0 -157 -74q-30 -52 -30 -174v-113h277v-155h-277v-889h-192v889h-246zM973 1278v217h217v-217h-217zM985 0v1044h193v-1044h-193z" />
<glyph unicode="&#xfb02;" horiz-adv-x="1366" d="M43 889v155h246v97q0 209 68 305q82 115 282 115q51 0 129 -13l-8 -155q-34 12 -92 12q-116 0 -157 -74q-30 -52 -30 -174v-113h277v-155h-277v-889h-192v889h-246zM985 0v1536h193v-1536h-193z" />
</font>
</defs>
</svg>
